<svg width="1920" height="67" viewBox="0 0 1920 67" fill="none" xmlns="http://www.w3.org/2000/svg">
<path d="M164.285 4.92578C179.623 6.38359 208.707 11.4955 224.606 14.2516C224.898 14.3017 225.19 14.3518 225.482 14.4018C229.259 15.0527 232.833 15.6414 237.022 16.3174C247.009 17.8543 260.464 20.3081 288.578 23.8357C296.774 24.6964 304.977 25.4151 313.176 25.9574C317.773 26.2615 322.372 26.5096 326.986 26.6968C386.561 28.7944 446.7 28.0183 506.664 27.8356C531.931 27.747 557.174 27.5449 582.504 27.7584C583.642 27.7574 584.798 27.7572 585.973 27.7582C608.596 27.7128 636.725 28.4447 654.347 29.6701C658.135 29.9202 661.711 30.175 665.131 30.4326C681.936 31.753 694.028 33.2753 704.343 34.3867C739.976 37.9895 775.59 40.8514 811.433 43.2033C846.892 45.5317 882.373 47.5522 917.914 49.39C940.263 50.5424 962.632 51.6124 985.001 52.591C1005.59 53.4912 1026.19 54.3219 1046.8 55.067C1058.81 55.3875 1070.16 55.6334 1080.78 55.8403C1095.61 56.1286 1108.91 56.3348 1119.82 56.552C1121.58 56.5872 1123.34 56.6226 1125.08 56.6578C1149.91 57.2279 1177.17 56.5716 1197.64 54.8638C1201.2 54.5798 1204.63 54.2706 1207.73 53.9635C1225.11 52.0342 1242.36 49.2358 1259.44 45.5744C1260.6 45.3861 1261.76 45.1953 1262.93 44.9989C1277.67 42.5179 1295.52 38.1229 1323.29 29.6682C1330.35 27.5261 1338.06 25.129 1346.55 22.4988C1352.66 20.6189 1359.3 18.6052 1366.69 17.2812C1378.1 15.3576 1383.96 15.6186 1388.67 15.5282C1390.07 15.5241 1391.36 15.5286 1392.68 15.5254C1397.2 15.5163 1401.96 15.208 1407.53 14.8866C1414.65 14.4761 1423.18 14.0467 1434.48 14.2325C1434.64 14.2351 1434.79 14.2379 1434.95 14.2408C1471.53 14.9291 1487.59 14.3046 1499.82 13.7873C1503.36 13.6395 1506.66 13.5076 1509.94 13.4358C1520.7 13.2014 1536.04 13.4698 1547.62 13.8455C1556.8 14.1386 1575.17 13.9962 1589.13 13.8182C1594.38 13.749 1601.54 13.8236 1609.93 13.9369C1618.61 14.0546 1628.68 14.2132 1639.44 14.3113C1647.26 14.3831 1654.03 14.4791 1659.94 14.5915C1674.78 14.8889 1684.53 15.3781 1692.82 15.8328C1696.18 16.0224 1699.2 16.2085 1702.33 16.4152C1712.09 17.0536 1724.2 18.0786 1736.39 19.3345C1751.03 20.8319 1765.8 22.6441 1777.02 23.9939C1806.06 28.0235 1834.87 32.5846 1863.71 34.3463C1865.45 34.4519 1867.18 34.5531 1868.89 34.6494L1868.41 34.6502C1877.9 34.3934 1887.05 33.7189 1895.24 33.7447C1898.11 33.7553 1900.81 33.8553 1903.29 34.011C1914.07 34.7387 1919.99 36.1301 1920 37.4216C1920.01 38.7642 1913.99 39.9183 1903.49 41.1354C1901.08 41.4261 1898.48 41.7307 1895.73 42.0774C1887.97 43.0577 1878.72 44.4344 1868.87 44.9941C1868.79 44.9971 1868.55 44.9988 1868.47 44.9948C1866.71 44.9478 1864.93 44.8825 1863.15 44.7993C1832.55 43.3459 1802.44 38.8945 1772.46 35.1089C1735.95 30.3761 1699.43 26.6967 1662.81 25.4678C1661.74 25.4305 1660.67 25.3949 1659.6 25.361C1634.96 24.6029 1610.27 24.2408 1585.53 23.943C1582.88 23.912 1580.23 23.8823 1577.57 23.8539C1555.9 23.9979 1534.28 24.2236 1519.03 24.3093C1506.45 24.3799 1497.27 24.2151 1489.42 24.0793C1484.04 23.9863 1479.26 23.9079 1474.38 23.9378C1471.82 23.9537 1468.21 23.9863 1463.97 24.0288C1456.19 24.1067 1445.84 24.2188 1434.57 24.3367C1420.48 24.507 1404.68 24.5418 1389.92 25.0293C1378 25.3433 1365.11 26.6935 1352.51 30.5376C1351.43 30.8401 1350.41 31.1317 1349.33 31.4444C1332.25 36.4085 1316.54 40.8452 1308.39 43.2556C1293.22 47.8198 1275.51 52.1786 1259.7 55.2476C1244.64 58.2134 1231.31 60.0872 1223.77 61.3183C1214.74 62.784 1206.99 63.5696 1195.44 64.3798C1187.45 64.9207 1177.61 65.4631 1164.25 65.8299C1148.79 66.2281 1137.89 65.9303 1128.65 65.6108C1127.37 65.5646 1126.11 65.5163 1124.87 65.4664C1113.66 65.0095 1104.44 64.6416 1091.29 64.5019C1075.15 64.3297 1058.22 63.9331 1044.91 63.3188C1038.86 63.0395 1031.92 62.7806 1024.71 62.503C1015.17 62.1363 1005.1 61.7343 995.953 61.2211C988.386 60.7971 982.166 60.2682 976.651 59.7969C974.931 59.6499 973.279 59.5088 971.679 59.3778C965.66 59.1115 959.647 58.8427 953.627 58.5721C952.651 58.5682 951.625 58.5664 950.555 58.5637C945.178 58.5503 938.578 58.5307 930.397 58.2826C917.461 57.89 906.127 57.1856 894.185 56.4263C884.877 55.834 875.176 55.207 864.091 54.6572C856.477 54.2793 847.933 53.9169 839.323 53.5358C829.084 53.0838 818.942 52.6137 810.895 52.1197C808.895 51.9972 807.045 51.8747 805.363 51.7522C802.194 51.5206 799.253 51.1748 796.552 50.8422C796.54 50.8405 796.528 50.8387 796.516 50.837C796.33 50.8143 796.145 50.7918 795.96 50.7692C774.751 49.5353 753.513 48.1413 732.314 46.5002C730.454 46.3852 728.646 46.2723 726.77 46.1511C717.809 45.5779 709.031 44.9639 703.336 44.7081C697.156 44.4676 681.637 43.0145 665.479 42.1301C665.125 42.1115 664.77 42.0933 664.416 42.0754C654.066 41.5502 643.484 41.1593 634.781 40.9905C629.517 40.8867 624.524 40.5644 619.391 40.2622C614.601 39.9807 609.676 39.7169 604.288 39.6786C601.589 39.6595 598.671 39.6929 595.561 39.7383C592.819 39.7781 589.918 39.8273 586.891 39.8568C584.065 39.8836 577.792 39.7751 569.732 39.6884C564.749 39.634 559.098 39.5869 553.152 39.5678C537.716 39.7916 522.242 40.073 506.785 40.3128C506.517 40.3171 506.249 40.3213 505.979 40.3255C502.707 40.5027 499.88 40.7198 497.595 40.9848C495.989 41.1746 494.629 41.3958 493.2 41.6223C491.265 41.9305 489.303 42.2487 486.543 42.5142C484.43 42.7213 481.844 42.8211 480.176 42.7604C479.387 42.7322 478.777 42.6704 478.223 42.6145C477.589 42.5504 477.014 42.4936 476.325 42.502C475.833 42.5081 475.32 42.5628 474.687 42.629C473.68 42.7347 472.345 42.8715 470.337 42.8945C462.86 42.9801 454.362 43.012 446.031 43.0288C436.768 43.0481 427.709 43.0476 420.492 43.1036C412.405 43.1675 400.883 42.9929 389.332 42.7536C381.275 42.5879 373.204 42.3905 366.276 42.248C359.487 42.1092 352.415 42.0897 345.558 42.0256C338.801 41.9631 332.245 41.8555 326.391 41.5622C325.102 41.4979 323.849 41.4229 322.638 41.3369C321.267 41.2393 319.583 40.955 317.457 40.5836C315.952 40.3205 314.232 40.0136 312.267 39.6962C303.667 39.1273 295.088 38.3541 286.538 37.4186C286.235 37.4133 285.92 37.407 285.605 37.4011C285.6 37.4012 285.595 37.4013 285.59 37.4014C278.508 37.2686 268.77 36.99 255.433 34.5416C252.046 33.9188 249.937 33.3561 248.043 32.8495C246.181 32.3509 244.517 31.9024 242.052 31.4798C239.248 30.9993 235.917 30.6092 232.283 30.1725C227.186 29.5609 221.495 28.8581 215.867 27.7166C215.483 27.6387 215.07 27.5545 214.639 27.4675C210.559 26.643 204.526 25.4181 198.564 23.9911C180.681 20.9432 162.832 18.0133 144.941 15.7102C137.046 14.693 129.142 13.7963 121.227 13.0563C99.7313 11.186 77.4995 12.7049 55.5337 14.8314C40.9585 16.2851 26.9586 17.6819 16.524 18.2842C6.09458 18.8934 0.0760911 18.6029 -0.0716361 17.3106C-0.317902 16.048 5.28378 13.8746 15.4693 11.3353C25.6595 8.80597 39.629 6.18638 54.3923 4.42588C76.6855 1.85451 99.1699 -0.189273 122.213 1.38369C123.99 1.51808 125.763 1.66 127.532 1.80903C128.797 1.89976 130.076 1.99655 131.343 2.09757C140.773 2.85082 149.52 3.54351 158.256 4.34803C160.262 4.53309 162.27 4.72486 164.285 4.92578Z" fill="#FFF9F5"/>
</svg>
