<svg width="119" height="17" viewBox="0 0 119 17" fill="#A9BAB7" xmlns="http://www.w3.org/2000/svg">
<path d="M15.136 0.0320129L14.912 1.05601C14.8907 1.20535 14.848 1.37601 14.784 1.56801V1.63201V1.66401V1.69601L14.752 1.72801V1.76001V1.79201V1.82401L14.72 1.85601V1.88801V1.92001V1.95201V1.98401L14.688 2.01601V2.04801V2.08001V2.11201L14.656 2.14401V2.17601V2.20801V2.24001V2.27201H14.624V2.30401V2.33601V2.36801V2.40001H14.592V2.43201V2.46401V2.49601V2.52801L14.56 2.56001V2.59201V2.62401V2.65601L14.528 2.68801V2.72001V2.75201V2.78401V2.81601H14.496V2.84801V2.88001V2.91201V2.94401L14.464 2.97601V3.00801V3.04001V3.07201L14.432 3.10401V3.13601V3.16801V3.20001V3.23201L14.4 3.26401V3.29601V3.32801V3.36001L14.368 3.39201L13.216 8.38401V8.41601C12.9387 9.67468 12.7147 10.656 12.544 11.36C12.032 13.6 10.7307 15.072 8.64003 15.776C6.8267 16.3733 5.01337 16.288 3.20003 15.52C1.53603 14.7947 0.533368 13.7493 0.192034 12.384C0.0640342 11.808 0.0747008 11.2107 0.224034 10.592C0.288034 10.2933 0.362701 9.97335 0.448034 9.63201L2.62403 0.0320129H7.00803L4.54403 10.72C4.5227 10.784 4.51203 10.848 4.51203 10.912C4.4267 11.296 4.6187 11.6373 5.08803 11.936C5.5787 12.2347 6.13337 12.3733 6.75203 12.352C7.39203 12.3307 7.8507 12.1067 8.12803 11.68L8.99203 8.00001L10.272 2.46401C10.4214 1.73868 10.56 1.13068 10.688 0.640012L10.816 0.0320129H15.136ZM30.4028 0.0320129L34.7548 1.14441e-05L28.8028 8.12801L31.5228 16.032L27.0428 16.064L25.7948 12.192L22.9468 16.064L17.4108 16.032L24.3228 7.52001L21.9548 0.0320129L26.0188 1.14441e-05L27.3308 3.80801L30.4028 0.0320129ZM43.9478 5.44001C45.4411 5.41868 46.4225 5.40801 46.8918 5.40801C47.4251 5.40801 47.7665 5.16268 47.9158 4.67201C48.0438 4.22401 47.8945 3.92535 47.4678 3.77601C47.3825 3.73335 47.2758 3.71201 47.1478 3.71201C46.5505 3.71201 45.6225 3.72268 44.3638 3.74401L43.9478 5.44001ZM42.3478 12.064C43.6491 12.064 44.5665 12.0533 45.0998 12.032C45.9531 12.0107 46.5078 11.6053 46.7638 10.816C46.9985 10.176 46.9131 9.69601 46.5078 9.37601C46.3371 9.26935 46.1451 9.21601 45.9318 9.21601C45.8678 9.21601 45.8038 9.21601 45.7398 9.21601H45.6758H45.6118C45.0785 9.19468 44.3851 9.18401 43.5318 9.18401C43.3611 9.18401 43.1905 9.18401 43.0198 9.18401L42.3478 12.064ZM37.0678 15.968L38.8598 8.22401L39.9158 3.58401L40.7478 1.14441e-05H47.8838C48.9718 1.14441e-05 49.8678 0.288012 50.5718 0.864012C51.2758 1.44001 51.7131 2.13335 51.8838 2.94401C52.0758 3.73335 52.0225 4.58668 51.7238 5.50401C51.4251 6.40001 50.8918 7.15735 50.1238 7.77601C50.4011 8.41601 50.5505 9.10935 50.5718 9.85601C50.5931 10.5813 50.4758 11.3173 50.2198 12.064C49.9851 12.7893 49.6225 13.4507 49.1318 14.048C48.6625 14.6453 48.0011 15.1253 47.1478 15.488C46.2945 15.8507 45.3345 16.032 44.2678 16.032C43.4145 16.032 41.0038 16.032 37.0358 16.032L37.0678 15.968ZM62.4138 0.0320129H67.0538L61.0698 8.70401C61.0485 8.78935 61.0271 8.86401 61.0058 8.92801L59.7258 14.464L59.3738 16.032H55.0538L55.0858 15.872V15.84V15.808L55.1178 15.776V15.744V15.712V15.68L55.1498 15.648V15.616V15.584V15.552L55.1818 15.52V15.488V15.456V15.424V15.392L55.2138 15.36L55.6298 13.536C55.9498 12.1493 56.3338 10.464 56.7818 8.48001L54.2218 1.14441e-05H58.3498L59.7258 3.96801L62.4138 0.0320129ZM76.4218 3.90401L75.2378 8.96001L74.4698 12.32H78.2138L81.5098 8.41601L80.0378 3.93601C78.8218 3.93601 77.6165 3.92535 76.4218 3.90401ZM69.2858 16L69.3178 15.904V15.84V15.808L69.3498 15.776V15.744V15.712V15.68V15.648H69.3818V15.616V15.584V15.552L69.4138 15.52V15.488V15.456V15.424V15.392L69.8618 13.568L71.1418 8.00001L72.0698 3.87201L72.9658 0.0320129H83.4618L86.2778 8.67201L80.0058 16.032L69.2858 16.064V16ZM96.4725 1.14441e-05L96.2485 1.05601C96.2272 1.18401 96.1952 1.35468 96.1525 1.56801L95.7045 3.39201L94.4565 8.92801L94.1365 10.208L93.7205 12.16L100.537 12.096L99.5445 16.032H88.4725L90.9045 5.50401L91.6085 2.43201V2.36801L91.6405 2.33601V2.27201V2.20801L91.6725 2.17601V2.11201V2.08001L91.7045 2.01601V1.98401V1.95201L91.7365 1.88801V1.85601V1.82401L91.7685 1.76001V1.72801V1.69601V1.66401L91.8005 1.63201V1.60001V1.56801V1.53601V1.50401L91.8325 1.47201V1.44001V1.40801V1.37601H91.8645V1.34401V1.31201V1.28001V1.24801V1.21601H91.8965V1.18401V1.15201V1.12001V1.08801H91.9285V1.05601V1.02401V0.992012V0.960012L91.9605 0.928012V0.896012V0.864012V0.832012L91.9925 0.800013V0.768012V0.736012V0.704012V0.672012L92.0245 0.640012V0.608012L92.1525 0.0320129L96.4725 1.14441e-05ZM118.978 0.0320129L118.754 1.05601L118.722 1.08801V1.12001V1.15201V1.18401V1.21601H118.69V1.24801V1.28001V1.31201V1.34401V1.37601H118.658V1.40801V1.44001V1.47201V1.50401L118.626 1.53601V1.56801V1.60001L118.594 1.63201V1.69601V1.72801V1.76001L118.562 1.79201V1.82401V1.85601V1.88801V1.92001L118.53 1.95201V1.98401V2.01601V2.04801L118.498 2.08001V2.11201V2.14401V2.17601L118.466 2.20801V2.24001V2.27201V2.30401V2.33601H118.434V2.36801V2.40001V2.43201V2.46401L118.402 2.49601V2.52801V2.56001V2.59201L118.37 2.62401V2.65601V2.68801V2.72001V2.75201L118.338 2.78401V2.81601V2.84801V2.88001L118.306 2.91201V2.94401V2.97601V3.00801L118.274 3.04001V3.07201V3.10401V3.13601V3.16801H118.242V3.20001V3.23201V3.26401V3.29601L118.21 3.32801V3.39201L116.93 8.92801L115.65 14.496C115.586 14.7947 115.522 15.0827 115.458 15.36C115.394 15.616 115.351 15.7973 115.33 15.904L115.298 16.064H110.946L111.01 15.872C111.031 15.744 111.063 15.5733 111.106 15.36C111.234 14.848 111.372 14.24 111.522 13.536L112.546 9.15201C111.266 9.15201 109.996 9.16268 108.738 9.18401L107.138 16.032H102.818L103.554 12.8L105.25 5.40801H105.282L105.634 3.84001L106.498 0.0320129C107.522 0.0320129 108.535 0.0320129 109.538 0.0320129C109.964 0.0320129 110.391 0.0213458 110.818 1.14441e-05V0.0320129L110.21 2.75201L109.602 5.40801C110.86 5.40801 112.13 5.40801 113.41 5.40801L114.082 2.43201L114.498 0.608012L114.658 0.0320129H118.978Z" fill="#A9BAB7"/>
</svg>
