<svg xmlns:xlink="http://www.w3.org/1999/xlink" width="181" height="28" viewBox="0 0 181 28" fill="none" xmlns="http://www.w3.org/2000/svg">
<g clip-path="url(#clip0_143_228)">
<path d="M37.0018 6.13559H42.2759L47.8416 18.3583H48.2281V6.13559H51.2516V21.8109H45.9775L40.3898 9.58819H40.0276V21.8109H37.0018V6.13559ZM54.2001 13.9732C54.2001 9.09847 57.418 5.76663 62.1135 5.76663C66.2745 5.76663 69.0794 8.16824 69.298 11.8668H66.206C65.7223 9.61278 64.4148 8.63336 62.9152 8.63336H61.1726C59.0678 8.63336 57.3275 10.9858 57.3275 13.9732C57.3275 16.9607 59.0634 19.3131 61.1726 19.3131H62.9152C64.4148 19.3131 65.7709 18.3337 66.2546 16.0797H69.3466C69.1257 19.6799 66.2745 22.1799 62.0163 22.1799C57.5395 22.1799 54.2001 19.3869 54.2001 13.9732ZM72.3459 6.14677H79.6342C83.0465 6.14677 84.7626 8.39856 84.7626 10.8986C84.7857 11.8475 84.5057 12.7786 83.9641 13.5533C83.4226 14.3281 82.6483 14.9052 81.7567 15.1987L85.3611 21.8109H81.9333L78.6205 15.6638H75.418V21.8109H72.3459V6.14677ZM79.4134 13.1504C80.8423 13.1504 81.6882 12.1955 81.6882 10.9724C81.6882 9.74919 80.8291 8.78765 79.4089 8.78765H75.418V13.1392L79.4134 13.1504ZM96.6624 6.14677H102.184L107.332 21.8109H104.158L102.877 17.9178H95.885L94.6018 21.8109H91.5098L96.6624 6.14677ZM101.985 15.2344L99.9974 9.20804H98.7385L96.7508 15.2456L101.985 15.2344ZM111.63 8.93747H106.787V6.13559H119.512V8.92629H114.698V21.8109H111.626L111.63 8.93747ZM122.231 6.14677H125.306V19.0202H133.095V21.8109H122.218L122.231 6.14677ZM135.792 6.14677H147.14V8.78765H138.827V12.4795H146.521V15.0757H138.827V19.1656H147.246V21.8109H135.779L135.792 6.14677ZM149.437 13.9844C149.437 9.08506 152.679 5.77781 157.445 5.77781C162.163 5.77781 165.429 9.08506 165.429 13.9844C165.429 18.8838 162.163 22.191 157.445 22.191C152.666 22.1799 149.423 18.8726 149.423 13.9732L149.437 13.9844ZM156.623 19.3243H158.293C160.566 19.3243 162.284 16.9719 162.284 13.9844C162.284 10.997 160.559 8.63336 158.28 8.63336H156.61C154.311 8.63336 152.568 11.0327 152.568 13.9732C152.568 16.9138 154.311 19.3131 156.61 19.3131L156.623 19.3243ZM167.505 16.9965H170.65C170.82 18.3695 171.642 19.3981 173.117 19.3981H175.105C176.459 19.3981 177.234 18.564 177.234 17.437C177.234 16.4084 176.556 15.6749 175.419 15.552L172.128 15.1852C169.323 14.8655 167.918 13.1727 167.918 10.6526C167.918 7.59132 170.169 5.77781 173.881 5.77781C177.753 5.77781 179.809 7.51752 179.955 10.9478H176.808C176.711 9.73577 175.96 8.56403 174.557 8.56403H172.912C171.726 8.56403 170.924 9.27513 170.924 10.4267C170.924 11.5783 171.77 12.2626 172.834 12.3856L176.125 12.7523C178.762 13.0475 180.262 14.5412 180.262 17.2604C180.262 20.3462 178.133 22.1799 173.899 22.1799C169.665 22.1799 167.565 20.4156 167.492 16.9853L167.505 16.9965ZM13.2883 0.961182C9.8798 0.961182 6.61091 2.33209 4.20072 4.77233C1.79055 7.21256 0.436523 10.5222 0.436523 13.9732C0.436523 17.4243 1.79055 20.7339 4.20072 23.1742C6.61091 25.6144 9.8798 26.9853 13.2883 26.9853C16.6968 26.9853 19.9657 25.6144 22.3759 23.1742C24.7861 20.7339 26.14 17.4243 26.14 13.9732C26.14 10.5222 24.7861 7.21256 22.3759 4.77233C19.9657 2.33209 16.6968 0.961182 13.2883 0.961182ZM13.2883 25.9142C11.7578 25.9142 10.3531 24.861 9.26426 23.1168C9.41445 23.0654 9.56021 23.0117 9.70598 22.958C12.3873 21.9131 14.8731 20.4128 17.0562 18.5215C17.8912 17.814 18.684 17.0568 19.4304 16.2541C18.8783 21.7572 16.3384 25.9142 13.2883 25.9142ZM4.2839 21.6656C4.27064 21.6477 4.25518 21.632 4.23972 21.6141C3.51531 20.6369 5.04365 17.9916 6.09273 16.4263C6.26208 18.2066 6.67845 19.9538 7.32954 21.6164C6.04193 22.0256 4.79187 22.2045 4.2839 21.6723V21.6656ZM13.2883 2.03229C14.8189 2.03229 16.2235 3.08551 17.3124 4.82969C17.1622 4.88112 17.0142 4.93479 16.8706 4.98845C14.1893 6.03342 11.7035 7.53376 9.52046 9.42495C8.68259 10.1325 7.88754 10.8904 7.1396 11.6946C7.69837 6.19597 10.2427 2.03229 13.2883 2.03229ZM22.3016 6.27423L22.3435 6.32343C23.07 7.30285 21.5418 9.9482 20.4927 11.5135C20.3201 9.73432 19.9008 7.98863 19.2471 6.3279C20.5347 5.92092 21.7848 5.73532 22.3016 6.27423ZM9.05003 12.8731C10.3752 12.8216 11.7975 12.7948 13.2949 12.7948C15.5389 12.7948 17.637 12.8574 19.4216 12.9648C18.8341 13.6915 18.2046 14.3959 17.5398 15.0734C16.2147 15.1226 14.7924 15.1517 13.2949 15.1517C11.051 15.1517 8.95285 15.0891 7.16831 14.9795C7.74917 14.255 8.38745 13.5506 9.05003 12.8731ZM19.4569 11.8959C17.6127 11.7818 15.4947 11.7237 13.2883 11.7237C12.2282 11.7237 11.1902 11.7371 10.1963 11.7639C10.4348 11.5448 10.677 11.3287 10.9229 11.1155C12.4142 9.86073 14.0223 8.75538 15.7244 7.81493C16.5412 7.38584 17.3818 7.00507 18.2422 6.6745C18.8974 8.34534 19.3067 10.1046 19.4569 11.8959ZM4.68365 14.7783C2.70917 14.5681 1.49885 14.2841 1.49885 13.9732C1.49885 13.5998 3.24365 13.2666 5.96021 13.0497C5.51629 13.611 5.07457 14.1879 4.68365 14.7783ZM2.18352 15.4759C2.79915 15.6115 3.42133 15.7145 4.04758 15.7845L3.9261 15.9858C3.38279 16.9227 2.84831 18.0296 2.66721 19.1588C2.08444 17.9455 1.71095 16.6402 1.5629 15.2993C1.76633 15.3699 1.97353 15.4289 2.18352 15.4759ZM7.11972 16.0506C8.96389 16.1624 11.0819 16.2228 13.2883 16.2228C14.3484 16.2228 15.3865 16.2094 16.3803 16.1826C16.1418 16.4017 15.8989 16.6179 15.6515 16.831C14.1607 18.0848 12.5534 19.1894 10.8522 20.1293C10.0361 20.5604 9.19533 20.942 8.33445 21.272C7.67839 19.6014 7.26909 17.8421 7.11972 16.0506ZM21.893 13.1682C23.8673 13.3784 25.0777 13.6624 25.0777 13.9732C25.0777 14.3467 23.3329 14.6799 20.6164 14.8968C21.0692 14.3355 21.4976 13.7586 21.893 13.1682ZM24.393 12.4706C23.7755 12.3338 23.1509 12.2308 22.5223 12.162L22.6438 11.9607C23.1871 11.0238 23.7216 9.9169 23.9027 8.78541C24.4855 9.99961 24.8588 11.3057 25.007 12.6472C24.8058 12.5768 24.6008 12.5179 24.393 12.4706ZM20.168 4.28407C19.559 4.28172 18.952 4.35686 18.3614 4.50768C17.9591 3.81202 17.4699 3.17168 16.906 2.60251C18.0733 2.98725 19.174 3.55464 20.168 4.28407ZM9.67064 2.60921C7.74917 4.51216 6.38647 7.89319 6.04635 11.9674C5.62893 12.001 5.22696 12.0345 4.84709 12.0725C3.95212 12.1508 3.06263 12.2837 2.18352 12.4706C1.97577 12.5179 1.77079 12.5768 1.56953 12.6472C1.82531 10.3631 2.72527 8.20189 4.16185 6.42184C5.59845 4.64176 7.51089 3.31817 9.67064 2.60921ZM6.39972 23.6624C7.00799 23.6636 7.61407 23.5884 8.20414 23.4388C8.60803 24.134 9.09787 24.7743 9.66181 25.344C8.49444 24.9592 7.39374 24.3919 6.39972 23.6624ZM16.906 25.3351C18.8275 23.4321 20.1902 20.0399 20.5281 15.9746C20.9477 15.9433 21.3497 15.9075 21.7295 15.8717C22.6246 15.7933 23.514 15.6604 24.393 15.4737C24.6008 15.4264 24.8058 15.3675 25.007 15.297C24.7512 17.5812 23.8514 19.7424 22.4148 21.5224C20.9782 23.3024 19.0657 24.626 16.906 25.3351Z" fill="#A9BAB7"></path>
</g>
<defs>
<clipPath id="clip0_143_228">
<rect width="180" height="26.1628" fill="white" transform="translate(0.394531 0.918701)"></rect>
</clipPath>
</defs>
</svg>