<svg version="1.1" id="Layer_1" xmlns="http://www.w3.org/2000/svg" xmlns:xlink="http://www.w3.org/1999/xlink" x="0px" y="0px" width="528.327" height="300.308" viewBox="0 0 528.327 300.308" enable-background="new 0 0 528.327 300.308" xml:space="preserve">
<g>
	<path fill="#5E123F" d="M205.201,105.908c-32.673,16.408-55.358,49.734-56.574,88.492   C181.302,177.993,203.986,144.666,205.201,105.908"></path>
	<path fill="#E42985" d="M205.201,105.908c0.034-1.087,0.083-2.171,0.083-3.267C205.284,45.955,159.329,0,102.643,0   C45.954,0,0,45.955,0,102.641c0,56.688,45.954,102.642,102.643,102.642c16.538,0,32.148-3.935,45.984-10.883   C149.843,155.642,172.528,122.316,205.201,105.908"></path>
	<path fill="#FFFFFF" d="M87.88,99.539c0,19.11-8.631,26.97-29.282,26.97H46.576c-3.391,0-4.624-1.232-4.624-5.857V79.503   c0-3.081,1.388-4.624,4.316-4.624h15.873C78.479,74.879,87.88,83.818,87.88,99.539 M52.587,111.559c0,4.315,2.62,6.473,7.859,6.473   c10.788,0,16.8-6.164,16.8-16.952c0-11.097-5.394-17.723-16.645-17.723c-6.01,0-8.014,1.849-8.014,7.705V111.559z"></path>
	<path fill="#FFFFFF" d="M110.997,127.126c-11.714,0-20.806-7.243-20.806-20.806c0-14.487,10.326-20.806,21.114-20.806   c9.863,0,21.268,5.394,21.268,20.651C132.573,118.033,125.483,127.126,110.997,127.126 M111.459,118.958   c5.856,0,10.173-5.394,10.173-12.792c0-6.935-3.7-12.329-10.173-12.329c-5.703,0-10.325,4.315-10.325,12.329   C101.134,113.563,105.294,118.958,111.459,118.958"></path>
	<path fill="#FFFFFF" d="M132.495,89.444c0-2.62,4.009-4.162,4.624-5.703c0.77-1.696,0.77-2.466,0.77-4.16   c0-1.696,0.462-5.549,6.011-5.549c5.395,0,5.856,3.545,5.856,5.702c0,1.541,0.309,3.082,1.079,4.316   c1.234,1.849,5.703,1.849,5.703,5.549c0,3.698-4.779,3.235-6.165,6.318c-0.77,1.695-0.617,2.619-0.617,5.239v8.94   c0,2.62,0.309,3.39,0.926,4.622c1.232,2.622,6.318,2.622,6.318,7.245c0,3.235-2.003,4.931-6.165,4.931   c-8.477,0-12.79-3.852-12.79-11.405v-13.87c0-3.083-0.309-5.394-1.541-6.934C135.27,93.142,132.495,92.063,132.495,89.444"></path>
	<path fill="#A91366" d="M422.359,43.982c-47.784,0-89.516,31.886-102.148,77.753c-18.23-16.584-42.438-26.711-69.023-26.711   c-16.538,0-32.149,3.936-45.986,10.885c-1.217,38.758-23.899,72.083-56.572,88.491c-0.036,1.087-0.083,2.171-0.083,3.268   c0,56.687,45.954,102.641,102.641,102.641c46.514,0,85.793-30.944,98.396-73.368c19.762,18.699,45.531,28.98,72.776,28.98   c58.431,0,105.968-47.537,105.968-105.969C528.327,91.52,480.79,43.982,422.359,43.982 M422.359,249.266   c-26.066,0-50.694-10.036-69.36-28.264c-0.482-0.533-0.986-1.044-1.496-1.551c1.518-7.022,2.325-14.308,2.325-21.784   c0-27.293-10.669-52.081-28.046-70.464c0.154-0.727,0.299-1.461,0.423-2.21c11.333-43.787,50.852-74.355,96.154-74.355   c54.762,0,99.313,44.551,99.313,99.313S477.121,249.266,422.359,249.266"></path>
	<path fill="#FFFFFF" d="M240.091,198.751c0,19.109-8.631,26.97-29.283,26.97h-12.021c-3.391,0-4.623-1.232-4.623-5.856v-41.149   c0-3.081,1.387-4.623,4.315-4.623h15.874C230.69,174.092,240.091,183.031,240.091,198.751 M204.798,210.771   c0,4.316,2.62,6.474,7.859,6.474c10.788,0,16.799-6.164,16.799-16.952c0-11.098-5.394-17.724-16.644-17.724   c-6.011,0-8.014,1.85-8.014,7.705V210.771z"></path>
	<path fill="#FFFFFF" d="M263.208,226.338c-11.713,0-20.806-7.243-20.806-20.806c0-14.487,10.325-20.807,21.115-20.807   c9.864,0,21.268,5.395,21.268,20.652C284.785,217.245,277.695,226.338,263.208,226.338 M263.67,218.169   c5.854,0,10.172-5.396,10.172-12.791c0-6.938-3.699-12.33-10.172-12.33c-5.702,0-10.324,4.314-10.324,12.33   C253.346,212.774,257.506,218.169,263.67,218.169"></path>
	<path fill="#FFFFFF" d="M284.707,188.656c0-2.62,4.008-4.161,4.623-5.701c0.771-1.695,0.771-2.467,0.771-4.16   c0-1.696,0.46-5.55,6.01-5.55c5.395,0,5.857,3.545,5.857,5.702c0,1.541,0.307,3.082,1.078,4.315   c1.234,1.849,5.701,1.849,5.701,5.548s-4.777,3.238-6.162,6.319c-0.771,1.694-0.617,2.62-0.617,5.239v8.94   c0,2.619,0.307,3.391,0.924,4.622c1.234,2.62,6.318,2.62,6.318,7.244c0,3.236-2.004,4.931-6.164,4.931   c-8.477,0-12.791-3.853-12.791-11.404v-13.869c0-3.083-0.311-5.396-1.541-6.938C287.482,192.355,284.707,191.276,284.707,188.656"></path>
	<path fill="#A91366" d="M368.158,135.9v19.794c0,4.409,0.979,4.703,9.505,4.703c2.646,0,4.115,0.49,4.115,3.43   c0,2.254-1.176,3.332-3.43,3.332h-15.385c-1.96,0-2.939-1.176-2.939-3.43V135.9c0-1.567,1.176-2.939,2.744-2.939h2.449   C366.981,132.961,368.158,134.136,368.158,135.9"></path>
	<path fill="#A91366" d="M397.214,167.65c-7.447,0-13.229-4.605-13.229-13.229c0-9.211,6.565-13.228,13.425-13.228   c6.271,0,13.522,3.43,13.522,13.13C410.933,161.868,406.426,167.65,397.214,167.65 M397.508,162.456   c3.724,0,6.468-3.43,6.468-8.133c0-4.409-2.352-7.839-6.468-7.839c-3.625,0-6.565,2.744-6.565,7.839   C390.942,159.026,393.588,162.456,397.508,162.456"></path>
	<path fill="#A91366" d="M432.641,167.013c-2.058,0-3.037-0.883-4.312-0.883c-2.253,0-3.821,1.568-7.153,1.568   c-5.487,0-8.427-3.136-8.427-7.447c0-4.41,3.527-7.741,11.465-8.819c3.233-0.393,4.214-1.666,4.214-2.744   c0-1.96-1.568-3.234-3.43-3.234c-3.725,0-3.43,3.234-7.547,3.234c-1.371,0-2.841-0.294-2.841-1.96c0-1.764,2.058-5.487,9.897-5.487   c6.858,0,10.975,1.568,10.975,8.623v14.698C435.482,166.523,434.307,167.013,432.641,167.013 M423.43,162.701   c2.548,0,5.096-2.352,5.096-4.899c0-1.273-0.686-2.352-2.449-2.352c-2.059,0-6.174,1.372-6.174,4.115   C419.902,161.231,421.273,162.701,423.43,162.701"></path>
	<path fill="#A91366" d="M460.962,149.179v15.287c0,1.861-1.372,2.743-3.038,2.743h-1.077c-1.568,0-2.744-0.882-2.744-2.743v-10.584   c0-4.507-1.47-6.761-4.214-6.761c-2.939,0-4.312,2.352-4.312,7.055v10.29c0,1.861-1.372,2.743-3.038,2.743h-1.077   c-1.666,0-2.744-0.979-2.744-3.037v-19.403c0-1.861,1.078-2.842,3.43-2.842c1.96,0,3.527,0.687,4.802,0.687   c2.352,0,3.038-1.275,6.565-1.275C458.022,141.339,460.962,143.495,460.962,149.179"></path>
	<path fill="#A91366" d="M472.136,148.101c0,1.959,1.764,2.547,6.271,3.429c5.685,1.078,8.036,3.822,8.036,7.35   c0,5.487-4.899,8.819-11.563,8.819c-6.761,0-10.877-3.136-10.877-4.899c0-1.568,1.568-2.744,2.939-2.744   c2.744,0,3.822,2.45,8.33,2.45c2.155,0,3.527-1.372,3.527-2.548c0-2.353-2.45-2.45-7.153-3.626   c-4.018-0.979-7.251-2.938-7.251-7.055c0-5.291,5.193-8.329,10.484-8.329c5.292,0,9.8,1.96,9.8,3.92   c0,1.372-1.666,2.743-3.038,2.743c-2.058,0-3.332-1.47-6.566-1.47C473.703,146.141,472.136,146.729,472.136,148.101"></path>
</g>
</svg>