<svg width="198" height="22" viewBox="0 0 137 15" version="1.1" xmlns="http://www.w3.org/2000/svg" xmlns:xlink="http://www.w3.org/1999/xlink" xml:space="preserve" xmlns:serif="http://www.serif.com/" style="fill-rule:evenodd;clip-rule:evenodd;stroke-linejoin:round;stroke-miterlimit:1.41421;"><g><path d="M60.893,14.702l-2.509,0l0,-4.689c0,-0.681 -0.239,-1.257 -0.715,-1.734c-0.478,-0.475 -1.056,-0.713 -1.738,-0.713c-0.918,0 -1.618,0.389 -2.101,1.169l0,5.967l-2.508,0l0,-4.689c0,-0.667 -0.243,-1.242 -0.728,-1.725c-0.485,-0.481 -1.064,-0.722 -1.735,-0.722c-0.685,0 -1.27,0.238 -1.755,0.713c-0.484,0.477 -0.727,1.053 -0.727,1.734l0,4.689l-2.509,0l0,-4.693c0,-1.385 0.483,-2.556 1.449,-3.515c0.967,-0.958 2.144,-1.438 3.532,-1.438c1.375,0 2.552,0.489 3.531,1.468c0.979,-0.979 2.156,-1.468 3.531,-1.468c1.388,0 2.566,0.479 3.532,1.438c0.966,0.958 1.45,2.13 1.45,3.515" style="fill:#0068b3;fill-rule:nonzero;"></path><path d="M71.375,10.01c0,1.385 -0.48,2.56 -1.44,3.525c-0.96,0.964 -2.134,1.446 -3.522,1.446c-1.401,0 -2.581,-0.479 -3.541,-1.438c-0.96,-0.958 -1.44,-2.136 -1.44,-3.534c0,-1.385 0.483,-2.557 1.451,-3.516c0.965,-0.958 2.142,-1.437 3.53,-1.437c1.388,0 2.563,0.479 3.523,1.437c0.959,0.96 1.439,2.131 1.439,3.517m-2.508,0c0,-0.667 -0.243,-1.241 -0.725,-1.722c-0.484,-0.482 -1.061,-0.723 -1.729,-0.723c-0.682,0 -1.264,0.238 -1.748,0.714c-0.483,0.474 -0.724,1.052 -0.724,1.731c0,0.679 0.241,1.258 0.724,1.74c0.484,0.482 1.066,0.722 1.748,0.722c0.682,0 1.261,-0.24 1.737,-0.722c0.477,-0.482 0.717,-1.061 0.717,-1.74Z" style="fill:#0068b3;fill-rule:nonzero;"></path><path d="M76.728,7.56c-0.68,0 -1.263,0.238 -1.746,0.714c-0.484,0.476 -0.726,1.054 -0.726,1.735l0,4.692l-2.509,0l0,-4.692c0,-1.385 0.484,-2.557 1.45,-3.516c0.967,-0.958 2.144,-1.437 3.531,-1.437" style="fill:#0068b3;fill-rule:nonzero;"></path><path d="M84.404,11.852c0,0.596 -0.199,1.136 -0.594,1.62c-0.794,0.969 -1.921,1.436 -3.383,1.398c-0.583,-0.013 -1.218,-0.143 -1.905,-0.391c-0.687,-0.247 -1.249,-0.557 -1.682,-0.929l1.394,-1.803c0.669,0.632 1.381,0.948 2.138,0.948l0.056,0c0.31,0 0.588,-0.056 0.835,-0.167c0.323,-0.149 0.484,-0.359 0.484,-0.633l0,-0.074c-0.037,-0.284 -0.23,-0.489 -0.576,-0.613c-0.137,-0.024 -0.428,-0.081 -0.874,-0.167c-0.557,-0.111 -1.028,-0.248 -1.413,-0.409c-1.127,-0.483 -1.691,-1.332 -1.691,-2.546c0,-1.165 0.576,-2.039 1.729,-2.622c0.508,-0.26 1.059,-0.396 1.654,-0.408c0.62,-0.012 1.264,0.093 1.934,0.316c0.767,0.26 1.313,0.601 1.635,1.022l-1.674,1.506c-0.433,-0.447 -0.904,-0.669 -1.412,-0.669c-0.793,0 -1.19,0.261 -1.19,0.782l0,0.037c0,0.249 0.322,0.46 0.967,0.634c0.049,0.012 0.458,0.094 1.226,0.242c1.561,0.299 2.342,1.255 2.342,2.869" style="fill:#0068b3;fill-rule:nonzero;"></path><path d="M94.534,10.002c0,0.248 -0.018,0.495 -0.056,0.741l-7.267,0c0.161,0.52 0.458,0.939 0.892,1.255c0.434,0.316 0.923,0.473 1.469,0.473c0.755,0 1.381,-0.29 1.877,-0.873l1.523,2.025c-0.954,0.906 -2.088,1.357 -3.4,1.357c-1.401,0 -2.581,-0.479 -3.542,-1.437c-0.96,-0.958 -1.44,-2.137 -1.44,-3.534c0,-1.386 0.484,-2.557 1.45,-3.516c0.967,-0.958 2.144,-1.438 3.532,-1.438c1.387,0 2.561,0.477 3.521,1.436c0.961,0.959 1.441,2.129 1.441,3.511m-2.807,-1.136c-0.458,-0.867 -1.177,-1.301 -2.155,-1.301c-0.992,0 -1.717,0.434 -2.175,1.301l4.33,0Z" style="fill:#0068b3;fill-rule:nonzero;"></path><path d="M102.266,11.852c0,0.596 -0.199,1.136 -0.595,1.62c-0.793,0.969 -1.921,1.436 -3.382,1.398c-0.583,-0.013 -1.218,-0.143 -1.905,-0.391c-0.688,-0.247 -1.249,-0.557 -1.683,-0.929l1.394,-1.803c0.669,0.632 1.382,0.948 2.138,0.948l0.057,0c0.309,0 0.588,-0.056 0.836,-0.167c0.321,-0.149 0.483,-0.359 0.483,-0.633l0,-0.074c-0.037,-0.284 -0.23,-0.489 -0.577,-0.613c-0.136,-0.024 -0.427,-0.081 -0.874,-0.167c-0.557,-0.111 -1.027,-0.248 -1.412,-0.409c-1.128,-0.483 -1.691,-1.332 -1.691,-2.546c0,-1.165 0.576,-2.039 1.728,-2.622c0.508,-0.26 1.06,-0.396 1.655,-0.408c0.619,-0.012 1.264,0.093 1.933,0.316c0.767,0.26 1.313,0.601 1.635,1.022l-1.673,1.506c-0.434,-0.447 -0.905,-0.669 -1.413,-0.669c-0.792,0 -1.189,0.261 -1.189,0.782l0,0.037c0,0.249 0.322,0.46 0.966,0.634c0.05,0.012 0.459,0.094 1.227,0.242c1.561,0.299 2.342,1.255 2.342,2.869" style="fill:#0068b3;fill-rule:nonzero;"></path><path d="M111.708,13.587c-0.967,0.93 -2.113,1.394 -3.438,1.394c-1.401,0 -2.581,-0.479 -3.542,-1.438c-0.96,-0.958 -1.441,-2.136 -1.441,-3.534c0,-1.385 0.484,-2.557 1.451,-3.516c0.966,-0.958 2.143,-1.437 3.532,-1.437c1.263,0 2.366,0.424 3.308,1.274l-1.506,2.015c-0.483,-0.52 -1.084,-0.781 -1.802,-0.781c-0.683,0 -1.265,0.238 -1.748,0.713c-0.484,0.476 -0.725,1.053 -0.725,1.732c0,0.679 0.241,1.258 0.725,1.74c0.483,0.482 1.065,0.722 1.748,0.722c0.742,0 1.356,-0.285 1.839,-0.856" style="fill:#f59a00;fill-rule:nonzero;"></path><rect x="112.488" y="0" width="2.509" height="14.702" style="fill:#f59a00;"></rect><path d="M125.777,10.019c0,1.4 -0.48,2.581 -1.44,3.541c-0.961,0.961 -2.14,1.44 -3.541,1.44c-1.388,0 -2.565,-0.483 -3.532,-1.45c-0.966,-0.967 -1.449,-2.143 -1.449,-3.531l0,-4.962l2.51,0l0,4.962c0,0.682 0.238,1.264 0.717,1.747c0.479,0.484 1.06,0.725 1.744,0.725c0.685,0 1.269,-0.241 1.754,-0.725c0.485,-0.483 0.727,-1.065 0.727,-1.747l0,-4.962l2.509,0" style="fill:#f59a00;fill-rule:nonzero;"></path><path d="M136.538,10.01c0,1.385 -0.479,2.56 -1.441,3.525c-0.959,0.964 -2.134,1.446 -3.521,1.446c-1.4,0 -2.58,-0.479 -3.541,-1.438c-0.96,-0.96 -1.439,-2.139 -1.439,-3.537l0,-10.005l2.508,0l0,5.687c0.757,-0.421 1.58,-0.631 2.472,-0.631c1.388,0 2.562,0.479 3.521,1.438c0.962,0.958 1.441,2.129 1.441,3.515m-2.509,0c0,-0.667 -0.241,-1.241 -0.725,-1.722c-0.483,-0.482 -1.059,-0.723 -1.729,-0.723c-0.68,0 -1.263,0.238 -1.746,0.714c-0.483,0.474 -0.725,1.052 -0.725,1.731c0,0.679 0.242,1.258 0.725,1.74c0.483,0.482 1.066,0.722 1.746,0.722c0.682,0 1.262,-0.24 1.739,-0.722c0.477,-0.482 0.715,-1.061 0.715,-1.74Z" style="fill:#f59a00;fill-rule:nonzero;"></path><path d="M9.896,10c0,2.731 -2.216,4.947 -4.948,4.947c-2.731,0.001 -4.948,-2.216 -4.948,-4.947c0,-2.732 2.217,-4.948 4.948,-4.948c2.731,0 4.948,2.216 4.948,4.948" style="fill:#0068b3;"></path><path d="M20.652,10c0,2.731 -2.217,4.947 -4.948,4.947c-2.731,0 -4.948,-2.216 -4.948,-4.947c0,-2.732 2.217,-4.948 4.948,-4.948c2.731,0 4.948,2.216 4.948,4.948" style="fill:#bed000;"></path><path d="M31.408,10c0,2.731 -2.216,4.947 -4.948,4.947c-2.732,0 -4.948,-2.216 -4.948,-4.947c0,-2.732 2.216,-4.948 4.948,-4.948c2.732,0 4.948,2.216 4.948,4.948" style="fill:#e6007e;"></path><path d="M42.164,10c0,2.731 -2.216,4.947 -4.948,4.947c-2.731,0 -4.948,-2.216 -4.948,-4.947c0,-2.732 2.217,-4.948 4.948,-4.948c2.732,0 4.948,2.216 4.948,4.948" style="fill:#f59a00;"></path></g></svg>