<svg width="227" height="80" viewBox="0 0 227 80" fill="none" xmlns="http://www.w3.org/2000/svg">
<path d="M12.4145 29.1607C11.4066 29.0894 10.3243 26.1839 9.27562 24.5233C8.22702 22.8626 7.33031 21.5759 6.15398 20.6708C4.72981 19.5749 2.87742 18.6684 1.04731 19.4188C-0.519942 20.0615 -0.102771 21.4027 2.48493 24.5951C5.07263 27.7875 7.53156 35.1573 9.39444 38.1219C11.2573 41.0866 12.3578 46.0363 19.251 46.9459C29.993 49.3452 35.5576 44.2735 37.45 35.6878C38.2023 32.275 38.7438 25.474 39.1854 17.3719C39.4497 12.5224 39.5801 8.63365 37.2748 8.35126C34.5628 8.01899 35.0235 12.6543 34.6474 16.6426C34.408 19.1825 33.9885 23.0074 33.6518 23.0421C32.9101 23.1187 33.0099 19.6904 33.2496 14.7016C33.4618 10.284 33.6827 6.59904 33.3806 5.2265C32.9709 3.36579 30.0564 3.13978 29.2257 4.67026C28.2282 6.50801 28.1713 11.1028 27.8832 13.8833C27.5631 16.9721 27.3254 21.5291 26.862 21.3616C26.3482 21.176 26.6094 17.007 26.7732 12.7394C26.9195 8.92789 27.219 4.30153 26.4799 1.7273C25.8231 -0.560289 22.5688 -0.423902 21.9376 1.66285C21.3064 3.7496 21.2968 8.21568 21.1039 12.6288C20.9764 15.5452 20.6352 21.1807 19.9421 21.2931C19.2491 21.4056 19.826 16.2608 19.778 12.9769C19.7239 9.28049 20.4081 6.70202 19.4741 4.02289C18.9096 2.40354 16.092 1.83964 15.0912 3.99572C14.3671 5.55562 14.6983 10.2453 14.469 13.9739C14.2049 18.2694 13.6005 23.2714 13.4003 25.787C13.2001 28.3026 13.1325 29.2116 12.4145 29.1607Z" fill="#2DB5D3"/>
<path d="M16.5664 43.9306C16.5664 43.9306 16.6768 50.1422 16.24 59.2113C15.9878 64.4486 15.0201 76.87 15.3015 77.3949C15.7011 78.1403 19.8539 78.6625 24.8074 78.6968C30.7844 78.7381 34.3808 77.496 34.4917 76.9138C34.8124 75.23 34.2657 69.014 33.8782 61.4588C33.5393 54.8485 33.7992 39.0116 32.6 39.8108L16.5664 43.9306Z" fill="#2DB5D3"/>
<path d="M17.8505 37.2813C17.2741 37.2426 16.6551 35.6717 16.0553 34.7739C15.4555 33.876 14.9426 33.1803 14.2699 32.6908C13.4554 32.0983 12.3961 31.6081 11.3496 32.0136C10.4534 32.3609 10.6921 33.0861 12.1721 34.8122C13.652 36.5383 15.0587 40.5229 16.1242 42.1258C17.1896 43.7287 18.8923 45.9856 21.7611 46.4905C26.3035 47.2898 31.0857 45.4534 32.1673 40.8118C32.5973 38.9667 32.9065 35.2899 33.1584 30.9096C33.3092 28.2878 33.3835 26.1855 32.0652 26.0326C30.5143 25.8528 30.7781 28.3588 30.5634 30.515C30.4266 31.8882 30.187 33.956 29.9945 33.9748C29.5704 34.0161 29.6272 32.1627 29.7639 29.4656C29.8849 27.0773 30.011 25.0851 29.8381 24.343C29.6037 23.337 27.9371 23.2146 27.4622 24.042C26.8919 25.0355 26.8596 27.5196 26.6951 29.0228C26.5123 30.6927 26.3766 33.1563 26.1116 33.0658C25.8178 32.9654 25.9669 30.7115 26.0603 28.4043C26.1436 26.3436 26.3146 23.8425 25.8918 22.4507C25.516 21.2139 23.6551 21.2874 23.2943 22.4155C22.9335 23.5437 22.9283 25.9582 22.8183 28.3441C22.7456 29.9208 22.5509 32.9675 22.1546 33.0283C21.7583 33.089 22.0878 30.3076 22.0602 28.5322C22.029 26.5338 22.42 25.1398 21.8857 23.6913C21.5628 22.8158 19.9515 22.5107 19.3794 23.6763C18.9654 24.5196 19.1552 27.055 19.0243 29.0708C18.8736 31.3931 18.5283 34.0974 18.414 35.4574C18.2997 36.8174 18.2611 37.3088 17.8505 37.2813Z" fill="#FFF9F5"/>
<path d="M20.0203 44.8172C20.0203 44.8172 20.2798 53.1514 20.0225 61.6751C19.874 66.5976 19.3103 78.2724 19.4708 78.7654C19.6987 79.4657 22.073 79.953 24.9055 79.9811C28.3234 80.015 30.381 78.8446 30.4449 78.2974C30.6297 76.7147 30.3222 70.8732 30.1069 63.7728C29.9186 57.5605 30.0803 42.6762 29.3939 43.4283L20.0203 44.8172Z" fill="#FFF9F5"/>
<path d="M67.4684 20.2C67.4204 21.288 67.1964 22.328 66.7964 23.32C66.4124 24.296 65.8444 25.168 65.0924 25.936C64.3564 26.704 63.4284 27.304 62.3084 27.736C61.2044 28.168 59.9164 28.384 58.4444 28.384C57.0364 28.384 55.7164 28.184 54.4844 27.784C53.2524 27.368 52.1644 26.76 51.2204 25.96C50.2924 25.16 49.5644 24.176 49.0364 23.008C48.5244 21.84 48.2684 20.504 48.2684 19C48.2684 17.496 48.5324 16.16 49.0604 14.992C49.5884 13.824 50.3244 12.84 51.2684 12.04C52.2284 11.24 53.3324 10.64 54.5804 10.24C55.8444 9.824 57.2204 9.616 58.7084 9.616C60.6924 9.616 62.4044 9.92 63.8444 10.528C65.2844 11.136 66.4444 11.968 67.3244 13.024C68.2044 14.08 68.7724 15.304 69.0284 16.696H64.0124C63.8524 16.088 63.5244 15.568 63.0284 15.136C62.5484 14.688 61.9404 14.352 61.2044 14.128C60.4844 13.888 59.6604 13.768 58.7324 13.768C57.6124 13.768 56.6444 13.968 55.8284 14.368C55.0124 14.752 54.3804 15.336 53.9324 16.12C53.4844 16.888 53.2604 17.848 53.2604 19C53.2604 20.168 53.5004 21.152 53.9804 21.952C54.4604 22.752 55.1404 23.352 56.0204 23.752C56.9164 24.152 57.9644 24.352 59.1644 24.352C60.3324 24.352 61.3644 24.192 62.2604 23.872C63.1564 23.536 63.8684 23.048 64.3964 22.408C64.9404 21.768 65.2524 21 65.3324 20.104L67.4684 20.2ZM59.6444 22.192V18.688H69.1964V28H65.6684L64.9724 20.872L65.9084 22.192H59.6444ZM71.5933 14.08L74.0653 14.56L76.5133 14.08V28H71.5933V14.08ZM74.0413 12.952C73.1933 12.952 72.5053 12.744 71.9773 12.328C71.4493 11.896 71.1853 11.312 71.1853 10.576C71.1853 9.856 71.4493 9.28 71.9773 8.848C72.5053 8.416 73.1933 8.2 74.0413 8.2C74.9213 8.2 75.6173 8.416 76.1293 8.848C76.6573 9.28 76.9213 9.856 76.9213 10.576C76.9213 11.312 76.6573 11.896 76.1293 12.328C75.6173 12.744 74.9213 12.952 74.0413 12.952ZM87.7544 25.672L86.0744 25.648L90.8264 14.296H96.0584L89.6504 28H84.0584L77.6504 14.296H83.0744L87.7544 25.672ZM104.395 28.384C102.731 28.384 101.243 28.08 99.9314 27.472C98.6354 26.864 97.6114 26.016 96.8594 24.928C96.1074 23.824 95.7314 22.544 95.7314 21.088C95.7314 19.664 96.0914 18.416 96.8114 17.344C97.5314 16.256 98.5154 15.408 99.7634 14.8C101.027 14.192 102.451 13.888 104.035 13.888C105.683 13.888 107.083 14.248 108.235 14.968C109.403 15.672 110.299 16.672 110.923 17.968C111.563 19.264 111.883 20.792 111.883 22.552H99.6914V19.6H109.123L107.515 20.632C107.451 19.928 107.275 19.336 106.987 18.856C106.699 18.36 106.315 17.984 105.835 17.728C105.371 17.472 104.811 17.344 104.155 17.344C103.435 17.344 102.819 17.488 102.307 17.776C101.795 18.064 101.395 18.464 101.107 18.976C100.819 19.472 100.675 20.056 100.675 20.728C100.675 21.592 100.867 22.328 101.251 22.936C101.651 23.528 102.227 23.984 102.979 24.304C103.747 24.624 104.683 24.784 105.787 24.784C106.795 24.784 107.795 24.656 108.787 24.4C109.795 24.128 110.707 23.752 111.523 23.272V26.392C110.579 27.032 109.499 27.528 108.283 27.88C107.083 28.216 105.787 28.384 104.395 28.384ZM136.134 15.112H131.262C131.182 14.52 130.918 14.032 130.47 13.648C130.038 13.248 129.414 13.048 128.598 13.048C128.118 13.048 127.702 13.112 127.35 13.24C127.014 13.368 126.758 13.552 126.582 13.792C126.406 14.032 126.318 14.304 126.318 14.608C126.318 14.864 126.39 15.12 126.534 15.376C126.694 15.632 126.95 15.904 127.302 16.192L141.006 28H134.886L123.558 18.304C122.87 17.712 122.286 17.088 121.806 16.432C121.342 15.76 121.11 15.04 121.11 14.272C121.11 13.344 121.39 12.536 121.95 11.848C122.51 11.144 123.334 10.6 124.422 10.216C125.51 9.816 126.838 9.616 128.406 9.616C130.006 9.616 131.366 9.856 132.486 10.336C133.622 10.816 134.494 11.472 135.102 12.304C135.726 13.136 136.07 14.072 136.134 15.112ZM134.862 18.064H139.95L134.214 24.544C133.414 25.456 132.614 26.2 131.814 26.776C131.014 27.336 130.15 27.744 129.222 28C128.294 28.256 127.238 28.384 126.054 28.384C124.55 28.384 123.254 28.152 122.166 27.688C121.094 27.208 120.27 26.568 119.694 25.768C119.118 24.968 118.83 24.056 118.83 23.032C118.83 22.136 119.07 21.32 119.55 20.584C120.03 19.848 120.782 19.232 121.806 18.736C122.83 18.24 124.166 17.912 125.814 17.752L126.822 19.672C125.83 19.88 125.062 20.224 124.518 20.704C123.974 21.168 123.702 21.728 123.702 22.384C123.702 22.816 123.83 23.216 124.086 23.584C124.358 23.936 124.718 24.216 125.166 24.424C125.63 24.632 126.174 24.736 126.798 24.736C127.918 24.736 128.846 24.52 129.582 24.088C130.334 23.656 130.974 23.104 131.502 22.432L134.862 18.064ZM165.304 20.2C165.256 21.288 165.032 22.328 164.632 23.32C164.248 24.296 163.68 25.168 162.928 25.936C162.192 26.704 161.264 27.304 160.144 27.736C159.04 28.168 157.752 28.384 156.28 28.384C154.872 28.384 153.552 28.184 152.32 27.784C151.088 27.368 150 26.76 149.056 25.96C148.128 25.16 147.4 24.176 146.872 23.008C146.36 21.84 146.104 20.504 146.104 19C146.104 17.496 146.368 16.16 146.896 14.992C147.424 13.824 148.16 12.84 149.104 12.04C150.064 11.24 151.168 10.64 152.416 10.24C153.68 9.824 155.056 9.616 156.544 9.616C158.528 9.616 160.24 9.92 161.68 10.528C163.12 11.136 164.28 11.968 165.16 13.024C166.04 14.08 166.608 15.304 166.864 16.696H161.848C161.688 16.088 161.36 15.568 160.864 15.136C160.384 14.688 159.776 14.352 159.04 14.128C158.32 13.888 157.496 13.768 156.568 13.768C155.448 13.768 154.48 13.968 153.664 14.368C152.848 14.752 152.216 15.336 151.768 16.12C151.32 16.888 151.096 17.848 151.096 19C151.096 20.168 151.336 21.152 151.816 21.952C152.296 22.752 152.976 23.352 153.856 23.752C154.752 24.152 155.8 24.352 157 24.352C158.168 24.352 159.2 24.192 160.096 23.872C160.992 23.536 161.704 23.048 162.232 22.408C162.776 21.768 163.088 21 163.168 20.104L165.304 20.2ZM157.48 22.192V18.688H167.032V28H163.504L162.808 20.872L163.744 22.192H157.48ZM168.687 14.296H173.679L174.495 19.192V28H169.599V18.904L168.687 14.296ZM180.927 14.08V18.256C180.447 18.16 179.991 18.096 179.559 18.064C179.143 18.016 178.759 17.992 178.407 17.992C177.703 17.992 177.055 18.136 176.463 18.424C175.871 18.696 175.391 19.152 175.023 19.792C174.671 20.432 174.495 21.288 174.495 22.36L173.559 21.208C173.687 20.216 173.879 19.288 174.135 18.424C174.391 17.544 174.735 16.768 175.167 16.096C175.615 15.408 176.167 14.872 176.823 14.488C177.479 14.088 178.279 13.888 179.223 13.888C179.495 13.888 179.775 13.904 180.063 13.936C180.351 13.968 180.639 14.016 180.927 14.08ZM190.146 28.384C188.386 28.384 186.85 28.088 185.538 27.496C184.226 26.888 183.202 26.04 182.466 24.952C181.73 23.848 181.362 22.584 181.362 21.16C181.362 19.704 181.73 18.432 182.466 17.344C183.202 16.256 184.226 15.408 185.538 14.8C186.85 14.192 188.386 13.888 190.146 13.888C191.89 13.888 193.418 14.192 194.73 14.8C196.058 15.408 197.09 16.256 197.826 17.344C198.562 18.432 198.93 19.704 198.93 21.16C198.93 22.584 198.562 23.848 197.826 24.952C197.09 26.04 196.058 26.888 194.73 27.496C193.418 28.088 191.89 28.384 190.146 28.384ZM190.146 24.76C190.946 24.76 191.626 24.616 192.186 24.328C192.762 24.04 193.202 23.624 193.506 23.08C193.81 22.536 193.962 21.896 193.962 21.16C193.962 20.392 193.81 19.744 193.506 19.216C193.202 18.672 192.762 18.256 192.186 17.968C191.626 17.68 190.946 17.536 190.146 17.536C189.346 17.536 188.658 17.68 188.082 17.968C187.506 18.256 187.066 18.672 186.762 19.216C186.458 19.744 186.306 20.384 186.306 21.136C186.306 21.888 186.458 22.536 186.762 23.08C187.066 23.624 187.506 24.04 188.082 24.328C188.658 24.616 189.346 24.76 190.146 24.76ZM218.911 25.24H217.375L221.263 14.296H226.159L221.023 28H216.031L211.735 16.624H213.367L209.023 28H204.031L198.895 14.296H203.839L207.703 25.24H206.167L210.223 14.296H214.903L218.911 25.24Z" fill="#FFF9F5"/>
<path d="M51.4444 46.084C50.6698 46.084 50.0258 45.9253 49.5124 45.608C49.0084 45.2813 48.6304 44.8333 48.3784 44.264C48.1358 43.6947 48.0144 43.0507 48.0144 42.332C48.0144 41.632 48.1404 40.9973 48.3924 40.428C48.6538 39.8493 49.0458 39.392 49.5684 39.056C50.1004 38.7107 50.7724 38.538 51.5844 38.538C52.0884 38.538 52.5364 38.622 52.9284 38.79C53.3298 38.958 53.6611 39.2053 53.9224 39.532C54.1838 39.8493 54.3658 40.2507 54.4684 40.736H53.2504C53.1104 40.3253 52.8864 40.036 52.5784 39.868C52.2798 39.6907 51.9251 39.602 51.5144 39.602C50.9544 39.602 50.5064 39.7327 50.1704 39.994C49.8344 40.2553 49.5871 40.596 49.4284 41.016C49.2791 41.4267 49.2044 41.8653 49.2044 42.332C49.2044 42.8173 49.2838 43.2653 49.4424 43.676C49.6011 44.0867 49.8484 44.418 50.1844 44.67C50.5204 44.9127 50.9544 45.034 51.4864 45.034C51.8784 45.034 52.2471 44.95 52.5924 44.782C52.9471 44.614 53.1804 44.3153 53.2924 43.886H54.5244C54.4311 44.39 54.2304 44.8053 53.9224 45.132C53.6238 45.4587 53.2551 45.7013 52.8164 45.86C52.3871 46.0093 51.9298 46.084 51.4444 46.084ZM59.1127 46.084C58.3381 46.084 57.6894 45.9253 57.1667 45.608C56.6441 45.2813 56.2521 44.8333 55.9907 44.264C55.7387 43.6947 55.6127 43.046 55.6127 42.318C55.6127 41.5807 55.7434 40.932 56.0047 40.372C56.2661 39.8027 56.6581 39.3547 57.1807 39.028C57.7034 38.7013 58.3567 38.538 59.1407 38.538C59.9154 38.538 60.5594 38.7013 61.0727 39.028C61.5954 39.3547 61.9827 39.8027 62.2347 40.372C62.4961 40.932 62.6267 41.5807 62.6267 42.318C62.6267 43.046 62.4961 43.6947 62.2347 44.264C61.9734 44.8333 61.5814 45.2813 61.0587 45.608C60.5454 45.9253 59.8967 46.084 59.1127 46.084ZM59.1127 45.034C59.6541 45.034 60.0927 44.9127 60.4287 44.67C60.7741 44.4273 61.0261 44.1007 61.1847 43.69C61.3527 43.2793 61.4367 42.822 61.4367 42.318C61.4367 41.814 61.3527 41.3567 61.1847 40.946C61.0261 40.5353 60.7741 40.2087 60.4287 39.966C60.0927 39.7233 59.6541 39.602 59.1127 39.602C58.5807 39.602 58.1421 39.7233 57.7967 39.966C57.4607 40.2087 57.2087 40.5353 57.0407 40.946C56.8821 41.3567 56.8027 41.814 56.8027 42.318C56.8027 42.822 56.8821 43.2793 57.0407 43.69C57.2087 44.1007 57.4607 44.4273 57.7967 44.67C58.1421 44.9127 58.5807 45.034 59.1127 45.034ZM64.0789 46V38.622H65.2269L65.2829 39.504C65.4416 39.28 65.6189 39.098 65.8149 38.958C66.0202 38.818 66.2442 38.7153 66.4869 38.65C66.7389 38.5753 67.0049 38.538 67.2849 38.538C67.7982 38.538 68.2136 38.65 68.5309 38.874C68.8482 39.0887 69.0862 39.3733 69.2449 39.728C69.4129 39.476 69.6042 39.2613 69.8189 39.084C70.0429 38.9067 70.2902 38.7713 70.5609 38.678C70.8409 38.5847 71.1489 38.538 71.4849 38.538C72.0262 38.538 72.4602 38.6547 72.7869 38.888C73.1229 39.1213 73.3656 39.4387 73.5149 39.84C73.6642 40.232 73.7389 40.6753 73.7389 41.17V46H72.5489V41.772C72.5489 41.5293 72.5349 41.282 72.5069 41.03C72.4882 40.778 72.4322 40.5447 72.3389 40.33C72.2456 40.106 72.1056 39.9287 71.9189 39.798C71.7416 39.658 71.4896 39.588 71.1629 39.588C70.8549 39.588 70.5936 39.6627 70.3789 39.812C70.1736 39.952 70.0056 40.1433 69.8749 40.386C69.7442 40.6287 69.6509 40.89 69.5949 41.17C69.5389 41.4407 69.5109 41.7113 69.5109 41.982V46H68.3209V41.758C68.3209 41.5247 68.3069 41.282 68.2789 41.03C68.2602 40.778 68.2089 40.5447 68.1249 40.33C68.0502 40.106 67.9196 39.9287 67.7329 39.798C67.5556 39.658 67.3082 39.588 66.9909 39.588C66.5429 39.588 66.1929 39.7187 65.9409 39.98C65.6889 40.232 65.5116 40.5447 65.4089 40.918C65.3156 41.282 65.2689 41.6413 65.2689 41.996V46H64.0789ZM75.4096 46V38.622H76.5576L76.6136 39.504C76.7723 39.28 76.9496 39.098 77.1456 38.958C77.3509 38.818 77.5749 38.7153 77.8176 38.65C78.0696 38.5753 78.3356 38.538 78.6156 38.538C79.1289 38.538 79.5443 38.65 79.8616 38.874C80.1789 39.0887 80.4169 39.3733 80.5756 39.728C80.7436 39.476 80.9349 39.2613 81.1496 39.084C81.3736 38.9067 81.6209 38.7713 81.8916 38.678C82.1716 38.5847 82.4796 38.538 82.8156 38.538C83.3569 38.538 83.7909 38.6547 84.1176 38.888C84.4536 39.1213 84.6963 39.4387 84.8456 39.84C84.9949 40.232 85.0696 40.6753 85.0696 41.17V46H83.8796V41.772C83.8796 41.5293 83.8656 41.282 83.8376 41.03C83.8189 40.778 83.7629 40.5447 83.6696 40.33C83.5763 40.106 83.4363 39.9287 83.2496 39.798C83.0723 39.658 82.8203 39.588 82.4936 39.588C82.1856 39.588 81.9243 39.6627 81.7096 39.812C81.5043 39.952 81.3363 40.1433 81.2056 40.386C81.0749 40.6287 80.9816 40.89 80.9256 41.17C80.8696 41.4407 80.8416 41.7113 80.8416 41.982V46H79.6516V41.758C79.6516 41.5247 79.6376 41.282 79.6096 41.03C79.5909 40.778 79.5396 40.5447 79.4556 40.33C79.3809 40.106 79.2503 39.9287 79.0636 39.798C78.8863 39.658 78.6389 39.588 78.3216 39.588C77.8736 39.588 77.5236 39.7187 77.2716 39.98C77.0196 40.232 76.8423 40.5447 76.7396 40.918C76.6463 41.282 76.5996 41.6413 76.5996 41.996V46H75.4096ZM89.8203 46.084C88.803 46.084 88.0283 45.8133 87.4963 45.272C86.9736 44.7307 86.7123 43.9 86.7123 42.78V38.622H87.9023V42.724C87.9023 43.2093 87.9723 43.6247 88.1123 43.97C88.2523 44.3153 88.4623 44.5813 88.7423 44.768C89.0316 44.9453 89.391 45.034 89.8203 45.034C90.2683 45.034 90.637 44.9453 90.9263 44.768C91.2156 44.5813 91.4256 44.3153 91.5563 43.97C91.6963 43.6247 91.7663 43.2093 91.7663 42.724V38.622H92.9563V42.78C92.9563 43.9 92.6856 44.7307 92.1443 45.272C91.6123 45.8133 90.8376 46.084 89.8203 46.084ZM94.6667 46V38.622H95.8147L95.8707 39.742C96.0387 39.4713 96.2534 39.2473 96.5147 39.07C96.776 38.8927 97.0607 38.762 97.3687 38.678C97.686 38.5847 97.994 38.538 98.2927 38.538C99.0114 38.538 99.5714 38.6873 99.9727 38.986C100.383 39.2847 100.673 39.6907 100.841 40.204C101.018 40.708 101.107 41.282 101.107 41.926V46H99.9167V42.248C99.9167 41.9027 99.8934 41.5713 99.8467 41.254C99.8094 40.9367 99.7254 40.652 99.5947 40.4C99.4734 40.148 99.296 39.952 99.0627 39.812C98.8294 39.6627 98.5167 39.588 98.1247 39.588C97.6394 39.588 97.224 39.7233 96.8787 39.994C96.5427 40.2647 96.286 40.6287 96.1087 41.086C95.9407 41.5433 95.8567 42.0567 95.8567 42.626V46H94.6667ZM102.798 46V38.622H103.988V46H102.798ZM103.386 37.53C103.144 37.53 102.948 37.4553 102.798 37.306C102.658 37.1567 102.588 36.9653 102.588 36.732C102.588 36.4987 102.663 36.312 102.812 36.172C102.962 36.0227 103.153 35.948 103.386 35.948C103.601 35.948 103.788 36.0227 103.946 36.172C104.114 36.3213 104.198 36.508 104.198 36.732C104.198 36.9653 104.119 37.1567 103.96 37.306C103.802 37.4553 103.61 37.53 103.386 37.53ZM108.717 46C108.157 46 107.704 45.916 107.359 45.748C107.023 45.58 106.775 45.3187 106.617 44.964C106.467 44.6093 106.393 44.1613 106.393 43.62V39.672H105.189V38.622H106.393V36.424H107.583V38.622H109.557V39.672H107.583V43.494C107.583 43.998 107.671 44.3713 107.849 44.614C108.035 44.8473 108.409 44.964 108.969 44.964H109.515V46H108.717ZM114.01 49.304C113.441 49.304 112.89 49.2247 112.358 49.066C111.836 48.9073 111.364 48.632 110.944 48.24L111.462 47.302C111.826 47.5913 112.214 47.82 112.624 47.988C113.044 48.156 113.483 48.24 113.94 48.24C114.706 48.24 115.252 48.016 115.578 47.568C115.914 47.1293 116.082 46.5693 116.082 45.888V45.006C115.914 45.258 115.7 45.468 115.438 45.636C115.186 45.7947 114.906 45.916 114.598 46C114.29 46.0747 113.973 46.112 113.646 46.112C112.918 46.112 112.344 45.9673 111.924 45.678C111.504 45.3887 111.206 44.9873 111.028 44.474C110.851 43.9607 110.762 43.368 110.762 42.696V38.622H111.952V42.36C111.952 42.696 111.971 43.0273 112.008 43.354C112.055 43.6713 112.144 43.9607 112.274 44.222C112.405 44.474 112.596 44.6793 112.848 44.838C113.1 44.9873 113.436 45.062 113.856 45.062C114.388 45.062 114.813 44.9313 115.13 44.67C115.457 44.4087 115.69 44.0587 115.83 43.62C115.98 43.1813 116.054 42.696 116.054 42.164V38.622H117.244V46C117.244 46.532 117.174 47.0033 117.034 47.414C116.894 47.8247 116.684 48.17 116.404 48.45C116.124 48.73 115.784 48.94 115.382 49.08C114.99 49.2293 114.533 49.304 114.01 49.304ZM119.074 42.598V41.506H123.414V42.598H119.074ZM125.248 48.66V38.622H126.382L126.438 39.728C126.69 39.3453 127.031 39.0513 127.46 38.846C127.899 38.6407 128.37 38.538 128.874 38.538C129.621 38.538 130.232 38.706 130.708 39.042C131.184 39.3687 131.534 39.8167 131.758 40.386C131.991 40.9553 132.108 41.5993 132.108 42.318C132.108 43.0367 131.991 43.6807 131.758 44.25C131.525 44.8193 131.165 45.2673 130.68 45.594C130.195 45.9207 129.574 46.084 128.818 46.084C128.445 46.084 128.109 46.0467 127.81 45.972C127.511 45.888 127.25 45.7713 127.026 45.622C126.802 45.4633 126.606 45.2813 126.438 45.076V48.66H125.248ZM128.72 45.034C129.261 45.034 129.691 44.9127 130.008 44.67C130.325 44.418 130.554 44.0867 130.694 43.676C130.843 43.2653 130.918 42.8127 130.918 42.318C130.918 41.814 130.843 41.3567 130.694 40.946C130.554 40.5353 130.321 40.2087 129.994 39.966C129.667 39.7233 129.233 39.602 128.692 39.602C128.207 39.602 127.791 39.728 127.446 39.98C127.11 40.2227 126.853 40.554 126.676 40.974C126.499 41.3847 126.41 41.8373 126.41 42.332C126.41 42.8453 126.494 43.3073 126.662 43.718C126.83 44.1287 127.087 44.4507 127.432 44.684C127.777 44.9173 128.207 45.034 128.72 45.034ZM136.777 46.084C136.003 46.084 135.354 45.9253 134.831 45.608C134.309 45.2813 133.917 44.8333 133.655 44.264C133.403 43.6947 133.277 43.046 133.277 42.318C133.277 41.5807 133.408 40.932 133.669 40.372C133.931 39.8027 134.323 39.3547 134.845 39.028C135.368 38.7013 136.021 38.538 136.805 38.538C137.58 38.538 138.224 38.7013 138.737 39.028C139.26 39.3547 139.647 39.8027 139.899 40.372C140.161 40.932 140.291 41.5807 140.291 42.318C140.291 43.046 140.161 43.6947 139.899 44.264C139.638 44.8333 139.246 45.2813 138.723 45.608C138.21 45.9253 137.561 46.084 136.777 46.084ZM136.777 45.034C137.319 45.034 137.757 44.9127 138.093 44.67C138.439 44.4273 138.691 44.1007 138.849 43.69C139.017 43.2793 139.101 42.822 139.101 42.318C139.101 41.814 139.017 41.3567 138.849 40.946C138.691 40.5353 138.439 40.2087 138.093 39.966C137.757 39.7233 137.319 39.602 136.777 39.602C136.245 39.602 135.807 39.7233 135.461 39.966C135.125 40.2087 134.873 40.5353 134.705 40.946C134.547 41.3567 134.467 41.814 134.467 42.318C134.467 42.822 134.547 43.2793 134.705 43.69C134.873 44.1007 135.125 44.4273 135.461 44.67C135.807 44.9127 136.245 45.034 136.777 45.034ZM143.269 46L140.973 38.622H142.317L144.081 44.852L145.901 38.622H147.511L149.345 44.852L151.081 38.622H152.439L150.143 46H148.519L146.699 40.022L144.879 46H143.269ZM156.594 46.084C155.81 46.084 155.162 45.9253 154.648 45.608C154.135 45.2813 153.752 44.8333 153.5 44.264C153.248 43.6947 153.122 43.046 153.122 42.318C153.122 41.5807 153.253 40.932 153.514 40.372C153.785 39.8027 154.177 39.3547 154.69 39.028C155.204 38.7013 155.834 38.538 156.58 38.538C157.159 38.538 157.654 38.65 158.064 38.874C158.484 39.0887 158.83 39.378 159.1 39.742C159.371 40.106 159.567 40.5073 159.688 40.946C159.81 41.3753 159.861 41.8093 159.842 42.248C159.833 42.332 159.824 42.416 159.814 42.5C159.814 42.584 159.81 42.668 159.8 42.752H154.326C154.364 43.1813 154.471 43.5687 154.648 43.914C154.826 44.2593 155.078 44.5347 155.404 44.74C155.731 44.936 156.137 45.034 156.622 45.034C156.865 45.034 157.108 45.006 157.35 44.95C157.602 44.8847 157.826 44.7773 158.022 44.628C158.228 44.4787 158.372 44.278 158.456 44.026H159.674C159.562 44.502 159.352 44.894 159.044 45.202C158.736 45.5007 158.368 45.7247 157.938 45.874C157.509 46.014 157.061 46.084 156.594 46.084ZM154.354 41.716H158.624C158.615 41.296 158.522 40.9273 158.344 40.61C158.167 40.2927 157.924 40.0453 157.616 39.868C157.318 39.6907 156.958 39.602 156.538 39.602C156.081 39.602 155.694 39.7 155.376 39.896C155.068 40.092 154.83 40.3487 154.662 40.666C154.494 40.9833 154.392 41.3333 154.354 41.716ZM161.288 46V38.622H162.436L162.492 39.77C162.678 39.4807 162.893 39.2473 163.136 39.07C163.388 38.8927 163.663 38.762 163.962 38.678C164.27 38.5847 164.601 38.538 164.956 38.538C165.021 38.538 165.082 38.538 165.138 38.538C165.203 38.538 165.268 38.538 165.334 38.538V39.658H164.9C164.321 39.658 163.85 39.784 163.486 40.036C163.131 40.2787 162.874 40.61 162.716 41.03C162.557 41.4407 162.478 41.898 162.478 42.402V46H161.288ZM169.426 46.084C168.642 46.084 167.993 45.9253 167.48 45.608C166.966 45.2813 166.584 44.8333 166.332 44.264C166.08 43.6947 165.954 43.046 165.954 42.318C165.954 41.5807 166.084 40.932 166.346 40.372C166.616 39.8027 167.008 39.3547 167.522 39.028C168.035 38.7013 168.665 38.538 169.412 38.538C169.99 38.538 170.485 38.65 170.896 38.874C171.316 39.0887 171.661 39.378 171.932 39.742C172.202 40.106 172.398 40.5073 172.52 40.946C172.641 41.3753 172.692 41.8093 172.674 42.248C172.664 42.332 172.655 42.416 172.646 42.5C172.646 42.584 172.641 42.668 172.632 42.752H167.158C167.195 43.1813 167.302 43.5687 167.48 43.914C167.657 44.2593 167.909 44.5347 168.236 44.74C168.562 44.936 168.968 45.034 169.454 45.034C169.696 45.034 169.939 45.006 170.182 44.95C170.434 44.8847 170.658 44.7773 170.854 44.628C171.059 44.4787 171.204 44.278 171.288 44.026H172.506C172.394 44.502 172.184 44.894 171.876 45.202C171.568 45.5007 171.199 45.7247 170.77 45.874C170.34 46.014 169.892 46.084 169.426 46.084ZM167.186 41.716H171.456C171.446 41.296 171.353 40.9273 171.176 40.61C170.998 40.2927 170.756 40.0453 170.448 39.868C170.149 39.6907 169.79 39.602 169.37 39.602C168.912 39.602 168.525 39.7 168.208 39.896C167.9 40.092 167.662 40.3487 167.494 40.666C167.326 40.9833 167.223 41.3333 167.186 41.716ZM177.073 46.084C176.336 46.084 175.729 45.9207 175.253 45.594C174.777 45.258 174.422 44.81 174.189 44.25C173.956 43.6807 173.839 43.0413 173.839 42.332C173.839 41.6227 173.956 40.9833 174.189 40.414C174.422 39.8353 174.782 39.378 175.267 39.042C175.752 38.706 176.373 38.538 177.129 38.538C177.418 38.538 177.708 38.5753 177.997 38.65C178.296 38.7153 178.576 38.8227 178.837 38.972C179.098 39.112 179.322 39.3033 179.509 39.546V36.102H180.699V46H179.565L179.509 44.894C179.341 45.174 179.126 45.4027 178.865 45.58C178.613 45.748 178.333 45.874 178.025 45.958C177.717 46.042 177.4 46.084 177.073 46.084ZM177.241 45.034C177.736 45.034 178.151 44.908 178.487 44.656C178.823 44.404 179.08 44.068 179.257 43.648C179.434 43.228 179.523 42.7707 179.523 42.276C179.523 41.7627 179.434 41.3053 179.257 40.904C179.089 40.5027 178.837 40.1853 178.501 39.952C178.165 39.7187 177.74 39.602 177.227 39.602C176.695 39.602 176.266 39.7233 175.939 39.966C175.622 40.2087 175.388 40.54 175.239 40.96C175.099 41.3707 175.029 41.8327 175.029 42.346C175.029 42.7193 175.066 43.0693 175.141 43.396C175.225 43.7133 175.351 43.998 175.519 44.25C175.696 44.4927 175.925 44.684 176.205 44.824C176.485 44.964 176.83 45.034 177.241 45.034ZM51.4864 67.084C50.7024 67.084 50.0538 66.9253 49.5404 66.608C49.0271 66.2813 48.6444 65.8333 48.3924 65.264C48.1404 64.6947 48.0144 64.046 48.0144 63.318C48.0144 62.5807 48.1451 61.932 48.4064 61.372C48.6771 60.8027 49.0691 60.3547 49.5824 60.028C50.0958 59.7013 50.7258 59.538 51.4724 59.538C52.0511 59.538 52.5458 59.65 52.9564 59.874C53.3764 60.0887 53.7218 60.378 53.9924 60.742C54.2631 61.106 54.4591 61.5073 54.5804 61.946C54.7018 62.3753 54.7531 62.8093 54.7344 63.248C54.7251 63.332 54.7158 63.416 54.7064 63.5C54.7064 63.584 54.7018 63.668 54.6924 63.752H49.2184C49.2558 64.1813 49.3631 64.5687 49.5404 64.914C49.7178 65.2593 49.9698 65.5347 50.2964 65.74C50.6231 65.936 51.0291 66.034 51.5144 66.034C51.7571 66.034 51.9998 66.006 52.2424 65.95C52.4944 65.8847 52.7184 65.7773 52.9144 65.628C53.1198 65.4787 53.2644 65.278 53.3484 65.026H54.5664C54.4544 65.502 54.2444 65.894 53.9364 66.202C53.6284 66.5007 53.2598 66.7247 52.8304 66.874C52.4011 67.014 51.9531 67.084 51.4864 67.084ZM49.2464 62.716H53.5164C53.5071 62.296 53.4138 61.9273 53.2364 61.61C53.0591 61.2927 52.8164 61.0453 52.5084 60.868C52.2098 60.6907 51.8504 60.602 51.4304 60.602C50.9731 60.602 50.5858 60.7 50.2684 60.896C49.9604 61.092 49.7224 61.3487 49.5544 61.666C49.3864 61.9833 49.2838 62.3333 49.2464 62.716ZM59.1338 67.084C58.3965 67.084 57.7898 66.9207 57.3138 66.594C56.8378 66.258 56.4832 65.81 56.2498 65.25C56.0165 64.6807 55.8998 64.0413 55.8998 63.332C55.8998 62.6227 56.0165 61.9833 56.2498 61.414C56.4832 60.8353 56.8425 60.378 57.3278 60.042C57.8132 59.706 58.4338 59.538 59.1898 59.538C59.4792 59.538 59.7685 59.5753 60.0578 59.65C60.3565 59.7153 60.6365 59.8227 60.8978 59.972C61.1592 60.112 61.3832 60.3033 61.5698 60.546V57.102H62.7598V67H61.6258L61.5698 65.894C61.4018 66.174 61.1872 66.4027 60.9258 66.58C60.6738 66.748 60.3938 66.874 60.0858 66.958C59.7778 67.042 59.4605 67.084 59.1338 67.084ZM59.3018 66.034C59.7965 66.034 60.2118 65.908 60.5478 65.656C60.8838 65.404 61.1405 65.068 61.3178 64.648C61.4952 64.228 61.5838 63.7707 61.5838 63.276C61.5838 62.7627 61.4952 62.3053 61.3178 61.904C61.1498 61.5027 60.8978 61.1853 60.5618 60.952C60.2258 60.7187 59.8012 60.602 59.2878 60.602C58.7558 60.602 58.3265 60.7233 57.9998 60.966C57.6825 61.2087 57.4492 61.54 57.2998 61.96C57.1598 62.3707 57.0898 62.8327 57.0898 63.346C57.0898 63.7193 57.1272 64.0693 57.2018 64.396C57.2858 64.7133 57.4118 64.998 57.5798 65.25C57.7572 65.4927 57.9858 65.684 58.2658 65.824C58.5458 65.964 58.8912 66.034 59.3018 66.034ZM67.5691 67.084C66.5517 67.084 65.7771 66.8133 65.2451 66.272C64.7224 65.7307 64.4611 64.9 64.4611 63.78V59.622H65.6511V63.724C65.6511 64.2093 65.7211 64.6247 65.8611 64.97C66.0011 65.3153 66.2111 65.5813 66.4911 65.768C66.7804 65.9453 67.1397 66.034 67.5691 66.034C68.0171 66.034 68.3857 65.9453 68.6751 65.768C68.9644 65.5813 69.1744 65.3153 69.3051 64.97C69.4451 64.6247 69.5151 64.2093 69.5151 63.724V59.622H70.7051V63.78C70.7051 64.9 70.4344 65.7307 69.8931 66.272C69.3611 66.8133 68.5864 67.084 67.5691 67.084ZM75.5655 67.084C74.7908 67.084 74.1468 66.9253 73.6335 66.608C73.1295 66.2813 72.7515 65.8333 72.4995 65.264C72.2568 64.6947 72.1355 64.0507 72.1355 63.332C72.1355 62.632 72.2615 61.9973 72.5135 61.428C72.7748 60.8493 73.1668 60.392 73.6895 60.056C74.2215 59.7107 74.8935 59.538 75.7055 59.538C76.2095 59.538 76.6575 59.622 77.0495 59.79C77.4508 59.958 77.7821 60.2053 78.0435 60.532C78.3048 60.8493 78.4868 61.2507 78.5895 61.736H77.3715C77.2315 61.3253 77.0075 61.036 76.6995 60.868C76.4008 60.6907 76.0461 60.602 75.6355 60.602C75.0755 60.602 74.6275 60.7327 74.2915 60.994C73.9555 61.2553 73.7081 61.596 73.5495 62.016C73.4001 62.4267 73.3255 62.8653 73.3255 63.332C73.3255 63.8173 73.4048 64.2653 73.5635 64.676C73.7221 65.0867 73.9695 65.418 74.3055 65.67C74.6415 65.9127 75.0755 66.034 75.6075 66.034C75.9995 66.034 76.3681 65.95 76.7135 65.782C77.0681 65.614 77.3015 65.3153 77.4135 64.886H78.6455C78.5521 65.39 78.3515 65.8053 78.0435 66.132C77.7448 66.4587 77.3761 66.7013 76.9375 66.86C76.5081 67.0093 76.0508 67.084 75.5655 67.084ZM82.3797 67.084C82.0437 67.084 81.7171 67.042 81.3997 66.958C81.0917 66.8647 80.8117 66.7293 80.5597 66.552C80.3171 66.3653 80.1211 66.1367 79.9717 65.866C79.8317 65.586 79.7617 65.264 79.7617 64.9C79.7617 64.48 79.8364 64.1253 79.9857 63.836C80.1444 63.5467 80.3544 63.318 80.6157 63.15C80.8771 62.982 81.1804 62.8607 81.5257 62.786C81.8711 62.7113 82.2304 62.674 82.6037 62.674H84.7737C84.7737 62.254 84.7131 61.89 84.5917 61.582C84.4797 61.274 84.2931 61.036 84.0317 60.868C83.7704 60.6907 83.4251 60.602 82.9957 60.602C82.7344 60.602 82.4917 60.63 82.2677 60.686C82.0437 60.742 81.8524 60.8307 81.6937 60.952C81.5351 61.0733 81.4184 61.2367 81.3437 61.442H80.0697C80.1351 61.106 80.2611 60.8213 80.4477 60.588C80.6437 60.3453 80.8771 60.1493 81.1477 60C81.4277 59.8413 81.7264 59.7247 82.0437 59.65C82.3611 59.5753 82.6784 59.538 82.9957 59.538C84.0597 59.538 84.8157 59.8507 85.2637 60.476C85.7117 61.1013 85.9357 61.946 85.9357 63.01V67H84.9417L84.8717 66.062C84.6664 66.342 84.4191 66.5567 84.1297 66.706C83.8404 66.8553 83.5417 66.9533 83.2337 67C82.9351 67.056 82.6504 67.084 82.3797 67.084ZM82.4917 66.034C82.9584 66.034 83.3597 65.9593 83.6957 65.81C84.0411 65.6513 84.3071 65.4227 84.4937 65.124C84.6804 64.8253 84.7737 64.4613 84.7737 64.032V63.668H83.4717C83.1637 63.668 82.8604 63.6727 82.5617 63.682C82.2631 63.6913 81.9924 63.7287 81.7497 63.794C81.5071 63.8593 81.3111 63.9713 81.1617 64.13C81.0217 64.2887 80.9517 64.5173 80.9517 64.816C80.9517 65.096 81.0217 65.3247 81.1617 65.502C81.3111 65.6793 81.5024 65.8147 81.7357 65.908C81.9784 65.992 82.2304 66.034 82.4917 66.034ZM90.6354 67C90.0754 67 89.6227 66.916 89.2774 66.748C88.9414 66.58 88.694 66.3187 88.5354 65.964C88.386 65.6093 88.3114 65.1613 88.3114 64.62V60.672H87.1074V59.622H88.3114V57.424H89.5014V59.622H91.4754V60.672H89.5014V64.494C89.5014 64.998 89.59 65.3713 89.7674 65.614C89.954 65.8473 90.3274 65.964 90.8874 65.964H91.4334V67H90.6354ZM92.681 67V59.622H93.871V67H92.681ZM93.269 58.53C93.0263 58.53 92.8303 58.4553 92.681 58.306C92.541 58.1567 92.471 57.9653 92.471 57.732C92.471 57.4987 92.5457 57.312 92.695 57.172C92.8443 57.0227 93.0357 56.948 93.269 56.948C93.4837 56.948 93.6703 57.0227 93.829 57.172C93.997 57.3213 94.081 57.508 94.081 57.732C94.081 57.9653 94.0017 58.1567 93.843 58.306C93.6843 58.4553 93.493 58.53 93.269 58.53ZM98.8235 67.084C98.0488 67.084 97.4002 66.9253 96.8775 66.608C96.3548 66.2813 95.9628 65.8333 95.7015 65.264C95.4495 64.6947 95.3235 64.046 95.3235 63.318C95.3235 62.5807 95.4542 61.932 95.7155 61.372C95.9768 60.8027 96.3688 60.3547 96.8915 60.028C97.4142 59.7013 98.0675 59.538 98.8515 59.538C99.6262 59.538 100.27 59.7013 100.784 60.028C101.306 60.3547 101.694 60.8027 101.946 61.372C102.207 61.932 102.338 62.5807 102.338 63.318C102.338 64.046 102.207 64.6947 101.946 65.264C101.684 65.8333 101.292 66.2813 100.77 66.608C100.256 66.9253 99.6075 67.084 98.8235 67.084ZM98.8235 66.034C99.3648 66.034 99.8035 65.9127 100.14 65.67C100.485 65.4273 100.737 65.1007 100.896 64.69C101.064 64.2793 101.148 63.822 101.148 63.318C101.148 62.814 101.064 62.3567 100.896 61.946C100.737 61.5353 100.485 61.2087 100.14 60.966C99.8035 60.7233 99.3648 60.602 98.8235 60.602C98.2915 60.602 97.8528 60.7233 97.5075 60.966C97.1715 61.2087 96.9195 61.5353 96.7515 61.946C96.5928 62.3567 96.5135 62.814 96.5135 63.318C96.5135 63.822 96.5928 64.2793 96.7515 64.69C96.9195 65.1007 97.1715 65.4273 97.5075 65.67C97.8528 65.9127 98.2915 66.034 98.8235 66.034ZM103.79 67V59.622H104.938L104.994 60.742C105.162 60.4713 105.376 60.2473 105.638 60.07C105.899 59.8927 106.184 59.762 106.492 59.678C106.809 59.5847 107.117 59.538 107.416 59.538C108.134 59.538 108.694 59.6873 109.096 59.986C109.506 60.2847 109.796 60.6907 109.964 61.204C110.141 61.708 110.23 62.282 110.23 62.926V67H109.04V63.248C109.04 62.9027 109.016 62.5713 108.97 62.254C108.932 61.9367 108.848 61.652 108.718 61.4C108.596 61.148 108.419 60.952 108.186 60.812C107.952 60.6627 107.64 60.588 107.248 60.588C106.762 60.588 106.347 60.7233 106.002 60.994C105.666 61.2647 105.409 61.6287 105.232 62.086C105.064 62.5433 104.98 63.0567 104.98 63.626V67H103.79Z" fill="#FFF9F5"/>
</svg>
