<svg width="350" height="350" viewBox="0 0 350 350" fill="none" xmlns="http://www.w3.org/2000/svg">
<path fill-rule="evenodd" clip-rule="evenodd" d="M185.795 25.1658C234.291 26.8884 276.618 53.4958 295.302 98.2635C321.157 160.211 343.167 236.546 292.311 280.378C230.565 333.597 135.448 341.65 71.3482 291.289C12.5216 245.071 19.8449 158.241 49.3947 89.5289C71.3475 38.4821 130.244 23.1927 185.795 25.1658Z" fill="#2DB5D3"/>
<path d="M47.6683 235.386C47.5182 237.053 47.085 239.147 46.8649 240.952C46.3349 245.01 45.0489 248.446 44.2886 250.604C44.263 250.676 44.2374 250.748 44.2117 250.82C43.8765 251.748 43.5865 252.6 43.2595 253.581C42.8327 254.869 42.3326 256.361 41.666 258.471C41.0958 260.298 40.3675 262.605 39.3922 265.628C38.8841 267.624 38.3744 269.625 37.8583 271.629C37.5737 272.734 37.2879 273.841 37.0011 274.948C36.9134 275.282 36.8419 275.62 36.8164 275.782C36.8031 275.853 36.8059 275.897 36.8131 275.711C36.8141 275.609 36.8234 275.458 36.7845 275.078C36.6878 274.669 36.8376 274.153 35.8181 272.354C35.4055 271.645 34.3866 270.653 33.3253 270.218C32.2688 269.763 31.4971 269.765 31.1353 269.775C30.4042 269.835 30.6536 269.87 30.9514 269.748C31.6321 269.517 32.8289 268.959 34.0628 268.371C36.5876 267.181 39.4944 265.745 43.1331 264.799C49.2618 263.283 55.2628 262.084 62.0197 261.634C70.626 261.117 79.6018 260.814 88.4266 260.984C88.714 260.978 89.0077 260.973 89.306 260.967C90.7257 260.943 92.2333 260.928 93.7662 260.93C98.6697 260.904 103.951 261.545 107.398 262.414C111.016 263.304 113.659 264.184 115.789 264.806C117.196 265.216 118.442 265.594 119.597 265.953C124.891 267.344 130.177 268.85 135.467 270.707C144.2 273.613 152.927 278.846 159.641 284.481C162.981 287.093 165.496 290.062 167.863 292.855C169.009 294.212 170.134 295.576 171.15 296.62C174.138 299.411 176.285 304.409 177.17 305.391C177.115 305.335 176.963 305.168 176.593 304.993C176.154 304.763 175.375 304.709 174.984 304.826C174.575 304.931 174.479 305.036 174.485 305.025C177.615 302.723 179.919 299.983 181.998 296.386C182.461 295.538 182.922 294.643 183.529 293.644C184.865 291.506 186.267 289.976 187.524 288.589C189.687 286.252 191.592 284.303 192.39 283.037C192.871 282.347 193.382 281.754 193.883 281.242C198.295 277.044 202.705 275.773 205.969 273.879C208.385 272.55 210.857 271.59 213.035 270.941C214.014 270.647 214.932 270.411 215.768 270.211C218.086 269.545 220.361 269.068 221.92 268.496C224.2 267.69 226.395 267.089 228.538 266.521C228.842 266.5 229.148 266.482 229.457 266.465C231.607 266.343 233.935 265.999 236.67 265.355C238.86 264.834 241.422 264.091 244.479 263.179C247.489 262.282 250.985 261.212 255.148 260.021C255.223 260 255.297 259.979 255.37 259.958C258.39 259.146 259.947 259.304 261.192 259.357C261.568 259.381 261.918 259.407 262.269 259.425C263.466 259.485 264.676 259.228 266.091 258.948C267.922 258.582 270.074 258.195 272.852 258.349C274.047 258.414 275.144 258.437 276.155 258.423C283.098 258.312 286.568 257.844 289.372 257.506C290.321 257.399 291.189 257.318 292.084 257.316C294.953 257.26 299.214 258.258 301.879 259.235C302.263 259.367 302.706 259.495 303.168 259.599C305.909 260.176 309.591 261.123 312.437 261.877C313.754 262.218 315.461 262.862 317.383 263.579C318.062 263.83 318.775 264.092 319.481 264.331C319.373 264.296 319.213 264.229 318.778 264.198C318.392 264.17 317.604 264.222 316.828 264.655C316.053 265.075 315.57 265.72 315.369 266.1C315.165 266.481 315.126 266.677 315.098 266.773C315.057 266.947 315.075 266.795 315.05 266.583C315.03 266.372 314.987 266.065 314.925 265.746C313.916 261.101 312.55 257.641 311.928 254.516C311.828 254.055 311.729 253.621 311.63 253.206C311.453 252.47 311.277 251.788 311.089 251.109C310.497 248.964 309.66 246.314 308.651 243.608C308.155 242.271 307.623 240.922 307.087 239.62C306.303 237.71 305.547 235.901 304.886 234.375C303.601 230.646 302.336 226.869 301.145 223.055L301.377 223.635C300.036 220.527 298.71 217.421 297.391 214.329C295.921 210.884 294.971 207.42 294.71 204.679C294.675 204.315 294.653 203.966 294.644 203.635L295.095 204.329C295.252 203.067 294.498 201.323 295.217 200.411C295.864 199.565 297.315 198.76 299.967 200.301C300.044 200.401 300.25 200.702 300.302 200.817C300.567 201.036 300.837 201.279 301.11 201.544C303.176 203.541 305.24 206.595 306.9 209.953C308.392 212.974 309.88 215.985 311.377 219.002C311.419 219.1 311.543 219.391 311.574 219.493C313.008 223.349 314.517 227.186 316.05 231.057C316.651 232.575 317.254 234.099 317.855 235.63C319.956 240.973 321.861 246.718 322.861 252.727C323.116 254.175 323.626 256.129 324.087 258.052C324.519 259.87 324.969 261.722 325.287 263.929C325.423 265.071 325.62 266.176 325.407 268.159C325.18 269.126 325.311 270.761 322.871 273.037C321.633 274.103 319.856 274.579 318.661 274.557C317.5 274.554 316.741 274.333 316.089 274.114C313.23 273.094 310.727 272.062 308.217 271.158C307.626 270.944 307.039 270.737 306.457 270.539C304.624 270.067 302.833 269.685 301.271 269.494C297.581 268.884 295.369 268.519 293.219 268.347C290.469 268.11 288.399 267.89 286.579 267.726C285.335 267.619 284.222 267.551 283.082 267.606C282.474 267.635 281.638 267.691 280.629 267.776C279.581 267.863 278.385 267.978 277.018 268.124C272.516 268.64 266.811 268.617 262.429 268.83C260.981 268.907 259.512 269.028 258.149 269.292C256.709 269.607 255.236 269.925 253.792 270.236C249.139 271.245 244.759 272.182 242.603 272.905C241.447 273.295 240.228 273.662 238.954 274.002C236.012 274.785 233.016 275.33 230.374 275.875C228.223 276.316 226.306 276.763 224.851 277.251C223.48 277.703 222.438 277.977 221.682 278.255C219.471 279.059 217.752 279.303 215.331 279.978C213.984 280.363 212.428 280.886 210.568 281.877C210.019 282.174 209.447 282.475 208.854 282.781C205.286 284.588 202.971 285.514 201.383 286.476C200.453 287.029 199.779 287.555 199.324 288.104C197.994 289.795 196.68 291.069 195.253 292.692C193.388 294.787 191.54 296.793 190.567 298.359C190.066 299.15 189.494 300.139 188.902 301.041C188.039 302.365 186.99 304.005 185.718 305.6C184.041 307.726 181.954 309.741 179.837 311.197C179.659 311.32 179.481 311.439 179.302 311.554C178.401 312.166 176.956 312.9 175.105 312.696C173.245 312.476 172.063 311.382 171.478 310.636C171.108 310.148 170.844 309.692 170.63 309.278C170.367 308.764 170.178 308.309 170.009 307.896C169.197 306.458 168.592 305.302 167.855 304.246C167.704 304.099 167.543 303.95 167.372 303.797C166.832 303.317 166.199 302.819 165.464 302.281C164.874 301.805 164.303 301.289 163.736 300.732C161.33 298.34 159.748 296.17 157.917 294.1C156.943 292.998 155.914 291.927 154.73 290.995C154.088 290.494 153.431 289.99 152.745 289.49C151.243 288.393 149.53 287.267 147.799 286.264C145.235 284.765 142.612 283.557 140.812 282.613C140.14 282.258 139.601 281.842 139.069 281.44C139.067 281.438 139.065 281.436 139.062 281.434C139.026 281.406 138.989 281.379 138.952 281.352C136.915 280.541 134.833 279.832 132.699 279.198C129.951 278.381 127.139 277.66 124.305 276.996C123.86 276.921 123.41 276.846 122.964 276.773C120.785 276.416 118.656 276.104 117.234 276.05C116.447 276.021 115.088 275.828 113.417 275.566C111.701 275.29 109.769 274.903 107.88 274.569C105.355 274.116 102.869 273.795 100.813 273.713C99.6206 273.662 98.5041 273.393 97.3418 273.148C96.2566 272.919 95.1225 272.71 93.8678 272.735C93.7974 272.736 93.726 272.738 93.6537 272.741C93.0501 272.762 92.4188 272.82 91.7365 272.883C91.0682 272.946 90.3535 273.015 89.6156 273.061C88.9213 273.103 87.389 273.023 85.4118 272.948C84.1935 272.901 82.8046 272.857 81.346 272.84C77.4978 273.071 73.6679 273.372 69.8163 273.729C69.0315 273.928 68.3318 274.168 67.807 274.449C67.4138 274.651 67.1055 274.882 66.766 275.121C66.3271 275.443 65.8436 275.779 65.1923 276.068C64.6706 276.295 64.0436 276.418 63.6093 276.374C63.3995 276.353 63.237 276.298 63.0958 276.247C63.0955 276.246 63.0952 276.246 63.0948 276.246C62.9668 276.185 62.8414 276.133 62.7023 276.146C62.6013 276.156 62.4932 276.216 62.3683 276.288C62.1621 276.404 61.8982 276.554 61.4637 276.607C59.8506 276.804 57.92 277.058 56.0227 277.367C53.9118 277.71 51.8339 278.121 50.2017 278.549C49.2994 278.785 48.1965 279.023 46.9889 279.28C46.1735 279.429 45.1263 279.706 43.9782 280.102C42.3895 280.644 40.6438 281.394 38.8978 282.163C38.0348 282.538 37.1167 282.981 35.9228 283.451C34.6485 283.862 33.3878 284.642 30.0186 284.417C27.8602 284.364 24.3943 282.343 23.2487 280.21C22.0112 278.036 22.1527 277.268 22.0166 276.572C21.9495 275.913 21.9553 275.495 21.9634 275.123C21.9863 274.398 22.0482 273.911 22.1125 273.459C22.2447 272.574 22.407 271.895 22.5933 271.249C22.6789 270.967 22.7697 270.692 22.8655 270.428C22.9816 270.108 23.2795 269.752 23.6533 269.304C23.9179 268.988 24.2215 268.622 24.5246 268.195C25.0556 266.133 25.5978 264.071 26.1547 262.008C26.1475 261.928 26.1404 261.846 26.133 261.763C26.1327 261.762 26.1323 261.761 26.132 261.759C25.9677 259.947 25.7428 257.478 27.0381 254.426C27.074 254.34 27.1109 254.254 27.1489 254.167C27.5245 253.316 27.9217 252.837 28.2791 252.408C28.6298 251.989 28.9453 251.616 29.1772 251.01C29.4408 250.321 29.5773 249.461 29.7259 248.539C29.9337 247.246 30.1614 245.841 30.7563 244.634C30.7968 244.552 30.8408 244.462 30.8855 244.371C31.3107 243.495 31.9055 242.254 32.613 241.117C32.7898 240.426 32.9362 239.755 33.048 239.1C33.7569 234.734 35.0611 231.172 35.9844 227.838C36.2265 226.986 36.4539 226.145 36.6641 225.305C38.1513 219.676 38.9728 213.471 41.6267 207.079C41.8405 206.568 42.054 206.058 42.2663 205.548C43.6706 202.182 45.4105 199.139 47.102 197.051C48.805 194.969 50.2801 193.963 51.5518 194.176C52.8326 194.398 53.7089 196.336 53.7915 199.208C53.8858 202.085 53.236 205.677 52.0777 209.197C51.902 209.73 51.7257 210.263 51.5496 210.794C50.0805 215.153 49.6268 220.278 48.6713 225.864C48.6333 226.188 48.595 226.506 48.5531 226.831C48.5111 227.154 48.4747 227.464 48.4378 227.786C48.1842 229.944 47.9844 231.975 47.805 233.89C47.7577 234.397 47.7122 234.896 47.6683 235.386Z" fill="#120F50"/>
<path d="M72.4085 229.97C72.3782 230.209 72.3377 230.461 72.2858 230.727C71.9478 232.982 71.1715 236.782 70.5922 239.974C70.5809 240.033 70.5695 240.093 70.5579 240.153C70.4047 240.927 70.2695 241.694 70.0767 242.625C69.9668 243.152 69.8374 243.734 69.6644 244.402C69.4812 245.093 69.2682 245.888 69.0605 246.74C68.9579 247.161 68.8586 247.6 68.7839 247.965C68.6999 248.304 68.6938 248.683 68.5954 248.323C68.4873 247.882 68.2498 246.835 67.1584 245.683C66.2349 244.657 64.9789 244.161 64.3603 244.04C63.7001 243.903 63.4728 243.946 63.3942 243.943C63.2674 243.958 63.6954 243.891 64.1727 243.744C66.4967 243.106 69.3344 241.555 74.1855 240.524C79.3537 239.578 85.2067 238.38 91.0494 237.796C99.5546 236.942 107.712 237.074 115.853 237.457C116.065 237.456 116.293 237.456 116.516 237.457C120.817 237.457 126.145 237.593 129.571 238.08C129.77 238.108 129.956 238.134 130.13 238.161C130.324 238.189 130.517 238.218 130.688 238.245C135.466 239.041 137.951 240.425 140.063 241.407C144.235 243.205 147.943 245.18 151.676 247.019C158.532 250.588 163.325 255.087 168.346 259.489C170.82 261.707 172.551 264.219 174.036 266.627C175.731 269.387 177.116 272.176 178.545 274.324C178.452 274.199 178.355 274.036 177.972 273.723C177.658 273.459 176.892 273.039 176.054 273C175.212 272.947 174.587 273.207 174.302 273.356C173.97 273.533 173.87 273.635 173.794 273.699C173.673 273.813 173.743 273.756 173.814 273.656C173.896 273.548 174.004 273.389 174.115 273.212C175.746 270.504 177.386 266.595 179.722 263.004C180.262 262.088 180.844 261.181 181.517 260.29C182.35 259.171 183.209 258.124 184.075 257.159C186.166 254.829 188.307 252.988 190.184 251.678C194.721 248.461 200.423 246.417 204.088 244.966C204.692 244.726 205.25 244.498 205.75 244.286C206.128 244.092 206.498 243.898 206.854 243.702C209.664 242.192 212.474 241.029 215.32 240.002C215.559 239.977 215.8 239.955 216.045 239.935C218.294 239.753 220.737 239.163 224.179 238.469C225.467 238.214 226.874 237.984 228.388 237.792C230.875 237.472 233.617 237.255 236.749 236.962C237.446 236.896 238.025 236.868 238.526 236.864C239.568 236.846 240.277 236.948 240.891 237.041C241.167 237.082 241.423 237.123 241.683 237.153C242.569 237.256 243.473 237.019 244.541 236.758C245.924 236.419 247.585 236.044 249.725 236.307C253.356 236.756 255.842 236.716 257.732 236.477C259.446 236.267 260.662 235.947 261.729 235.672C262.405 235.5 262.999 235.346 263.633 235.252C265.659 234.944 268.573 235.112 270.763 235.413C272.5 235.646 275.974 235.385 278.608 235.102C279.609 234.993 280.959 235.013 282.545 235.05C284.188 235.089 286.092 235.148 288.113 235.092C289.014 235.067 289.858 235.047 290.605 235.027C290.983 235.016 291.342 235.006 291.649 234.992C291.816 234.986 291.953 234.978 292.074 234.968C292.124 234.963 292.181 234.958 292.196 234.952C292.205 234.948 292.218 234.934 291.952 234.954C291.682 234.969 291.156 235.024 290.435 235.469C289.725 235.891 289.111 236.727 288.901 237.274C288.486 238.408 288.649 238.52 288.586 238.53C288.531 238.47 288.336 237.936 288.118 237.492C287.922 237.078 287.704 236.651 287.469 236.21C286.723 234.799 285.639 232.931 284.484 230.684C284.114 229.953 283.737 229.184 283.36 228.247C282.494 226.111 281.861 224.109 281.349 222.523C280.434 218.355 279.91 214.323 279.107 211.021C279.049 210.851 278.955 210.33 278.923 210.153C278.82 208.975 278.632 207.839 278.352 206.78C277.905 205.083 277.571 203.576 277.334 202.161L278.377 203.088C278.634 203.096 278.882 203.024 278.995 202.89C279.347 202.419 278.531 201.858 278.011 201.362C277.448 200.85 277.021 200.279 276.897 199.631C276.772 198.986 276.896 198.296 277.344 197.6C277.822 196.947 278.524 196.061 280.549 195.934C281.182 195.917 281.946 196.043 282.686 196.36C282.876 196.494 283.373 196.909 283.512 197.095C285.557 198.425 287.384 200.88 288.325 203.599C288.924 205.299 289.339 207.015 289.623 208.723L289.468 207.992C290.892 212.462 291.656 216.503 292.757 220.237C293.175 221.677 293.626 223.056 294.132 224.333C294.818 226 296.183 228.409 297.39 230.931C298.001 232.239 298.636 233.561 299.177 235.498C299.402 236.531 299.812 237.557 299.453 239.934C299.262 241.08 298.532 242.891 297.031 244.102C295.555 245.303 294.117 245.6 293.1 245.718C292.813 245.748 292.637 245.753 292.489 245.757C286.824 245.607 282.708 245.348 277.835 245.253C277.349 245.241 276.857 245.23 276.375 245.221C272.397 245.516 268.442 245.874 265.661 246.059C263.364 246.212 261.682 246.108 260.238 246.026C259.527 245.986 258.88 245.952 258.235 245.959C257.965 245.963 257.701 245.972 257.438 245.988C256.932 246.021 256.256 246.071 255.43 246.127C252.063 246.39 246.394 246.485 241.847 246.545C241.163 246.555 240.446 246.565 239.708 246.582C238.015 246.645 236.238 246.645 234.559 246.63C230.934 246.582 227.875 246.597 226.438 247.008C226.28 247.05 226.123 247.092 225.964 247.134C223.458 247.79 220.547 248.433 218.017 249.141C215.439 249.855 213.262 250.648 212.206 251.389C211.84 251.643 211.485 251.867 211.129 252.073C210.013 252.702 208.837 253.152 207.359 253.684C205.923 254.203 204.187 254.785 202.012 255.729C199.511 256.82 197.798 257.553 196.363 258.238C194.362 259.209 192.87 260.05 191.212 261.884C190.068 263.162 188.982 264.509 187.995 265.779C187.491 266.436 186.994 267.148 186.517 267.81C185.936 268.614 185.347 269.644 184.751 270.771C183.959 272.262 183.16 273.918 182.202 275.464C181.368 276.763 180.637 277.728 179.211 278.979C178.719 279.34 178.185 279.948 176.637 280.282C175.745 280.513 174.434 280.246 173.729 279.746C173.029 279.284 172.706 278.849 172.433 278.461C171.947 277.747 171.509 277.043 171.09 276.351C170.957 276.208 170.817 276.061 170.671 275.905C169.943 275.133 169.078 274.186 168.212 272.989C166.84 271.1 165.938 269.419 164.858 267.855C164.314 267.071 163.724 266.322 163.019 265.669C162.531 265.223 162.014 264.775 161.458 264.326C160.38 263.454 159.101 262.533 157.827 261.656C155.935 260.348 154.053 259.157 152.853 258.229C152.405 257.881 152.085 257.479 151.769 257.088C151.768 257.086 151.766 257.084 151.765 257.082C151.743 257.055 151.721 257.028 151.7 257.002C150.453 256.268 149.193 255.608 147.991 255.117C145.758 254.189 143.553 253.253 141.376 252.372C141.051 252.272 140.725 252.171 140.403 252.073C138.828 251.59 137.327 251.175 136.316 251.077C135.231 250.973 132.657 250.176 130.438 250.023C130.155 250.002 129.877 249.991 129.611 249.99C128.182 249.96 126.571 249.972 125.258 250.034C124.295 250.08 123.386 249.873 122.455 249.665C121.57 249.471 120.689 249.277 119.691 249.289C119.2 249.295 118.656 249.349 118.088 249.41C117.588 249.463 117.047 249.52 116.496 249.553C115.974 249.583 114.83 249.475 113.356 249.353C112.448 249.278 111.413 249.198 110.325 249.14C107.459 249.266 104.601 249.438 101.774 249.674C101.189 249.849 100.692 250.066 100.302 250.332C100.023 250.523 99.7912 250.746 99.5548 250.974C99.2338 251.284 98.899 251.606 98.4362 251.879C98.0759 252.092 97.6363 252.201 97.3346 252.149C97.1938 252.125 97.0824 252.067 96.9813 252.014C96.8652 251.954 96.7634 251.9 96.6422 251.913C96.5553 251.922 96.4694 251.98 96.3642 252.05C96.1963 252.162 95.9788 252.307 95.6347 252.345C94.7901 252.44 93.8735 252.528 92.961 252.625C92.4627 252.677 91.9655 252.731 91.4655 252.789C89.8625 252.973 88.2913 253.193 87.0419 253.455C85.643 253.747 83.5978 253.959 81.4661 254.209C79.9805 254.382 78.4518 254.566 77.1075 254.769C77.0362 254.78 76.9647 254.791 76.8932 254.803C76.423 254.853 75.4884 255.237 74.5445 255.679C73.3228 256.244 71.9722 256.904 70.5818 257.228C70.303 257.293 69.8914 257.226 69.3639 257.138C68.9872 257.076 68.547 257.005 68.0435 256.958C67.0444 257.24 65.9575 257.546 64.3381 257.667C63.5053 257.714 62.5174 257.735 61.1608 257.404C59.8346 257.099 57.9503 256.149 56.7497 254.615C56.5548 254.418 56.3755 254.219 56.2063 254.014C56.2035 254.011 56.2006 254.008 56.1978 254.005C55.2774 252.867 54.7562 251.717 54.4207 250.626C53.5172 247.926 53.4645 245.72 54.2765 243.502C54.5539 242.775 54.8924 242.386 55.1958 242.038C55.4664 241.73 55.7116 241.46 55.8724 241.057C55.8863 241.027 55.8991 240.995 55.9108 240.962C56.0538 240.561 56.0319 240.034 55.9954 239.442C55.9452 238.61 55.8651 237.64 56.2202 236.636C56.2445 236.567 56.271 236.493 56.2979 236.416C56.5537 235.685 56.9338 234.532 57.5776 233.364C58.0145 231.131 58.6321 228.74 59.4851 226.467C59.8841 225.442 60.2379 224.363 60.5594 223.233C61.4907 220.008 62.0838 216.369 63.1251 212.371C63.573 210.749 63.9404 209.012 64.2326 207.276C64.6574 204.761 65.3579 202.394 66.2464 200.626C67.1483 198.875 68.122 197.729 69.3659 197.367C70.6042 196.994 72.2052 198.109 73.2675 200.306C74.3424 202.493 74.8284 205.445 74.6361 208.436C74.5006 210.51 74.2854 212.571 73.9242 214.707C73.5704 216.954 73.3399 219.48 72.9784 222.186C72.961 222.435 72.9413 222.687 72.919 222.939C72.7527 224.814 72.7202 226.676 72.5512 228.618C72.5121 229.065 72.4658 229.515 72.4085 229.97Z" fill="#120F50"/>
<path d="M168.15 266.295C167.58 265.793 167.91 264.971 168.089 264.506C168.092 264.497 168.095 264.489 168.098 264.48C168.14 264.37 168.158 264.263 168.177 264.138C168.223 263.843 168.287 263.442 168.742 262.618C168.745 262.367 168.754 262.119 168.771 261.869C168.949 259.178 169.583 256.473 170.276 253.746C170.274 253.711 170.272 253.675 170.269 253.64C170.224 252.95 170.164 252.095 170.4 251.564C170.4 251.562 170.401 251.56 170.402 251.559L170.479 252.648C170.645 251.876 170.834 251.342 171.002 250.902C171.15 248.489 171.348 246.104 171.345 243.81C171.343 243.09 171.321 242.376 171.269 241.667C171.222 241.014 171.157 240.365 171.076 239.718C170.916 239.347 170.733 239 170.563 238.676C170.354 238.279 170.165 237.922 170.066 237.606C170.054 237.569 170.068 237.451 170.058 237.414C170.045 237.37 170.035 237.326 170.026 237.283C169.859 236.44 170.071 235.481 170.23 234.775C170.256 234.66 170.281 234.548 170.302 234.448C170.209 233.895 170.111 233.329 170.013 232.779C170.064 232.741 170.117 232.703 170.171 232.664C170.853 232.181 170.838 231.599 170.817 230.682C170.808 230.28 170.799 229.819 170.845 229.276C170.875 228.926 171.146 228.74 171.367 228.594C171.432 228.551 171.493 228.51 171.542 228.469C171.71 228.328 171.527 228.18 171.31 228.005C171.029 227.78 170.691 227.51 170.993 227.146C171.956 225.995 171.298 225.491 170.8 225.113C170.653 225.001 170.521 224.9 170.448 224.795C170.21 224.459 170.443 223.976 170.765 223.613C171.02 223.326 170.765 222.749 170.442 222.313C170.319 222.147 170.316 221.924 170.313 221.662C170.309 221.389 170.306 221.074 170.169 220.738C169.822 219.886 169.654 219.433 169.519 219.071C169.481 218.967 169.446 218.871 169.41 218.774C169.295 218.468 169.2 218.092 169.104 217.708C168.99 217.25 168.874 216.784 168.719 216.431C168.883 215.513 169.085 214.597 169.287 213.68C169.392 213.21 169.983 212.757 170.957 212.425C171.932 212.092 173.203 211.905 174.52 211.905C175.838 211.905 177.109 212.092 178.084 212.425C179.058 212.757 179.65 213.21 179.755 213.68C179.964 214.628 180.173 215.575 180.34 216.522C180.544 217.676 180.684 218.83 180.686 219.983C180.686 220.79 180.656 221.596 180.601 222.403C180.596 222.486 180.589 222.569 180.583 222.652C180.909 223.328 181.206 224.004 181.312 224.478C181.4 224.869 181.228 225.159 181.081 225.402C180.98 225.57 180.89 225.722 180.905 225.873C180.913 225.954 180.933 226.064 180.958 226.197C181.058 226.745 181.229 227.664 180.918 228.513C180.779 228.888 180.505 229.322 180.244 229.742C179.87 230.336 179.523 230.892 179.634 231.173C179.828 231.661 179.673 232.22 179.536 232.722C179.406 233.192 179.293 233.611 179.515 233.843C179.782 234.122 179.678 234.358 179.526 234.718C179.42 234.961 179.291 235.272 179.245 235.681C179.192 236.154 179.016 236.492 178.866 236.779C178.79 236.927 178.721 237.059 178.679 237.187L178.673 237.052C178.608 237.295 178.625 237.518 178.838 237.797C179.208 238.276 179.457 238.787 179.378 239.207C179.342 239.394 179.369 239.615 179.397 239.833C179.433 240.13 179.472 240.436 179.371 240.729C179.288 240.965 179.047 241.182 178.834 241.366C178.767 241.424 178.704 241.48 178.648 241.534C178.666 241.722 178.684 241.902 178.706 242.09C178.749 242.117 178.797 242.145 178.847 242.174C179.094 242.319 179.399 242.502 179.563 242.738C179.822 243.116 179.708 243.47 179.588 243.848C179.495 244.14 179.399 244.444 179.474 244.778C179.526 245.003 179.655 245.253 179.784 245.501C179.975 245.866 180.166 246.225 180.099 246.494C180.074 246.596 179.924 246.697 179.774 246.798C179.773 246.799 179.772 246.799 179.771 246.8C179.761 246.807 179.751 246.813 179.741 246.82C179.935 247.44 180.147 248.054 180.373 248.663C180.422 248.712 180.47 248.761 180.517 248.81C180.747 249.05 180.973 249.281 181.264 249.409C181.581 249.548 181.816 249.978 182.069 250.43C182.129 250.536 182.19 250.645 182.253 250.752C182.232 250.96 182.383 251.577 182.326 251.778C182.401 251.997 182.484 252.211 182.584 252.399C182.675 252.571 182.506 252.728 182.332 252.89C182.169 253.041 182.002 253.195 182.038 253.369C182.056 253.456 182.123 253.552 182.193 253.654C182.255 253.743 182.321 253.838 182.361 253.937C182.397 254.029 182.301 254.228 182.179 254.483C182.104 254.641 182.018 254.82 181.946 255.009C182.034 255.515 182.115 256.023 182.188 256.53C182.329 256.641 182.514 256.739 182.753 256.821C182.924 256.879 183.13 256.932 183.34 256.986C183.625 257.059 183.921 257.135 184.155 257.233C184.337 257.309 184.408 257.395 184.329 257.447C184.292 257.471 184.223 257.488 184.161 257.503C184.09 257.521 184.027 257.536 184.028 257.558C184.029 257.575 184.078 257.593 184.137 257.616C184.232 257.653 184.354 257.701 184.356 257.766C184.362 258.008 184.31 258.282 184.259 258.55C184.201 258.846 184.145 259.139 184.171 259.374C184.199 259.635 183.996 260.003 183.792 260.364C183.65 260.619 183.508 260.872 183.443 261.092C183.379 261.309 183.467 261.544 183.553 261.77C183.656 262.044 183.755 262.309 183.58 262.515C183.544 262.556 183.341 262.599 183.087 262.651C182.906 262.688 182.7 262.731 182.509 262.782C182.491 263.058 182.464 263.333 182.429 263.61C182.455 263.621 182.482 263.633 182.51 263.645C182.51 263.645 182.511 263.646 182.512 263.646C183.131 263.915 183.976 264.3 183.424 264.698C183.284 264.8 183.035 264.853 182.811 264.899C182.591 264.944 182.394 264.985 182.347 265.063C182.294 265.151 182.417 265.269 182.551 265.401C182.738 265.587 182.948 265.794 182.722 265.963C182.706 265.975 182.69 265.987 182.673 266C182.512 266.124 182.273 266.309 181.811 266.468C181.638 267.055 181.441 267.635 181.225 268.223C180.865 269.195 180.453 270.177 180.008 271.168C179.789 271.659 179.105 272.05 178.081 272.23C177.057 272.407 175.793 272.329 174.531 272.053C173.267 271.78 172.082 271.356 171.179 270.903C170.279 270.445 169.742 269.993 169.663 269.571C169.536 268.893 169.396 268.187 169.265 267.476C169.242 267.437 169.221 267.398 169.201 267.359C169.052 267.065 168.716 266.783 168.38 266.492C168.303 266.426 168.226 266.361 168.15 266.295Z" fill="#120F50"/>
<path d="M71.1977 123.811C71.3244 124.099 71.2825 124.239 71.0803 124.425C70.8843 124.603 70.5472 124.825 70.2914 125.019C70.2824 125.027 70.2732 125.034 70.2641 125.041C70.1426 125.134 70.0414 125.243 69.9205 125.379C69.6282 125.713 69.2376 126.154 68.0283 127.211C67.7807 127.596 67.5259 127.987 67.2557 128.389C66.5718 129.408 65.8293 130.479 65.0244 131.561C63.0825 134.08 61.3497 137.021 59.7379 140.488C59.7217 140.549 59.7054 140.61 59.6888 140.673C59.3687 141.873 59.0031 143.415 58.5127 144.332C58.2729 144.778 58.0536 145.171 57.8501 145.523C57.571 145.917 57.3411 146.247 57.1402 146.551C56.069 149.498 56.0686 153.17 57.2173 156.617C57.4784 157.407 57.7953 158.18 58.161 158.908C58.2867 159.158 58.4202 159.402 58.5629 159.641C59.0556 160.468 59.6481 161.237 60.3274 161.944C60.8077 162.28 61.3041 162.551 61.7725 162.783C62.4319 163.11 63.0353 163.361 63.4891 163.63C64.5725 164.278 65.7153 165.251 66.6679 165.96C66.8219 166.075 66.9699 166.184 67.1085 166.283C67.6049 166.489 68.114 166.688 68.6388 166.885C68.9196 166.977 69.2122 167.059 69.5145 167.129C69.5408 167.194 69.5677 167.261 69.5961 167.33C69.9595 168.185 70.7966 168.444 72.1617 168.624C72.7591 168.7 73.4624 168.759 74.3144 168.822C74.8605 168.862 75.1543 169.122 75.4014 169.336C75.4739 169.399 75.5428 169.457 75.6126 169.503C75.8538 169.661 76.0891 169.464 76.3576 169.226C76.708 168.916 77.0987 168.54 77.7196 168.759C79.7432 169.435 80.4951 168.524 80.9548 167.889C81.094 167.7 81.2176 167.527 81.3612 167.408C81.6563 167.163 82.0924 167.068 82.5513 167.051C82.7866 167.05 83.0217 167.075 83.2475 167.111C83.7432 167.197 84.4406 166.606 84.8183 166.019C84.9652 165.798 85.2324 165.638 85.5421 165.433C85.8612 165.222 86.2263 164.96 86.5153 164.554C87.2354 163.525 87.55 162.924 87.8191 162.444C87.8943 162.306 87.9639 162.176 88.0316 162.044C88.2455 161.628 88.5377 161.125 88.8281 160.586C89.1756 159.944 89.5214 159.247 89.7304 158.661C90.0296 158.305 90.3341 157.937 90.6444 157.556L90.2024 158.37C90.5033 158.061 90.7055 157.527 90.8329 157.675C90.843 157.686 90.8574 157.702 90.8765 157.721C91.088 158.006 91.7316 157.885 92.2956 157.097C92.9331 156.264 93.7268 155.176 94.8363 154.462C95.9398 153.75 97.1588 153.254 98.4233 153.457C99.5531 153.614 100.82 154.762 101.194 156.493C101.229 156.651 101.257 156.809 101.277 156.965C101.541 159.352 101.153 161.173 100.508 162.992C100.424 163.127 100.237 163.563 100.133 163.683C99.8532 164.228 99.5594 164.78 99.2452 165.336C98.055 167.444 96.5424 169.66 94.4632 171.582C93.0175 172.922 91.3289 174.115 89.5209 175.027C89.3354 175.121 89.1456 175.213 88.9591 175.301C87.9967 176.048 86.9563 176.705 86.0381 177.171C85.692 177.354 85.3725 177.508 85.0744 177.634C84.2468 177.985 83.5575 177.993 82.9817 177.988C82.5796 177.986 82.2329 177.976 81.8962 178.066C81.7158 178.115 81.4758 178.188 81.1772 178.273C79.9786 178.626 77.8387 179.126 75.8164 178.878C74.923 178.774 73.8874 178.494 72.9233 178.17C71.5374 177.712 70.3137 177.158 69.6412 177.135C68.4528 177.101 67.1509 176.578 66.0542 176.003C65.5276 175.729 65.0388 175.444 64.6114 175.217C64.2714 175.032 63.9594 174.906 63.6925 174.894C63.0496 174.864 62.6406 174.533 62.0479 174.027C61.6361 173.674 61.1344 173.238 60.3998 172.719C59.5526 172.118 59.0448 171.539 58.6289 171.044C58.0427 170.341 57.634 169.812 56.676 169.382C55.6099 168.901 54.595 168.184 54.0425 167.393C53.791 167.035 53.4621 166.661 53.1306 166.257C52.6935 165.724 52.255 165.136 51.996 164.51C51.7836 163.997 51.7746 163.478 51.7797 163.025C51.7819 162.885 51.7849 162.751 51.7836 162.624C51.728 162.524 51.673 162.422 51.6185 162.32C51.481 162.063 51.3438 161.799 51.2104 161.535C51.1452 161.495 51.0745 161.452 51.0009 161.407C50.6326 161.181 50.1812 160.89 49.8308 160.429C49.2759 159.697 49.134 158.903 49.0213 158.079C48.9328 157.432 48.8626 156.769 48.6305 156.042C48.4722 155.546 48.2377 154.992 48.0226 154.427C47.7019 153.591 47.4294 152.727 47.4605 152.103C47.4716 151.868 47.6132 151.657 47.7561 151.449C47.757 151.448 47.7579 151.447 47.7588 151.446C47.7685 151.432 47.7779 151.418 47.7876 151.404C47.5439 149.934 47.4098 148.42 47.4168 146.876C47.3886 146.74 47.3621 146.603 47.3374 146.465C47.2161 145.79 47.1316 145.124 46.9447 144.654C46.7882 144.259 46.7894 143.461 46.8985 142.531C46.9158 142.31 46.9365 142.082 46.9581 141.849C47.02 141.184 47.0899 140.488 47.0908 139.9C47.0915 139.555 47.339 139.298 47.595 139.036C47.8341 138.79 48.08 138.54 48.142 138.2C48.173 138.03 48.162 137.833 48.1518 137.621C48.1426 137.434 48.1331 137.237 48.1529 137.038C48.1713 136.853 48.3809 136.495 48.6553 136.036C48.8253 135.752 49.0198 135.431 49.2106 135.087C49.4533 134.088 49.7287 133.078 50.047 132.067C49.997 131.808 49.8983 131.557 49.7361 131.321C49.6198 131.151 49.4667 130.982 49.3111 130.808C49.0993 130.571 48.8819 130.324 48.7432 130.051C48.635 129.837 48.6417 129.641 48.7621 129.563C48.8182 129.527 48.8978 129.516 48.9699 129.505C49.0524 129.494 49.1258 129.484 49.1447 129.439C49.1582 129.406 49.1284 129.352 49.0929 129.285C49.0362 129.179 48.9636 129.041 49.0212 128.909C49.2352 128.417 49.5423 127.883 49.856 127.365C50.2045 126.788 50.5609 126.231 50.7928 125.754C51.0521 125.218 51.6483 124.584 52.2651 123.976C52.5015 123.742 52.7391 123.513 52.9626 123.289C53.1127 123.154 53.2516 123.02 53.3702 122.887C53.6296 122.597 53.7715 122.203 53.9103 121.817C54.0777 121.353 54.2427 120.897 54.6017 120.652C54.6749 120.601 54.8984 120.627 55.1781 120.659C55.3763 120.682 55.603 120.709 55.8252 120.713C56.1188 120.276 56.4221 119.842 56.7477 119.396C56.7363 119.365 56.7248 119.333 56.7129 119.301C56.7125 119.3 56.7122 119.299 56.7118 119.299C56.4442 118.567 56.0938 117.54 57.0798 117.078C57.3309 116.961 57.6195 116.984 57.8775 117.006C58.1306 117.03 58.359 117.048 58.5009 116.932C58.6617 116.799 58.7078 116.526 58.7679 116.223C58.8497 115.8 58.9651 115.309 59.432 115.099C59.4636 115.085 59.4979 115.07 59.5332 115.054C59.867 114.904 60.3774 114.676 61.058 114.626C62.2201 113.637 63.6587 112.621 65.4653 111.91C66.7874 111.387 68.2885 111.082 69.7178 111.076C70.8228 111.128 71.9225 111.212 73.0147 111.323C73.9687 111.421 74.8956 112.008 75.5528 112.974C76.2117 113.94 76.5541 115.193 76.5539 116.485C76.5568 117.778 76.1971 119.024 75.6195 120.002C75.0394 120.978 74.2878 121.601 73.4952 121.78C72.5858 121.983 71.6842 122.208 70.7915 122.448C70.7592 122.517 70.7609 122.584 70.7653 122.648C70.7706 122.674 70.7762 122.7 70.7816 122.724C70.8199 122.902 70.9504 123.243 71.0981 123.579C71.1316 123.657 71.1653 123.735 71.1977 123.811Z" fill="#120F50"/>
<path d="M73.8318 140.147C73.941 139.373 74.8787 139.134 75.4015 139.002C75.4107 139 75.4199 138.997 75.4291 138.995C75.55 138.965 75.6546 138.917 75.7786 138.859C76.0777 138.719 76.469 138.535 77.464 138.444C77.6853 138.308 77.9277 138.168 78.1546 138.046C80.3864 136.848 82.8276 136.056 85.3068 135.427C85.7072 135.31 86.1135 135.201 86.5248 135.102C86.5643 135.081 86.6044 135.061 86.6449 135.04C87.4282 134.629 88.4715 134.166 89.2059 134.176C90.1383 134.185 90.7641 134.304 91.2648 134.419C92.3835 134.361 93.4069 134.375 94.322 134.379C96.5616 134.189 98.8559 134.722 100.666 135.665C101.649 136.167 102.521 136.766 103.308 137.411C103.475 137.547 103.637 137.686 103.796 137.828C104.287 138.264 104.756 138.719 105.199 139.186C105.62 139.465 106.033 139.728 106.408 139.983C106.933 140.341 107.384 140.684 107.666 141.018C108.354 141.831 108.681 142.946 108.871 143.735C108.902 143.864 108.931 143.986 108.958 144.097C109.3 144.627 109.628 145.15 109.943 145.665C109.911 145.722 109.877 145.779 109.842 145.838C109.4 146.566 109.634 147.122 109.977 147.978C110.127 148.352 110.295 148.778 110.436 149.293C110.527 149.624 110.334 149.883 110.176 150.094C110.13 150.156 110.086 150.214 110.054 150.269C109.945 150.456 110.166 150.524 110.427 150.604C110.767 150.709 111.172 150.828 111.011 151.254C110.705 152.065 110.866 152.461 111.17 152.677C111.214 152.734 111.251 152.954 111.289 153.015C111.477 153.176 111.739 153.262 111.971 153.336C112.14 153.39 112.293 153.438 112.39 153.506C112.706 153.724 112.614 154.203 112.413 154.618C112.252 154.947 112.663 155.365 113.101 155.631C113.266 155.732 113.337 155.921 113.422 156.146C113.51 156.378 113.614 156.647 113.851 156.887C114.452 157.494 114.763 157.817 115.012 158.079C115.083 158.154 115.149 158.224 115.216 158.293C115.381 158.463 115.551 158.675 115.724 158.899C115.772 158.962 115.818 159.201 115.861 159.266C115.917 159.367 115.973 159.471 116.029 159.577C116.332 160.15 116.609 160.768 116.862 161.202C116.97 162.459 116.907 163.532 116.824 164.546C116.779 165.068 116.24 165.602 115.303 166.036C114.366 166.472 113.117 166.769 111.805 166.891C110.493 167.01 109.211 166.947 108.21 166.728C107.21 166.51 106.579 166.163 106.427 165.761C106.122 164.953 105.799 164.203 105.502 163.653C105.352 163.373 105.213 163.149 105.066 162.889L105.197 163.24C104.859 162.631 104.553 162.001 104.297 161.344C103.991 160.56 103.722 159.752 103.49 158.926C103.466 158.841 103.443 158.756 103.42 158.67C102.875 158.098 102.366 157.496 102.11 157.033C101.898 156.652 101.972 156.301 102.037 156.003C102.059 155.907 102.079 155.816 102.088 155.73L102.282 156.285C102.284 156.19 102.272 156.104 102.234 156.028C102.195 155.952 102.133 155.851 102.058 155.73C101.755 155.233 101.253 154.395 101.252 153.497C101.252 153.099 101.359 152.6 101.465 152.133C101.615 151.462 101.757 150.85 101.561 150.646C101.217 150.289 101.177 149.756 101.138 149.293C101.1 148.851 101.062 148.473 100.779 148.38C100.441 148.27 100.455 148.045 100.468 147.711C100.478 147.48 100.487 147.197 100.378 146.88C100.253 146.516 100.28 146.199 100.297 145.927C100.322 145.546 100.325 145.246 99.8801 145.144C99.3869 145.032 99.0015 144.895 98.9 144.618C98.8533 144.491 98.7472 144.392 98.636 144.295C98.5036 144.179 98.3654 144.066 98.2968 143.89C98.2914 143.872 98.287 143.853 98.2835 143.833C98.2565 143.676 98.3382 143.412 98.397 143.172C98.4155 143.097 98.432 143.025 98.4434 142.959C98.3517 142.895 98.2585 142.837 98.1639 142.785C98.1271 142.81 98.0875 142.839 98.047 142.869C97.8429 143.02 97.6101 143.22 97.447 143.298C97.1904 143.423 97.1403 143.249 97.0472 143.058C96.9787 142.912 96.886 142.76 96.7461 142.781C96.6513 142.795 96.5399 142.888 96.447 142.988C96.3058 143.136 96.2106 143.295 96.1139 143.21C96.0777 143.178 96.0257 143.024 95.9661 142.872C95.9657 142.871 95.9654 142.87 95.9651 142.869C95.9611 142.858 95.957 142.848 95.9529 142.838C95.9409 142.847 95.9289 142.855 95.9168 142.864C95.3266 143.094 94.7729 143.328 94.267 143.573C94.2267 143.624 94.1864 143.674 94.1468 143.723C93.9532 143.966 93.7785 144.202 93.7053 144.498C93.6245 144.818 93.3067 145.073 93.006 145.35C92.8084 145.531 92.6151 145.722 92.4841 145.939C92.4081 146.066 92.2525 145.946 92.0858 145.826C91.9317 145.714 91.7683 145.601 91.6691 145.684C91.6198 145.726 91.5847 145.814 91.5472 145.909C91.515 145.992 91.4818 146.08 91.435 146.146C91.3925 146.206 91.2278 146.179 91.0106 146.152C90.8773 146.134 90.7229 146.118 90.5673 146.12C90.5515 146.134 90.5358 146.147 90.5199 146.161C90.155 146.446 89.8119 146.718 89.447 146.996C89.4239 147.169 89.4322 147.375 89.4804 147.621C89.515 147.798 89.5712 148.001 89.6287 148.209C89.7067 148.493 89.7888 148.785 89.8209 149.034C89.8466 149.229 89.8128 149.329 89.7336 149.282C89.6966 149.26 89.6503 149.208 89.6084 149.16C89.5603 149.106 89.5175 149.057 89.5002 149.068C89.4878 149.076 89.4965 149.127 89.5068 149.189C89.5232 149.288 89.5443 149.417 89.494 149.447C89.309 149.558 89.0662 149.636 88.8309 149.711C88.5709 149.794 88.3169 149.876 88.1443 150.006C87.9534 150.151 87.5714 150.139 87.1859 150.132C86.9208 150.125 86.6503 150.122 86.4462 150.17C86.2464 150.217 86.1156 150.401 85.9819 150.584C85.8233 150.804 85.6828 151.009 85.4286 150.962C85.3778 150.951 85.2399 150.798 85.0671 150.607C84.9447 150.471 84.8044 150.316 84.6656 150.178C84.4517 150.293 84.2154 150.411 83.9931 150.515C83.9984 150.543 84.0037 150.571 84.0092 150.6C84.0094 150.601 84.0096 150.601 84.0098 150.602C84.1305 151.261 84.306 152.157 83.7085 151.893C83.5564 151.826 83.3836 151.642 83.2279 151.477C83.0751 151.315 82.9384 151.171 82.8557 151.17C82.7598 151.17 82.7355 151.335 82.7115 151.513C82.6772 151.764 82.6449 152.04 82.391 151.941C82.3738 151.934 82.3552 151.926 82.3361 151.919C82.154 151.849 81.8949 151.741 81.5127 151.445C80.9881 151.603 80.4416 151.753 79.8892 151.893C78.968 152.125 78.0211 152.342 76.9664 152.587C76.4536 152.704 75.669 152.425 74.8622 151.72C74.0456 151.019 73.3983 149.908 73.0144 148.675C72.6268 147.441 72.271 146.245 72.0036 145.299C71.7456 144.352 71.7158 143.688 71.9815 143.382C72.419 142.884 72.9314 142.326 73.4614 141.78C73.4809 141.738 73.5014 141.697 73.5227 141.657C73.6867 141.355 73.7354 140.908 73.7926 140.456C73.8046 140.353 73.8172 140.25 73.8318 140.147Z" fill="#120F50"/>
<path d="M132.618 92.0533C132.563 92.7469 131.58 93.0634 130.853 93.4514C130.841 93.458 130.828 93.4646 130.815 93.4713C130.65 93.5558 130.503 93.6587 130.324 93.7886C130.185 93.8895 130.024 94.0082 129.812 94.1521C129.548 94.3132 129.159 94.5043 128.443 94.8842C128.228 95.1378 128.01 95.4045 127.788 95.6834C125.373 98.7068 123.014 103.195 121.216 107.953C121.204 108.017 121.192 108.081 121.18 108.146C120.94 109.398 120.712 110.96 120.331 111.894C120.119 112.41 119.93 112.858 119.761 113.243C119.539 113.749 119.349 114.157 119.181 114.527C118.289 118.349 118.202 122.021 119.398 125.83C119.764 127.028 120.241 128.248 120.791 129.502C121.108 130.227 121.446 130.963 121.793 131.715C121.894 131.921 122.022 132.133 122.183 132.352C122.529 132.632 122.942 132.875 123.361 133.095C123.951 133.405 124.546 133.667 125.009 133.956C126.114 134.651 127.414 135.762 128.464 136.608C128.634 136.746 128.798 136.877 128.95 136.997C129.911 137.483 130.911 137.973 131.938 138.492C131.977 138.575 132.015 138.662 132.053 138.75C132.345 139.421 132.845 139.917 133.568 140.455C133.878 140.7 134.267 140.924 134.745 141.155C135.281 141.412 135.922 141.677 136.717 141.974C137.229 142.163 137.443 142.491 137.629 142.764C137.683 142.844 137.735 142.918 137.792 142.981C137.985 143.197 138.271 143.069 138.596 142.907C139.021 142.697 139.497 142.43 140.064 142.794C141.931 143.938 142.931 143.212 143.551 142.698C143.741 142.544 143.909 142.404 144.084 142.32C144.653 142.049 145.495 142.205 146.184 142.441C146.725 142.632 147.724 142.223 148.431 141.754C148.695 141.579 149.092 141.495 149.547 141.39C150.029 141.279 150.578 141.144 151.13 140.855C152.514 140.123 153.22 139.701 153.776 139.369C153.94 139.272 154.07 139.189 154.224 139.094C154.493 138.922 154.819 138.732 155.112 138.547L154.855 138.66C154.997 138.551 155.14 138.438 155.278 138.32C155.701 137.962 156.08 137.557 156.304 137.178C156.855 136.862 157.409 136.472 157.958 135.992C158.015 135.902 158.249 135.686 158.314 135.601C159.205 134.837 159.635 134.588 160.112 134.217C160.69 133.785 161.608 133.63 162.739 133.789C163.868 133.951 165.092 134.444 166.133 135.253C167.168 136.065 167.947 137.142 168.235 138.326C168.528 139.502 168.279 140.7 167.552 141.581C166.991 142.271 166.311 142.988 166.083 143.333L166.384 143.003C165.536 144.213 164.527 145.379 163.353 146.419C162.245 147.403 160.991 148.268 159.652 148.957C159.601 148.973 159.456 149.051 159.403 149.065C158.056 149.684 156.779 150.158 155.448 150.561C153.704 151.086 151.931 151.491 150.116 151.775C149.927 151.805 149.741 151.832 149.554 151.859C148.093 152.448 146.552 152.926 145.429 153.117C144.501 153.276 143.8 153.129 143.208 152.995C142.8 152.902 142.439 152.813 142.074 152.824C141.878 152.83 141.609 152.846 141.282 152.859C139.959 152.923 137.596 152.896 135.518 152.079C134.602 151.725 133.58 151.141 132.658 150.514C131.33 149.622 130.235 148.639 129.557 148.363C129.273 148.249 128.991 148.106 128.714 147.939C128.08 147.568 127.465 147.046 126.886 146.565C126.163 145.966 125.502 145.432 124.977 145.371C124.347 145.297 123.976 144.948 123.418 144.417C123.03 144.046 122.552 143.592 121.826 143.048C120.987 142.417 120.468 141.818 120.037 141.298C119.428 140.557 118.996 140 117.978 139.463C116.844 138.864 115.721 137.891 115.162 136.811C114.906 136.325 114.579 135.777 114.285 135.156C114.267 135.119 114.25 135.082 114.233 135.045C113.99 134.533 113.738 133.991 113.618 133.433C113.515 132.953 113.587 132.48 113.653 132.062C113.673 131.932 113.693 131.806 113.706 131.687C113.549 131.329 113.391 130.968 113.232 130.603C113.169 130.559 113.102 130.513 113.031 130.465C112.678 130.224 112.243 129.92 111.91 129.447C111.381 128.697 111.252 127.889 111.147 127.038C111.065 126.373 110.997 125.683 110.768 124.924C110.611 124.403 110.379 123.824 110.166 123.234C109.849 122.361 109.582 121.47 109.614 120.828C109.626 120.59 109.768 120.374 109.911 120.162C109.912 120.161 109.913 120.16 109.914 120.159C109.923 120.145 109.933 120.131 109.943 120.116C109.699 118.614 109.551 117.101 109.484 115.597C109.449 115.467 109.416 115.335 109.384 115.202C109.226 114.55 109.091 113.922 108.862 113.495C108.684 113.162 108.606 112.495 108.582 111.703C108.57 111.408 108.567 111.078 108.565 110.758C108.562 110.003 108.573 109.233 108.529 108.586C108.504 108.207 108.733 107.901 108.972 107.583C109.193 107.295 109.425 106.991 109.464 106.624C109.484 106.439 109.462 106.228 109.439 106.001C109.418 105.801 109.397 105.594 109.405 105.379C109.413 105.179 109.602 104.78 109.853 104.268C110.008 103.952 110.185 103.598 110.359 103.219C110.55 102.149 110.773 101.079 111.037 100.008C110.973 99.7445 110.86 99.4939 110.684 99.2634C110.558 99.0985 110.395 98.9375 110.229 98.7713C110.003 98.5451 109.771 98.3092 109.616 98.0398C109.495 97.8293 109.49 97.6292 109.605 97.5398C109.659 97.4981 109.739 97.4803 109.81 97.4641C109.892 97.4457 109.965 97.4293 109.981 97.3817C109.993 97.3473 109.96 97.2943 109.92 97.2294C109.857 97.1257 109.776 96.9906 109.825 96.8509C110.009 96.3319 110.283 95.763 110.563 95.2083C110.875 94.591 111.195 93.9914 111.397 93.4823C111.621 92.9122 112.178 92.2069 112.766 91.5155C113.173 91.0347 113.596 90.5575 113.92 90.1247C114.237 89.6994 114.446 89.1789 114.668 88.6693C114.931 88.0602 115.214 87.466 115.676 87.1218C115.769 87.0524 116.013 87.0627 116.316 87.0803C116.531 87.0926 116.776 87.1088 117.02 87.1019C117.449 86.5643 117.908 86.0401 118.398 85.5336C118.395 85.497 118.393 85.4595 118.39 85.4213C118.389 85.4205 118.389 85.4198 118.389 85.419C118.316 84.5658 118.304 83.3188 119.572 82.8987C119.892 82.7947 120.199 82.8573 120.471 82.9171C120.562 82.9371 120.649 82.9568 120.732 82.9701C120.874 83.0125 121.002 83.0293 121.108 82.978C121.289 82.8914 121.391 82.6405 121.511 82.3624C121.68 81.9729 121.89 81.5265 122.379 81.4278C122.413 81.4211 122.449 81.4142 122.486 81.4064C122.838 81.3344 123.372 81.2258 124.034 81.3209C125.33 80.6037 126.803 79.9338 128.487 79.484C130.209 79.0206 132.188 78.8221 134.125 79.1079C135.013 79.2649 135.911 79.4661 136.827 79.7342C137.988 80.0709 139.041 81.0004 139.483 82.2107C139.939 83.4261 139.722 84.7409 139.138 85.8889C138.552 87.042 137.721 88.0174 137.006 88.7879C136.279 89.5523 135.68 90.0137 135.067 90.0532C134.584 90.0831 134.067 90.14 133.526 90.2198C133.342 90.3272 133.178 90.4551 132.968 90.6155C132.95 90.6472 132.932 90.6784 132.914 90.7083C132.775 90.9316 132.704 91.3438 132.653 91.7634C132.641 91.86 132.63 91.9573 132.618 92.0533Z" fill="#120F50"/>
<path d="M208.974 86.4795C208.652 86.536 208.295 86.5074 207.923 86.4326C207.181 86.3108 206.504 86.0071 206.09 85.8667C206.08 85.8632 206.069 85.8598 206.058 85.8564C205.922 85.8092 205.791 85.7914 205.645 85.7775C205.274 85.7617 204.91 85.6698 203.78 85.603C203.482 85.7161 203.172 85.8522 202.843 86.0174C201.28 86.7931 199.716 88.1173 197.012 90.6015C197.195 90.3501 197.076 90.281 196.864 90.6645C196.653 91.0321 196.398 91.7418 196.156 92.6388C196.05 92.8304 195.972 92.9362 195.936 93.164C195.902 93.3864 195.942 93.7459 196.132 94.2182C196.153 94.2682 196.174 94.3177 196.196 94.3668C196.224 94.4053 196.254 94.4438 196.284 94.4823C196.85 95.2316 197.869 96.0171 198.629 96.7559C199.571 97.6942 200.464 98.3911 201.21 98.9719C203.557 100.323 206.38 101.237 209.883 103.589C212.483 105.493 215.062 107.583 217.445 109.89C218.936 111.329 220.342 112.836 221.672 114.349C221.863 114.566 222.051 114.781 222.239 114.999C223.468 116.418 224.488 118.01 225.282 119.643C225.933 120.721 226.484 121.771 226.939 122.748C227.578 124.123 228.032 125.35 228.289 126.355C228.729 128.076 228.886 129.9 228.992 131.359C229.096 132.349 229.074 133.251 229.004 134.032C228.964 134.471 228.909 134.874 228.85 135.239C228.726 137.288 228.298 139.131 227.768 140.847C227.679 140.942 227.586 141.036 227.492 141.13C227.373 141.248 227.259 141.368 227.149 141.495C226.025 142.948 224.874 145.072 222.287 146.984C221.056 147.89 219.552 148.668 217.855 149.221C216.761 149.573 216.145 149.45 215.657 149.355C215.513 149.326 215.379 149.299 215.246 149.282C214.797 149.223 214.415 149.503 213.958 149.825C213.369 150.242 212.642 150.732 211.587 150.611C208.261 150.2 207.103 151.033 206.218 151.705C205.962 151.9 205.734 152.076 205.492 152.198C205.184 152.353 204.813 152.448 204.426 152.503C203.447 152.674 202.361 152.618 201.501 152.424C200.377 152.21 198.189 152.161 196.579 151.924C195.968 151.848 195.209 151.56 194.392 151.174C193.544 150.776 192.635 150.276 191.665 149.831C189.234 148.692 188.192 148.068 187.338 147.641C187.1 147.519 186.885 147.41 186.673 147.308C186.499 147.224 186.318 147.135 186.141 147.051C185.666 146.797 184.76 145.703 184.437 145.271C184.009 144.713 183.548 144.08 183.087 143.435C182.336 142.384 181.588 141.307 180.963 140.501C179.841 138.126 178.803 135.772 177.848 132.973C177.66 132.407 177.542 131.801 177.494 131.05C177.486 131.031 177.472 130.968 177.464 130.948C177.509 130.07 177.773 129.266 178.213 128.563C178.93 127.427 180.045 126.638 181.322 126.316C182.6 125.995 183.957 126.187 185.119 126.801C185.836 127.178 186.44 127.694 186.895 128.248L186.87 128.164C187.105 128.326 187.341 128.642 187.529 128.992C188.556 130.909 189.907 133.017 191.241 135.071C192.182 136.515 193.142 137.962 194.097 139.424L192.402 137.654C193.727 138.488 194.799 139.265 195.794 139.954C197.416 141.09 198.84 141.943 199.97 142.344C200.086 142.386 200.199 142.424 200.309 142.458C201.201 142.377 201.693 142.061 202.1 141.845C202.266 141.793 202.426 141.745 202.578 141.701C203.735 141.373 204.588 141.401 205.303 141.427C205.795 141.446 206.223 141.466 206.633 141.384C206.853 141.34 207.152 141.271 207.505 141.189C208.956 140.85 211.285 140.317 213.109 140.15C213.927 140.077 214.831 140.071 215.598 140.007C216.697 139.927 217.51 139.699 217.68 139.363C217.915 138.904 218.225 138.57 218.544 138.066C218.658 137.855 218.768 137.648 218.871 137.448C219.36 136.503 219.678 135.681 219.547 135.189C219.388 134.607 219.549 134.21 219.714 133.633C219.785 133.379 219.853 133.094 219.868 132.777C219.849 132.43 219.822 132.053 219.782 131.651C219.653 130.353 219.703 129.476 219.729 128.73C219.766 127.692 219.776 126.903 219.207 125.941C218.573 124.874 217.979 123.892 217.7 123.067C217.574 122.688 217.355 122.295 217.107 121.911C216.779 121.4 216.405 120.909 216.128 120.393C216.11 120.36 216.094 120.327 216.078 120.294C215.809 119.807 215.682 119.311 215.565 118.868C215.525 118.718 215.486 118.574 215.444 118.44C215.116 118.086 214.785 117.738 214.447 117.4C214.364 117.372 214.274 117.346 214.182 117.318C213.716 117.178 213.147 117.017 212.591 116.684C211.71 116.157 211.161 115.476 210.546 114.762C210.069 114.208 209.551 113.636 208.828 113.145C208.334 112.811 207.721 112.495 207.106 112.193C206.351 111.822 205.591 111.47 205.047 111.102C204.975 111.052 204.905 110.998 204.839 110.94C204.7 110.815 204.626 110.59 204.542 110.365C204.542 110.364 204.542 110.363 204.541 110.361C204.536 110.346 204.53 110.331 204.524 110.316C203.22 109.771 201.551 109.297 199.786 108.755C199.621 108.734 199.456 108.712 199.289 108.689C198.479 108.579 197.661 108.444 197.059 108.475C196.409 108.509 194.96 108.065 193.357 107.351C192.31 106.889 191.207 106.299 190.272 105.771C189.724 105.464 189.367 104.943 189.032 104.397C188.718 103.885 188.422 103.352 187.959 102.89C187.725 102.656 187.446 102.432 187.15 102.172C186.89 101.946 186.621 101.699 186.368 101.408C186.233 101.252 186.051 100.947 185.846 100.528C185.7 100.229 185.541 99.8701 185.381 99.461C185.142 98.8514 184.9 98.1292 184.693 97.3369C183.872 95.3463 183.52 92.9117 183.813 90.6549C183.797 90.537 183.78 90.4216 183.76 90.3087C183.677 90.0662 183.566 89.8375 183.421 89.631C183.283 89.4359 183.11 89.2531 182.934 89.0609C182.696 88.7988 182.452 88.5204 182.295 88.1548C182.173 87.8694 182.178 87.5515 182.308 87.3673C182.369 87.2817 182.455 87.2266 182.532 87.1764C182.622 87.1188 182.701 87.0678 182.724 86.9833C182.741 86.9224 182.712 86.8445 182.678 86.7479C182.625 86.5939 182.557 86.3898 182.64 86.1266C182.949 85.1513 183.468 83.9462 184.26 82.7014C184.918 81.6599 185.783 80.6137 186.672 79.7684C186.757 79.687 186.849 79.5918 186.934 79.4951C187.319 79.0635 188.181 78.4514 189.135 77.8016C189.801 77.3471 190.513 76.8784 191.113 76.443C191.701 76.0149 192.252 75.4502 192.829 74.9111C193.521 74.2637 194.268 73.648 195.062 73.381C195.223 73.327 195.504 73.3985 195.847 73.4981C196.091 73.5684 196.37 73.6514 196.665 73.7125C197.578 73.2536 198.555 72.854 199.578 72.5393C199.605 72.5019 199.633 72.4638 199.662 72.4251C199.663 72.4243 199.663 72.4235 199.663 72.4227C200.292 71.5578 201.405 70.3382 203.302 70.6494C203.774 70.7318 204.076 70.9564 204.344 71.1604C204.609 71.3614 204.827 71.545 205.144 71.5796C205.505 71.6191 205.926 71.4896 206.395 71.3671C207.06 71.1946 207.818 71.0395 208.498 71.3541C208.544 71.3755 208.594 71.399 208.645 71.423C209.141 71.6507 209.835 72.0096 210.428 72.6202C211.199 72.8622 211.941 73.1452 212.667 73.4652C213.701 73.9312 214.708 74.45 215.682 75.0183C218.32 76.5652 220.746 78.4291 222.908 80.801C223.96 81.9567 224.575 83.6053 224.406 85.1331C224.252 86.6807 223.278 87.7535 222.071 88.1914C220.857 88.6394 219.603 88.8459 218.529 88.9881C217.449 89.11 216.549 88.9837 215.805 88.4909C214.594 87.6843 213.139 86.9617 211.646 86.39C211.56 86.3738 211.472 86.3564 211.388 86.3393C210.756 86.2092 210.08 86.2898 209.424 86.4007C209.273 86.4263 209.123 86.4535 208.974 86.4795Z" fill="#120F50"/>
<path d="M274.753 113.334C273.602 113.408 272.404 112.507 272.06 112.238C272.053 112.233 272.045 112.228 272.038 112.222C271.957 112.157 271.882 112.12 271.822 112.091C271.806 112.085 271.791 112.079 271.776 112.073C271.231 111.872 270.502 111.588 269.111 110.781C268.67 110.671 268.236 110.563 267.806 110.456C264.56 109.635 261.462 109.037 258.016 108.743C258.391 108.689 259.207 108.331 259.487 107.97C259.789 107.617 259.644 107.526 259.429 107.744C259.42 107.767 259.41 107.791 259.4 107.818C259.188 108.32 258.828 109.661 258.365 110.535C257.766 111.648 257.283 112.535 256.858 113.265C256.422 114.428 255.975 115.675 255.286 117.119C253.937 119.623 252.957 122.492 252.251 125.572C251.949 126.881 251.692 128.231 251.458 129.616C251.372 130.121 251.289 130.632 251.205 131.147C251.083 131.893 250.973 132.646 250.873 133.403C250.887 134.152 250.936 134.87 250.982 135.538C251.046 136.477 251.106 137.316 251.063 137.996C250.961 139.636 250.456 141.452 250.072 142.809C250.01 143.029 249.951 143.24 249.897 143.434C249.809 144.546 249.721 145.666 249.622 146.799C249.558 146.865 249.492 146.931 249.425 146.998C248.79 147.629 248.524 148.451 248.271 149.625C248.381 149.168 248.249 148.389 248.073 148.094C247.839 147.677 247.892 147.879 248.383 148.292C248.494 148.394 248.615 148.5 248.744 148.611C249.097 148.909 249.174 149.271 249.249 149.576C249.271 149.665 249.294 149.749 249.324 149.823C249.428 150.078 249.725 150.031 250.067 149.961C250.515 149.871 251.022 149.738 251.456 150.238C252.914 151.84 254.121 151.446 254.902 151.152C255.14 151.065 255.356 150.985 255.563 150.963C256.23 150.891 257.069 151.338 257.699 151.822C258.195 152.205 259.391 152.232 260.39 152.167C260.767 152.142 261.242 152.268 261.821 152.441C262.242 152.567 262.727 152.721 263.271 152.866L262.166 152.609C262.356 152.609 262.551 152.602 262.751 152.583C264.48 152.424 265.39 152.357 266.121 152.302C266.33 152.287 266.523 152.273 266.717 152.257C267.329 152.209 268.082 152.195 268.84 152.179C269.747 152.161 270.662 152.138 271.36 152.051C273.071 152.378 274.762 152.724 276.433 153.028C276.531 153.021 276.821 153.079 276.919 153.08C276.983 153.095 277.047 153.11 277.11 153.125C278.41 153.439 279.745 154.406 280.515 155.936C281.351 157.452 281.04 159.462 279.761 159.929C278.502 160.39 277.594 161.351 277.099 162.191C276.559 163.003 276.059 163.452 275.445 163.46C275.415 163.46 275.385 163.461 275.355 163.461L275.763 163.505C273.832 163.586 271.921 163.62 270.033 163.597C267.677 163.568 265.357 163.45 263.074 163.199C262.394 163.125 261.718 163.045 261.043 162.961C260.771 162.894 259.964 162.782 259.715 162.652C259.109 162.416 258.369 162.173 257.572 161.93C257.428 161.886 257.284 161.842 257.137 161.798C255.847 161.804 254.441 161.78 253.434 161.633C252.602 161.514 252.03 161.181 251.541 160.89C251.203 160.689 250.903 160.507 250.566 160.419C250.385 160.372 250.133 160.315 249.826 160.24C248.591 159.944 246.315 159.311 244.421 157.817C243.696 157.247 242.928 156.452 242.258 155.584C242.183 155.477 242.099 155.362 242.01 155.24C241.513 154.548 240.783 153.644 240.187 152.305C239.557 150.979 239.442 149.21 239.568 148.249C239.577 148.141 239.59 148.031 239.606 147.923C239.62 147.007 239.957 146.002 240.251 145.098C240.54 144.207 240.786 143.417 240.643 142.924C240.471 142.334 240.65 141.88 240.915 141.203C241.099 140.734 241.323 140.155 241.501 139.347C241.705 138.413 241.988 137.771 242.229 137.224C242.568 136.455 242.824 135.876 242.662 134.927C242.483 133.871 242.437 132.784 242.679 131.968C242.789 131.595 242.849 131.16 242.914 130.704C242.96 130.381 243.008 130.046 243.077 129.723C243.135 129.456 243.207 129.193 243.307 128.945C243.483 128.504 243.8 128.164 244.08 127.862C244.168 127.768 244.252 127.677 244.327 127.588C244.386 127.217 244.445 126.843 244.501 126.467C244.471 126.4 244.437 126.328 244.402 126.254C244.227 125.88 244.013 125.417 243.964 124.875C243.886 124.018 244.163 123.316 244.467 122.579C244.704 122.005 244.956 121.409 245.078 120.682C245.162 120.186 245.196 119.603 245.24 119.02C245.306 118.154 245.4 117.286 245.67 116.743C245.771 116.54 245.982 116.404 246.193 116.273C246.194 116.273 246.195 116.272 246.196 116.272C246.211 116.263 246.225 116.254 246.239 116.245C246.428 115.436 246.639 114.624 246.876 113.812C246.967 113.424 247.053 112.97 247.132 112.485C247.121 112.379 247.11 112.269 247.099 112.161C247.045 111.634 246.988 111.093 246.81 110.697C246.618 110.271 246.675 109.319 246.776 108.211C246.842 107.488 246.933 106.7 246.978 106.002C247.003 105.596 247.282 105.272 247.578 104.942C247.856 104.631 248.148 104.312 248.283 103.875C248.353 103.653 248.39 103.391 248.44 103.107C248.486 102.85 248.541 102.578 248.639 102.295C248.735 102.03 249.095 101.52 249.699 100.837C250.072 100.419 250.543 99.9335 251.133 99.4239C252.413 97.8698 254.947 96.4473 257.236 96.2609C257.418 96.1909 257.593 96.1201 257.759 96.0461C257.882 95.9337 257.991 95.8045 258.086 95.6558C258.197 95.4808 258.291 95.2723 258.389 95.0595C258.524 94.7699 258.666 94.4708 258.864 94.2331C259.019 94.0472 259.204 93.974 259.327 94.0522C259.385 94.0886 259.428 94.1568 259.468 94.2185C259.513 94.2892 259.553 94.3521 259.603 94.351C259.638 94.35 259.676 94.3008 259.723 94.2413C259.797 94.1463 259.897 94.0238 260.044 94.0225C260.588 94.0172 261.215 94.0792 261.822 94.1518C262.5 94.2322 263.162 94.3256 263.696 94.3375C264.295 94.3501 265.125 94.6253 265.94 94.9248C266.509 95.1332 267.071 95.3518 267.559 95.4898C268.035 95.6246 268.559 95.6197 269.065 95.6215C269.673 95.6236 270.259 95.6366 270.692 95.9058C270.779 95.9602 270.851 96.1831 270.938 96.462C271 96.6597 271.069 96.8859 271.157 97.1008C271.739 97.2468 272.313 97.4091 272.876 97.5844C272.904 97.5639 272.932 97.5432 272.96 97.5219C272.961 97.5214 272.961 97.5209 272.962 97.5203C273.599 97.0393 274.503 96.3953 275.231 97.1694C275.414 97.3659 275.48 97.6433 275.538 97.8924C275.594 98.1371 275.643 98.3559 275.79 98.4464C275.93 98.5333 276.133 98.5062 276.361 98.4597C276.418 98.457 276.476 98.4539 276.535 98.4509C277.081 98.4239 277.674 98.4145 278.048 98.8043C278.074 98.8309 278.101 98.8599 278.13 98.8895C278.4 99.1693 278.766 99.5818 278.985 100.186C280.158 100.895 281.121 101.6 281.977 102.227C282.685 102.748 283.324 103.218 283.792 103.55C284.241 103.906 284.553 103.969 283.937 104.16C283.534 104.284 283.018 104.967 283.286 105.411C282.729 106.031 282.374 107.231 282.483 107.921C282.563 108.634 282.784 108.933 282.929 109.111C283.238 109.44 283.416 109.364 283.559 109.288C284.252 108.589 284.658 107.227 285.619 106.361C286.578 105.516 287.508 104.571 289.138 105.013C289.439 105.147 289.789 105.302 290.256 105.991C290.477 106.353 290.779 106.873 290.863 107.91C290.985 108.919 290.473 110.55 289.668 111.416C289.132 112.744 287.319 114.194 285.522 114.508C281.092 115.117 279.344 113.911 277.545 113.408C277.448 113.39 277.352 113.371 277.257 113.35C276.559 113.199 275.866 113.238 275.203 113.294C275.051 113.307 274.901 113.321 274.753 113.334Z" fill="#120F50"/>
<path d="M255.351 120.95C255.717 120.396 256.116 120.745 256.329 120.936C256.333 120.94 256.337 120.943 256.341 120.946C256.392 120.992 256.448 121.013 256.508 121.037C256.651 121.092 256.86 121.171 257.189 121.654C257.315 121.669 257.445 121.691 257.565 121.719C258.894 122.034 260.073 122.853 261.217 123.77C261.234 123.771 261.251 123.772 261.269 123.773C261.608 123.79 262.029 123.813 262.225 124.095C262.476 124.453 262.629 124.765 262.751 125.033C263.652 125.767 264.561 126.45 265.532 126.878C265.836 127.012 266.146 127.121 266.463 127.198C266.755 127.27 267.053 127.322 267.353 127.357C267.555 127.267 267.754 127.151 267.938 127.042C268.197 126.891 268.428 126.756 268.595 126.734C269.001 126.682 269.366 127.005 269.639 127.245C269.683 127.284 269.725 127.321 269.764 127.353C269.984 127.334 270.205 127.31 270.422 127.283L270.321 127.261C270.376 127.255 270.43 127.25 270.485 127.245C270.493 127.3 270.501 127.356 270.509 127.414C270.609 128.139 270.903 128.194 271.379 128.297C271.585 128.342 271.827 128.397 272.097 128.521C272.271 128.601 272.292 128.89 272.307 129.125C272.312 129.194 272.316 129.259 272.323 129.312C272.349 129.495 272.474 129.341 272.626 129.161C272.821 128.926 273.066 128.648 273.165 128.998C273.473 130.11 273.93 129.581 274.314 129.191C274.426 129.077 274.528 128.974 274.612 128.928C274.883 128.776 275.075 129.104 275.151 129.486C275.214 129.789 275.628 129.693 276.024 129.524C276.172 129.459 276.307 129.52 276.465 129.597C276.63 129.677 276.82 129.774 277.096 129.772C277.796 129.77 278.204 129.844 278.53 129.907C278.624 129.926 278.711 129.946 278.8 129.966C279.084 130.031 279.416 130.168 279.769 130.349C279.81 130.37 279.852 130.392 279.894 130.414C280.452 130.537 280.953 132.185 281.404 132.535C282.017 133.693 282.211 135.027 282.272 135.847C281.826 138.224 280.961 138.895 280.447 139.462C280.16 139.736 279.511 139.644 278.603 139.253C277.694 138.86 276.592 138.221 275.495 137.492C274.398 136.762 273.393 135.978 272.658 135.322C271.924 134.666 271.513 134.21 271.467 134.083C271.423 133.956 271.333 133.883 271.184 133.977C271.043 134.074 270.804 134.355 270.68 135.05C270.589 135.549 270.625 136.293 270.858 136.955L272.267 138.934C272.221 139.04 272.144 139.061 272.047 139.002C271.951 138.942 271.816 138.833 271.655 138.696C271.638 138.682 271.622 138.667 271.604 138.652C271.308 138.873 271.025 139.076 270.859 139.125C270.723 139.166 270.702 138.974 270.679 138.809C270.663 138.695 270.648 138.594 270.596 138.591C270.568 138.59 270.527 138.597 270.478 138.606C270.274 138.641 269.931 138.707 269.723 138.319C269.63 138.147 269.547 137.838 269.458 137.541C269.331 137.118 269.194 136.723 269.059 136.802C268.823 136.941 268.636 136.734 268.464 136.552C268.436 136.522 268.408 136.493 268.381 136.466C268.367 136.454 268.305 136.458 268.292 136.446C268.141 136.309 268.004 136.225 267.87 136.38C267.677 136.605 267.59 136.474 267.46 136.281C267.37 136.147 267.256 135.982 267.077 135.884C266.871 135.771 266.756 135.554 266.658 135.37C266.523 135.111 266.421 134.917 266.139 135.162C265.826 135.434 265.533 135.584 265.366 135.434C265.289 135.365 265.188 135.352 265.081 135.339C264.94 135.322 264.791 135.303 264.687 135.153C264.603 135.029 264.574 134.759 264.549 134.519C264.541 134.445 264.533 134.374 264.524 134.31C264.437 134.292 264.35 134.276 264.261 134.262C264.237 134.298 264.212 134.339 264.185 134.381C264.052 134.591 263.889 134.849 263.737 134.961C263.497 135.137 263.368 134.958 263.233 134.768C263.128 134.621 263.019 134.467 262.849 134.47C262.734 134.473 262.585 134.544 262.438 134.614C262.219 134.718 262.003 134.821 261.902 134.696C261.864 134.65 261.863 134.484 261.861 134.319C261.861 134.318 261.861 134.317 261.861 134.316C261.861 134.305 261.861 134.294 261.861 134.283C261.529 134.327 261.193 134.382 260.856 134.445C260.82 134.479 260.784 134.512 260.748 134.544C260.572 134.702 260.401 134.856 260.255 135.098C260.097 135.361 259.835 135.471 259.558 135.588C259.377 135.664 259.192 135.743 259.023 135.869C258.925 135.942 258.894 135.764 258.861 135.58C258.831 135.409 258.8 135.233 258.714 135.253C258.671 135.263 258.613 135.319 258.551 135.38C258.496 135.433 258.439 135.489 258.385 135.519C258.336 135.547 258.268 135.437 258.181 135.297C258.127 135.211 258.066 135.114 257.998 135.029C257.749 135.074 257.504 135.116 257.26 135.151C257.179 135.28 257.094 135.453 257.005 135.68C256.94 135.843 256.872 136.04 256.801 136.241C256.706 136.514 256.607 136.797 256.512 137.018C256.438 137.192 256.385 137.255 256.379 137.174C256.376 137.136 256.384 137.068 256.391 137.007C256.399 136.937 256.406 136.874 256.396 136.873C256.388 136.873 256.369 136.92 256.346 136.976C256.309 137.066 256.261 137.182 256.232 137.179C256.124 137.17 256.013 137.102 255.906 137.036C255.786 136.962 255.672 136.89 255.561 136.902C255.437 136.914 255.32 136.696 255.204 136.479C255.123 136.327 255.038 136.175 254.954 136.102C254.872 136.029 254.75 136.105 254.634 136.18C254.491 136.269 254.354 136.355 254.299 136.175C254.288 136.139 254.311 135.939 254.34 135.688C254.36 135.511 254.383 135.308 254.399 135.119C254.284 135.092 254.163 135.055 254.049 135.013C254.039 135.038 254.028 135.064 254.017 135.091C254.017 135.091 254.017 135.092 254.017 135.092C253.774 135.69 253.449 136.508 253.379 135.959C253.362 135.819 253.388 135.575 253.411 135.354C253.433 135.138 253.453 134.945 253.428 134.897C253.4 134.844 253.325 134.962 253.244 135.092C253.128 135.272 252.998 135.475 252.967 135.252C252.965 135.236 252.963 135.22 252.96 135.203C252.937 135.044 252.903 134.81 252.919 134.357C252.693 134.184 252.482 133.994 252.267 133.792C251.914 133.456 251.575 133.09 251.241 132.73C251.081 132.555 251.022 131.927 251.054 130.946C251.088 129.965 251.216 128.72 251.426 127.444C251.637 126.169 251.927 124.951 252.273 124.025C252.62 123.1 252.97 122.547 253.237 122.455C253.681 122.308 254.1 122.16 254.52 122.034C254.546 122.012 254.571 121.991 254.597 121.971C254.78 121.825 254.988 121.498 255.203 121.172C255.252 121.098 255.302 121.023 255.351 120.95Z" fill="#120F50"/>
<path d="M21.1812 84.557C21.5636 83.8863 22.4444 84.0488 22.9136 84.1454C22.922 84.1469 22.9305 84.1484 22.9389 84.1499C23.0487 84.1727 23.1515 84.1718 23.2735 84.1702C23.5595 84.1671 23.9458 84.1625 24.7615 84.4958C24.9848 84.4642 25.2201 84.4389 25.4404 84.4232C26.5435 84.3448 27.6436 84.3845 28.7351 84.4991C28.772 84.4851 28.895 84.5044 28.9323 84.4914C30.2465 84.6676 31.5644 84.9534 32.8683 85.2793C32.8982 85.2758 32.9287 85.2723 32.9595 85.2687C33.5572 85.1992 34.2946 85.1164 34.7618 85.3416C35.3529 85.6277 35.7521 85.8951 36.0823 86.1261C37.9655 86.6278 39.8381 87.0967 41.7172 87.3312C42.3062 87.4047 42.8963 87.4548 43.4875 87.4765C44.0328 87.4965 44.5789 87.4993 45.1271 87.4877C45.4522 87.3678 45.7622 87.2228 46.0528 87.0894C46.4588 86.9019 46.8259 86.7373 47.1214 86.6945C47.8384 86.5912 48.6267 86.8759 49.2133 87.0929C49.3086 87.1282 49.3983 87.1618 49.4828 87.1915C49.9664 87.1454 50.452 87.0968 50.9414 87.0506C50.9688 87.1049 50.9962 87.1614 51.0239 87.2194C51.1407 87.4638 51.2742 87.6303 51.4295 87.7466C51.7413 87.9752 52.1364 88.0103 52.6611 88.0641C53.0082 88.0998 53.4081 88.1435 53.8726 88.2569C54.1701 88.3299 54.2908 88.6225 54.3838 88.8604C54.4115 88.9304 54.4372 88.9959 54.465 89.0498C54.5599 89.2347 54.7157 89.0731 54.8986 88.8827C55.1341 88.6355 55.4274 88.3407 55.6883 88.6915C56.5147 89.8099 57.0525 89.2473 57.4782 88.822C57.6012 88.6973 57.7163 88.5855 57.8205 88.5314C58.1583 88.356 58.5308 88.6719 58.7748 89.0538C58.9691 89.3562 59.5124 89.2157 59.9593 88.9878C60.1284 88.9016 60.3193 88.9427 60.5453 88.9935C60.7777 89.0456 61.0471 89.1081 61.3647 89.0461C62.1704 88.8906 62.5942 88.8302 62.9334 88.7809C63.03 88.767 63.1201 88.7549 63.2102 88.7415C63.495 88.6988 63.8351 88.6931 64.1771 88.6883C64.5865 88.6826 64.9987 88.6776 65.3284 88.6098C66.0304 88.9776 66.7051 89.3817 67.3691 89.7805C67.7092 89.9863 67.8993 90.6541 67.896 91.665C67.891 92.6762 67.6982 93.942 67.3447 95.2111C66.9913 96.4803 66.4995 97.6629 65.9689 98.5266C65.4376 99.3892 64.9113 99.8555 64.5066 99.8495C63.6903 99.8349 62.8842 99.8214 62.1041 99.7751C61.1532 99.7184 60.2421 99.6137 59.3801 99.3928C58.7768 99.2381 58.1871 99.0619 57.6037 98.8707C57.5432 98.851 57.4835 98.8309 57.4238 98.8109C56.8505 99.0142 56.2993 99.2002 55.9308 99.2338C55.6283 99.2617 55.4524 99.0519 55.2999 98.8725C55.1945 98.7491 55.1006 98.6401 54.9874 98.6341C54.9264 98.6309 54.8413 98.6359 54.7381 98.6421C54.3191 98.6672 53.6141 98.719 53.0315 98.3151C52.7728 98.1355 52.4864 97.8165 52.2026 97.5132C51.8037 97.0802 51.4157 96.6807 51.1865 96.764C50.9628 96.8458 50.7378 96.8183 50.5112 96.7464C50.3363 96.69 50.1623 96.6062 49.9955 96.5272C49.6399 96.3569 49.3177 96.21 49.1162 96.4133C48.8737 96.6562 48.6901 96.534 48.4217 96.3545C48.2345 96.23 48.0006 96.0781 47.6759 96.0014C47.2977 95.9128 47.0417 95.7125 46.8194 95.5422C46.5079 95.3027 46.2717 95.1233 45.8891 95.4071C45.4654 95.7225 45.0319 95.9165 44.7023 95.7945C44.5515 95.7388 44.3778 95.7429 44.1956 95.7475C43.9544 95.7536 43.7012 95.7604 43.4747 95.6303C43.288 95.5231 43.1394 95.2618 43.0076 95.0307C42.9665 94.9585 42.927 94.8897 42.8884 94.8291C42.7357 94.827 42.5828 94.8267 42.4298 94.8294C42.4037 94.8697 42.3763 94.9145 42.3477 94.9606C42.2042 95.1923 42.0284 95.4765 41.8177 95.6148C41.4843 95.8336 41.202 95.6831 40.9024 95.524C40.6691 95.4001 40.4265 95.2713 40.1432 95.3097C39.95 95.3359 39.7294 95.4362 39.5107 95.5359C39.1848 95.684 38.8666 95.8307 38.6458 95.7314C38.5633 95.6942 38.4942 95.5327 38.4257 95.372C38.4254 95.371 38.4251 95.3701 38.4248 95.3691C38.4202 95.3582 38.4155 95.3475 38.4109 95.3367C37.8706 95.4522 37.3285 95.5822 36.7901 95.7212C36.7435 95.7622 36.6957 95.8027 36.6486 95.8425C36.4181 96.0372 36.1961 96.2266 36.0518 96.4964C35.8924 96.7887 35.5028 96.9581 35.0867 97.1381C34.8162 97.256 34.5364 97.3782 34.3084 97.5415C34.175 97.637 34.0505 97.4721 33.9171 97.3022C33.7938 97.1437 33.6674 96.9811 33.5316 97.0225C33.4633 97.0433 33.3917 97.1123 33.312 97.1863C33.2425 97.2514 33.1693 97.3204 33.0928 97.3629C33.0211 97.4024 32.864 97.3137 32.6577 97.2012C32.5298 97.1316 32.3854 97.0532 32.2352 96.9892C31.8381 97.0972 31.4424 97.2019 31.0477 97.3006C30.9683 97.4471 30.9004 97.6366 30.847 97.8794C30.809 98.0536 30.7779 98.2615 30.7462 98.4741C30.703 98.7634 30.6586 99.0624 30.5948 99.3014C30.545 99.4881 30.4839 99.5633 30.4405 99.487C30.4203 99.4514 30.404 99.384 30.3892 99.323C30.3719 99.2531 30.3562 99.1909 30.3388 99.1931C30.3263 99.1948 30.3142 99.2447 30.2994 99.3052C30.2757 99.4019 30.245 99.5266 30.1948 99.5321C30.0078 99.5524 29.7985 99.5173 29.5878 99.4831C29.4909 99.4671 29.3959 99.4515 29.3058 99.4416L29.5257 99.4331C29.3947 99.4232 29.2737 99.4244 29.1708 99.4516C28.9743 99.5039 28.6783 99.3356 28.3818 99.1686C28.1787 99.0519 27.9693 98.9366 27.7949 98.8948C27.6236 98.854 27.4633 98.9665 27.2971 99.0772C27.0998 99.21 26.926 99.3375 26.7454 99.1877C26.7097 99.1572 26.6543 98.9605 26.585 98.7143C26.5359 98.5399 26.4794 98.3404 26.4184 98.1573C26.215 98.1718 25.9976 98.1795 25.7924 98.18C25.7872 98.2076 25.7819 98.2357 25.7766 98.2644C25.7765 98.2651 25.7765 98.2658 25.7764 98.2664C25.6593 98.9142 25.4921 99.8009 25.1329 99.3095C25.0392 99.1848 24.9672 98.9461 24.9021 98.7312C24.8383 98.5203 24.7811 98.3315 24.719 98.2962C24.6499 98.2562 24.5787 98.3954 24.5047 98.5467C24.3988 98.7593 24.2938 98.996 24.1355 98.7999C24.1248 98.7865 24.1133 98.7717 24.1014 98.757C23.9872 98.6177 23.8277 98.411 23.6371 97.9827C23.2028 97.9076 22.765 97.817 22.3442 97.7182C21.6511 97.5519 20.9439 97.3733 20.4566 97.1964C20.2227 97.1074 20.0101 96.5482 19.6772 95.6321C19.3736 94.6968 18.6588 93.6329 17.6785 92.7841C16.6902 91.9383 16.3567 90.4975 16.6299 89.2986C16.8839 88.0998 17.4166 87.311 17.9516 87.0325C18.8306 86.5837 19.5399 86.2411 20.2466 85.9244C20.2803 85.8925 20.3145 85.8615 20.3491 85.8321C20.6125 85.6124 20.8198 85.2189 21.0334 84.8257C21.0817 84.7355 21.1309 84.6451 21.1812 84.557Z" fill="#120F50"/>
<path d="M44.4224 61.6101C44.9081 61.0161 45.7205 61.3321 46.1484 61.5121C46.1563 61.5151 46.1641 61.5181 46.172 61.5211C46.2736 61.5635 46.3723 61.5813 46.4889 61.602C46.7602 61.6511 47.1309 61.7168 47.843 62.1972C48.0596 62.2079 48.2791 62.2266 48.4994 62.2542C50.8335 62.5483 53.0071 63.4307 55.0964 64.4427C55.1251 64.4447 55.1543 64.4468 55.1839 64.4489C55.7437 64.4873 56.4437 64.5407 56.8298 64.8466C57.3164 65.2345 57.6349 65.5705 57.8884 65.8565C58.4334 66.1367 58.9752 66.4128 59.5264 66.6793C59.6106 66.6687 59.851 66.7876 59.9357 66.7843C60.9558 67.3972 61.9874 67.9629 63.0512 68.4258C63.5531 68.6443 64.0608 68.8388 64.5825 69.0067C65.058 69.1598 65.5401 69.2959 66.0346 69.4196C66.3546 69.3829 66.6693 69.3184 66.9637 69.2601C67.3721 69.1764 67.7446 69.1063 68.0169 69.1347C68.6795 69.2051 69.3014 69.6627 69.7636 70.006C69.8394 70.0621 69.9104 70.1151 69.9762 70.1625C70.4148 70.2276 70.8559 70.2892 71.3027 70.353C71.3126 70.4113 71.3218 70.4718 71.331 70.5337C71.4473 71.3069 71.8814 71.456 72.5641 71.7009C72.8628 71.8083 73.2101 71.935 73.5943 72.1392C73.8479 72.2732 73.8765 72.578 73.9039 72.8281C73.9123 72.9019 73.92 72.9708 73.9323 73.0289C73.9745 73.2281 74.1522 73.1028 74.3619 72.9552C74.6392 72.7659 74.9701 72.5381 75.126 72.933C75.6105 74.1876 76.2387 73.7548 76.7464 73.4399C76.8915 73.3461 77.0271 73.2638 77.1404 73.2359C77.5029 73.1431 77.7862 73.5402 77.9332 73.9761C78.0488 74.3204 78.6176 74.3302 79.1635 74.2721C79.1956 74.2682 79.2274 74.2676 79.2591 74.27C79.2964 74.2772 79.3843 74.3595 79.4213 74.3683C79.5708 74.3763 79.7159 74.4661 79.8845 74.5736C80.0927 74.7064 80.3374 74.867 80.6816 74.9422C81.5549 75.1367 82.0305 75.3094 82.4039 75.4425C82.5105 75.4811 82.6109 75.52 82.71 75.5568C83.0264 75.6755 83.3871 75.8698 83.7449 76.078C84.1746 76.3276 84.5998 76.5971 84.9668 76.7644C85.5077 77.5844 85.9432 78.439 86.3134 79.2834C86.5029 79.7178 86.2675 80.4181 85.6235 81.2081C84.9793 81.9992 83.9912 82.8154 82.8831 83.5274C81.7744 84.2393 80.6286 84.8064 79.6972 85.1672C78.7644 85.5244 78.127 85.6433 77.8808 85.4858C77.3839 85.1631 76.8899 84.8955 76.4345 84.6549C75.877 84.3595 75.3876 84.1093 74.9306 83.7639C74.6335 83.5395 74.3261 83.2984 73.9425 82.9979L74.1409 83.1182C74.1185 83.1005 74.095 83.082 74.0703 83.0629C74.0387 83.0383 74.0027 83.0109 73.9697 82.9856C73.5081 83.1017 73.0151 83.1876 72.7032 83.1562C72.4482 83.1314 72.3542 82.8982 72.2668 82.6962C72.2066 82.5573 72.1561 82.4361 72.0563 82.4077C72.0032 82.3927 71.9253 82.3803 71.835 82.3673C71.4558 82.3088 70.8085 82.2173 70.3711 81.7017C70.18 81.4738 69.9881 81.1006 69.8051 80.7463C69.5398 80.2381 69.2808 79.7641 69.052 79.794C68.6429 79.8438 68.3102 79.5498 68.0148 79.2911C67.7272 79.0422 67.4797 78.8279 67.2382 78.9749C66.9473 79.15 66.8228 78.9925 66.6199 78.7536C66.4766 78.5871 66.3136 78.3882 66.0342 78.2346C65.7146 78.0584 65.5374 77.8038 65.3788 77.5849C65.1653 77.2801 64.9955 77.0483 64.5754 77.2285C64.1102 77.4292 63.6633 77.5078 63.4009 77.3092C63.2809 77.2186 63.118 77.1776 62.9559 77.1378C62.7392 77.0843 62.5068 77.0268 62.3375 76.8446C62.2007 76.6954 62.1391 76.4069 62.0836 76.1513C62.0663 76.0716 62.0494 75.9954 62.0311 75.9273C61.893 75.8865 61.7561 75.8478 61.6194 75.8121C61.585 75.8444 61.5482 75.8805 61.5099 75.9177C61.3178 76.1043 61.0815 76.333 60.8523 76.4118C60.4927 76.5376 60.2835 76.3219 60.0556 76.0915C59.8796 75.9126 59.7015 75.7279 59.4353 75.6915C59.2532 75.6666 59.0281 75.7064 58.8053 75.7461C58.4745 75.805 58.1403 75.861 57.9752 75.7099C57.9123 75.653 57.8958 75.48 57.8795 75.308C57.8795 75.307 57.8795 75.306 57.8795 75.3049C57.8784 75.2933 57.8772 75.2818 57.8761 75.2702C57.7087 75.2606 57.54 75.2522 57.37 75.2446L57.7018 75.3297C57.3486 75.345 57.003 75.3678 56.6545 75.3942C56.6035 75.4258 56.5522 75.4568 56.5016 75.4874C56.2541 75.6366 56.0165 75.7825 55.8338 76.0212C55.6394 76.2806 55.2412 76.3742 54.8385 76.4779C54.5744 76.5457 54.293 76.6146 54.0591 76.735C53.921 76.8051 53.8427 76.6216 53.7542 76.4311C53.6734 76.2536 53.5905 76.0716 53.4601 76.0882C53.3948 76.0966 53.3159 76.1515 53.2321 76.2104C53.1581 76.2622 53.0815 76.3176 53.0042 76.3458C52.9321 76.372 52.8041 76.2566 52.6417 76.1104C52.5412 76.02 52.4281 75.9181 52.306 75.8292C51.9237 75.8653 51.5607 75.9019 51.1837 75.9305C51.0848 76.0607 50.9892 76.2355 50.8983 76.4653C50.8331 76.6302 50.7678 76.8294 50.7012 77.0331C50.6103 77.3103 50.5178 77.597 50.4172 77.8211C50.3382 77.9962 50.2694 78.0597 50.2442 77.9774C50.2324 77.9389 50.23 77.8698 50.2278 77.8073C50.2252 77.7357 50.2228 77.672 50.2072 77.6712C50.1959 77.6708 50.1762 77.7179 50.1523 77.775C50.114 77.8661 50.0646 77.9837 50.0195 77.9807C49.8518 77.9697 49.6741 77.9006 49.4938 77.8322C49.2944 77.7562 49.1087 77.6844 48.9413 77.6961C48.7542 77.7093 48.5367 77.4895 48.3077 77.2699C48.1484 77.1168 47.9916 76.9652 47.8501 76.8924C47.7066 76.8203 47.538 76.9001 47.3779 76.979C47.1888 77.0741 46.9968 77.1654 46.8752 76.9865C46.8503 76.9502 46.8398 76.7471 46.8261 76.4929C46.8164 76.3128 46.805 76.1069 46.7863 75.916C46.5975 75.8923 46.4129 75.8617 46.2339 75.8254C46.2244 75.8517 46.2145 75.8783 46.2044 75.9056C46.2042 75.9062 46.204 75.9068 46.2038 75.9075C45.9734 76.5218 45.6816 77.3651 45.4539 76.8185C45.3954 76.6794 45.3754 76.4321 45.357 76.2094C45.3389 75.9908 45.3224 75.7951 45.2743 75.7496C45.2202 75.698 45.1359 75.8227 45.0445 75.9586C44.9164 76.1495 44.7785 76.3636 44.6813 76.1439C44.6746 76.1289 44.6677 76.1125 44.6596 76.0959C44.5849 75.9391 44.476 75.7078 44.3858 75.2538C44.0159 75.1051 43.6574 74.9423 43.3025 74.7739C42.7187 74.4934 42.14 74.1987 41.669 73.9378C41.4384 73.8094 41.2325 73.2224 40.9511 72.2848C40.681 71.3431 40.2768 70.1555 39.9551 68.9038C39.6256 67.6551 39.5424 66.381 39.7897 65.3529C40.0354 64.3255 40.5448 63.6595 41.0436 63.4886C41.8568 63.2116 42.5885 62.987 43.3031 62.7965C43.341 62.7708 43.3791 62.746 43.4173 62.723C43.7014 62.5514 43.9635 62.1993 44.2368 61.8492C44.2981 61.7687 44.36 61.6881 44.4224 61.6101Z" fill="#120F50"/>
<path d="M129.033 22.56C129.659 22.1551 130.244 22.7159 130.525 23.0192C130.531 23.0245 130.537 23.03 130.542 23.0353C130.609 23.1066 130.684 23.1552 130.769 23.2109C130.826 23.2475 130.888 23.288 130.957 23.3422C131.133 23.4815 131.361 23.7123 131.63 24.1968C131.803 24.2801 131.97 24.3699 132.131 24.4668C133.879 25.5217 135.088 27.048 136.095 28.6242C136.115 28.6358 136.134 28.6468 136.154 28.6584C136.543 28.8836 137.015 29.1639 137.134 29.5552C137.286 30.0523 137.337 30.4434 137.367 30.7699C137.757 31.4522 138.141 32.1223 138.545 32.7557C138.883 33.2848 139.234 33.7869 139.616 34.25C139.881 34.5704 140.157 34.8685 140.455 35.1453C140.729 35.4006 141.015 35.6417 141.311 35.8702C141.564 35.9228 141.821 35.9455 142.063 35.9707C142.403 36.0055 142.702 36.0346 142.888 36.1289C143.332 36.3511 143.564 36.8924 143.732 37.2918C143.76 37.3571 143.786 37.4189 143.811 37.475C144.099 37.6359 144.388 37.7894 144.68 37.9443C144.659 37.9959 144.637 38.0492 144.614 38.1037C144.329 38.7842 144.572 39.0079 144.954 39.3637C145.119 39.5171 145.313 39.6985 145.497 39.9492C145.617 40.1112 145.499 40.3774 145.403 40.5945C145.375 40.6584 145.349 40.7182 145.331 40.7697C145.269 40.946 145.457 40.8744 145.679 40.7903C145.967 40.6808 146.315 40.5511 146.246 40.9103C146.03 42.0569 146.694 41.7898 147.198 41.5901C147.346 41.5314 147.48 41.478 147.573 41.4676C147.875 41.4333 147.905 41.7936 147.824 42.1668C147.759 42.4629 148.17 42.5141 148.573 42.4592C148.725 42.4387 148.817 42.5258 148.925 42.6292C149.037 42.7361 149.165 42.8594 149.397 42.8974C149.983 42.9932 150.283 43.0552 150.524 43.106C150.592 43.1203 150.655 43.1342 150.72 43.1471C150.923 43.1876 151.142 43.2728 151.363 43.3581C151.627 43.4603 151.896 43.5652 152.146 43.5969C152.398 44.0797 152.622 44.5901 152.845 45.0991C152.96 45.3617 152.722 45.9599 152.166 46.7818C151.61 47.6041 150.786 48.5778 149.854 49.5093C148.923 50.4409 147.949 51.265 147.127 51.8214C146.305 52.3772 145.706 52.6156 145.444 52.5017C144.918 52.2714 144.391 52.0407 143.895 51.781C143.291 51.4641 142.733 51.1046 142.272 50.6455C141.95 50.3249 141.65 49.9823 141.368 49.6224C141.339 49.5855 141.311 49.5481 141.282 49.5108C140.782 49.4716 140.306 49.4146 140.041 49.3007C139.824 49.2073 139.831 48.9713 139.837 48.7689C139.841 48.6297 139.845 48.5066 139.775 48.4573C139.737 48.4307 139.679 48.4015 139.609 48.3659C139.321 48.2196 138.834 47.9735 138.719 47.4165C138.667 47.1681 138.687 46.8007 138.705 46.4483C138.731 45.9443 138.756 45.4758 138.567 45.443C138.238 45.3873 138.123 45.0506 138.023 44.755C137.927 44.472 137.842 44.2244 137.595 44.2909C137.299 44.3697 137.276 44.1986 137.242 43.9463C137.22 43.7721 137.188 43.5555 137.059 43.3569C136.911 43.1287 136.899 42.8629 136.892 42.6399C136.882 42.3261 136.87 42.0861 136.478 42.1336C136.04 42.1836 135.683 42.1417 135.586 41.9042C135.543 41.7966 135.448 41.7232 135.349 41.6475C135.217 41.5456 135.078 41.4393 135.046 41.2435C135.019 41.0816 135.113 40.8199 135.198 40.5892C135.224 40.5172 135.249 40.4483 135.269 40.3861C135.191 40.3181 135.111 40.2506 135.029 40.185C134.988 40.2038 134.944 40.2252 134.899 40.2472C134.67 40.3574 134.392 40.4944 134.19 40.5056C133.871 40.5219 133.828 40.2892 133.776 40.037C133.737 39.8418 133.699 39.6407 133.527 39.5452C133.41 39.4804 133.233 39.4621 133.054 39.4411C132.915 39.4256 132.779 39.4112 132.674 39.3772C132.578 39.3447 132.507 39.2962 132.485 39.2158C132.468 39.1523 132.539 39.0006 132.609 38.8498C132.609 38.849 132.61 38.8481 132.61 38.8472C132.615 38.837 132.62 38.827 132.625 38.8168C132.272 38.6699 131.915 38.5389 131.551 38.4151C131.501 38.4264 131.451 38.4372 131.402 38.4478C131.162 38.5004 130.926 38.55 130.68 38.6963C130.415 38.8553 130.108 38.8202 129.79 38.7897C129.58 38.7686 129.366 38.7501 129.15 38.7841C129.025 38.8044 129.068 38.6263 129.11 38.4407C129.149 38.2681 129.189 38.0909 129.097 38.0689C129.05 38.0574 128.97 38.0814 128.886 38.1077C128.811 38.1309 128.733 38.1558 128.669 38.159C128.611 38.1625 128.587 38.0285 128.557 37.8598C128.539 37.7559 128.517 37.637 128.482 37.5271C128.224 37.4578 127.965 37.3855 127.717 37.3149C127.59 37.4009 127.441 37.5255 127.27 37.6994C127.147 37.8241 127.007 37.9785 126.864 38.1366C126.67 38.3517 126.47 38.5745 126.297 38.7427C126.162 38.8737 126.089 38.9119 126.114 38.8351C126.126 38.7993 126.159 38.7394 126.189 38.6851C126.223 38.623 126.253 38.5677 126.244 38.5633C126.237 38.5602 126.202 38.5961 126.159 38.6394C126.091 38.7086 126.003 38.798 125.977 38.7849C125.88 38.7348 125.807 38.6339 125.733 38.5331C125.652 38.4225 125.571 38.3148 125.469 38.2894C125.353 38.2598 125.327 38.0189 125.299 37.7788C125.278 37.6106 125.258 37.4448 125.207 37.3491C125.159 37.2565 125.022 37.2906 124.894 37.3275C124.738 37.3705 124.593 37.4166 124.604 37.2334C124.606 37.1963 124.692 37.0143 124.799 36.7861C124.874 36.6244 124.959 36.4386 125.033 36.2648C124.936 36.2062 124.843 36.1419 124.753 36.0727C124.736 36.0942 124.719 36.1161 124.701 36.1385C124.701 36.1391 124.701 36.1396 124.7 36.1401C124.302 36.6455 123.777 37.3491 123.89 36.8182C123.917 36.6826 124.011 36.4557 124.094 36.2512C124.149 36.1156 124.2 35.9895 124.225 35.9063C124.237 35.8661 124.242 35.8359 124.239 35.8193C124.229 35.7616 124.13 35.859 124.023 35.9658C123.873 36.1153 123.712 36.2864 123.748 36.0687C123.75 36.0539 123.753 36.0376 123.755 36.0213C123.779 35.8657 123.816 35.6368 123.944 35.2039C123.802 35.0028 123.674 34.7919 123.55 34.5761C123.342 34.2161 123.155 33.8441 122.867 33.4618C122.729 33.2747 122.684 32.6363 122.753 31.652C122.823 30.6668 123.02 29.4282 123.335 28.1744C123.65 26.9209 124.047 25.7326 124.478 24.8386C124.908 23.9458 125.355 23.4339 125.733 23.3937C126.344 23.3287 127.02 23.3091 127.676 23.3366C127.716 23.3232 127.756 23.3109 127.795 23.3002C128.087 23.2199 128.435 22.9699 128.789 22.7255C128.871 22.6698 128.951 22.6132 129.033 22.56Z" fill="#120F50"/>
<path d="M155.926 14.4735C156.625 14.3554 156.837 15.039 156.944 15.4101C156.947 15.4166 156.949 15.4232 156.951 15.4297C156.975 15.5161 157.017 15.5845 157.066 15.6647C157.184 15.858 157.341 16.1139 157.394 16.8501C157.511 16.9838 157.624 17.1233 157.73 17.2692C158.867 18.8268 159.513 20.6699 160.034 22.5546C160.05 22.5725 160.066 22.5907 160.083 22.6091C160.392 22.9557 160.78 23.3976 160.788 23.8208C160.803 24.3656 160.746 24.7669 160.694 25.1073C161.076 26.602 161.482 28.0621 162.094 29.3831C162.285 29.7953 162.5 30.1996 162.737 30.5821C162.959 30.9386 163.192 31.2793 163.443 31.6163C163.686 31.7544 163.942 31.8652 164.18 31.9703C164.514 32.117 164.815 32.2539 164.98 32.4094C165.38 32.7875 165.499 33.4271 165.583 33.8985C165.597 33.9759 165.61 34.049 165.624 34.1159C165.676 34.1694 165.728 34.2228 165.781 34.2763C165.797 34.2881 165.816 34.3498 165.831 34.3619C166.037 34.5825 166.244 34.7998 166.45 35.0157C166.418 35.0627 166.383 35.1109 166.348 35.1599C165.903 35.7694 166.097 36.0977 166.4 36.6255C166.53 36.8518 166.685 37.1253 166.811 37.4681C166.894 37.6935 166.707 37.9244 166.557 38.1163C166.513 38.1723 166.471 38.2246 166.44 38.2716C166.333 38.4315 166.542 38.4372 166.787 38.4427C167.105 38.4482 167.49 38.4622 167.331 38.8209C166.815 39.9522 167.548 39.9725 168.114 40.0094C168.279 40.0186 168.43 40.0292 168.527 40.0666C168.844 40.1861 168.773 40.6028 168.581 40.9713C168.43 41.264 168.823 41.5441 169.242 41.7252C169.401 41.7928 169.464 41.9449 169.537 42.1256C169.605 42.2948 169.679 42.4869 169.851 42.656C169.868 42.6734 169.887 42.6906 169.906 42.7075C170.444 43.1769 170.724 43.5015 170.942 43.7574C171.005 43.8314 171.062 43.9017 171.121 43.9726C171.306 44.1962 171.487 44.4997 171.659 44.8095C171.867 45.1814 172.062 45.5556 172.27 45.8227C172.254 46.6242 172.148 47.3438 172.028 48.0247C171.965 48.3743 171.413 48.7578 170.468 49.082C169.522 49.4086 168.269 49.6571 166.958 49.7901C165.647 49.9222 164.371 49.9308 163.38 49.8339C162.39 49.7375 161.773 49.5399 161.637 49.2897C161.365 48.7832 161.085 48.3176 160.842 47.9346C160.542 47.4573 160.315 47.1505 160.141 46.6413C160.1 46.5191 160.057 46.3872 160.013 46.2456C159.928 45.9751 159.857 45.7153 159.79 45.4494C159.78 45.4082 159.77 45.3664 159.759 45.3241C159.328 45.1259 158.918 44.9291 158.72 44.746C158.556 44.5959 158.648 44.3845 158.725 44.2014C158.778 44.0757 158.824 43.9618 158.775 43.8938C158.749 43.8571 158.703 43.8092 158.65 43.7545C158.43 43.5259 158.048 43.1364 158.101 42.5564C158.124 42.2966 158.25 41.9443 158.365 41.5985C158.531 41.1099 158.676 40.6408 158.501 40.5467C158.189 40.3752 158.165 40.0011 158.137 39.6619C158.113 39.3431 158.089 39.0605 157.825 39.042C157.774 39.0383 157.732 39.0304 157.697 39.0186L157.745 39.0995C157.561 39.0401 157.573 38.8722 157.589 38.6414C157.602 38.4504 157.618 38.2171 157.53 37.9666C157.426 37.6744 157.472 37.3967 157.512 37.1607C157.568 36.8295 157.608 36.5779 157.199 36.491C156.744 36.3946 156.389 36.2278 156.341 35.9466C156.32 35.8192 156.239 35.7093 156.154 35.5955C156.042 35.445 155.924 35.2871 155.931 35.0686C155.938 34.8891 156.09 34.6499 156.225 34.4382C156.267 34.3721 156.307 34.3089 156.341 34.2509C156.276 34.1519 156.21 34.0563 156.14 33.9581C156.095 33.9635 156.046 33.9703 155.995 33.9773C155.738 34.012 155.423 34.055 155.216 33.9957C154.888 33.902 154.892 33.6398 154.894 33.3581C154.896 33.1398 154.899 32.9129 154.746 32.7535C154.642 32.6455 154.461 32.5553 154.283 32.4696C154.019 32.3407 153.763 32.2198 153.75 32.0217C153.746 31.9479 153.851 31.8148 153.956 31.6826C153.957 31.6819 153.958 31.6811 153.958 31.6804C153.965 31.6714 153.972 31.6626 153.979 31.6536C153.652 31.3693 153.313 31.0923 152.968 30.8219C152.914 30.8143 152.86 30.8062 152.807 30.798C152.549 30.7598 152.294 30.7171 152.007 30.772C151.695 30.8297 151.391 30.6747 151.065 30.5057C150.852 30.3954 150.632 30.2837 150.401 30.2291C150.267 30.1982 150.35 30.0234 150.437 29.8458C150.518 29.6798 150.6 29.5094 150.509 29.445C150.463 29.4128 150.375 29.4041 150.281 29.395C150.198 29.387 150.11 29.3794 150.043 29.3538C149.98 29.3295 149.987 29.1774 149.995 28.9841C150 28.8646 150.005 28.7295 149.996 28.5983C149.742 28.4063 149.487 28.2067 149.244 28.0138C149.088 28.0434 148.902 28.104 148.678 28.2049C148.517 28.2773 148.331 28.3727 148.141 28.4704C147.882 28.6032 147.615 28.7407 147.39 28.8326C147.214 28.9043 147.126 28.9071 147.171 28.8372C147.193 28.8045 147.242 28.7567 147.287 28.7134C147.338 28.6638 147.383 28.6196 147.374 28.61C147.368 28.6032 147.321 28.6234 147.265 28.6478C147.175 28.6867 147.059 28.7369 147.034 28.7087C146.942 28.6044 146.881 28.4464 146.825 28.2966C146.761 28.1285 146.701 27.9699 146.592 27.8777C146.47 27.7766 146.498 27.495 146.525 27.2155C146.542 27.0169 146.558 26.8199 146.526 26.6852C146.495 26.5531 146.337 26.5082 146.181 26.4617C145.994 26.4071 145.816 26.358 145.875 26.1643C145.887 26.1249 146.031 25.9831 146.211 25.8038C146.338 25.6765 146.482 25.5308 146.612 25.3907C146.517 25.2612 146.43 25.1292 146.35 24.9954C146.325 25.0072 146.3 25.0191 146.274 25.0313C146.273 25.0316 146.272 25.0319 146.272 25.0322C145.682 25.3059 144.878 25.6843 145.151 25.1818C145.22 25.0542 145.392 24.8759 145.545 24.7151C145.697 24.5573 145.832 24.4159 145.836 24.3549C145.842 24.2856 145.699 24.3168 145.545 24.3517C145.327 24.3998 145.089 24.4601 145.191 24.2476C145.198 24.2332 145.206 24.2175 145.214 24.2016C145.287 24.0505 145.394 23.8279 145.679 23.4686C145.573 23.1369 145.482 22.7974 145.397 22.4509C145.259 21.8761 145.145 21.2907 145.03 20.7295C144.977 20.4567 145.274 19.8856 145.856 19.0894C146.436 18.2898 147.245 17.3324 148.157 16.4168C149.07 15.5022 150.04 14.7041 150.923 14.2185C151.796 13.7259 152.49 13.5802 152.832 13.7502C153.388 14.0283 153.933 14.3159 154.439 14.5995C154.478 14.6048 154.517 14.6109 154.554 14.6181C154.833 14.6728 155.233 14.5894 155.644 14.52C155.738 14.5037 155.833 14.4877 155.926 14.4735Z" fill="#120F50"/>
<path d="M249.184 61.2206C249.042 60.4981 249.734 60.2022 250.119 60.0422C250.126 60.0392 250.132 60.0363 250.139 60.0333C250.228 59.9974 250.297 59.9463 250.379 59.8853C250.577 59.7376 250.84 59.5418 251.595 59.4075C251.733 59.2676 251.87 59.1385 252.015 59.0144C253.58 57.6689 255.458 56.8124 257.394 56.0759C257.411 56.0582 257.429 56.0402 257.447 56.0219C257.796 55.666 258.229 55.23 258.675 55.1712C259.237 55.1005 259.657 55.1144 260.017 55.129C260.031 55.1241 260.044 55.1192 260.058 55.1142C260.102 55.0406 260.359 54.9373 260.409 54.8675C262.025 54.412 263.585 53.9815 265.017 53.3584C265.469 53.1619 265.909 52.9456 266.335 52.7043C266.725 52.4826 267.108 52.2452 267.483 51.9948C267.646 51.7498 267.787 51.4894 267.918 51.248C268.103 50.9089 268.269 50.6076 268.45 50.4404C268.889 50.0369 269.574 49.9311 270.083 49.8553C270.166 49.8429 270.245 49.8314 270.317 49.8194C270.618 49.5652 270.917 49.3069 271.218 49.0468C271.265 49.0806 271.313 49.1163 271.361 49.1531C271.968 49.6125 272.321 49.4207 272.883 49.1221C273.126 48.9928 273.413 48.8422 273.771 48.7193C274.003 48.6398 274.238 48.8276 274.427 48.9821C274.483 49.0275 274.535 49.0699 274.582 49.1017C274.744 49.2105 274.754 49.002 274.77 48.7539C274.79 48.4324 274.813 48.0474 275.172 48.2112C276.311 48.7367 276.344 47.9975 276.382 47.4308C276.392 47.2652 276.401 47.1156 276.437 47.0185C276.553 46.7031 276.963 46.7731 277.333 46.9599C277.626 47.1077 277.896 46.7088 278.053 46.2877C278.111 46.1292 278.266 46.0585 278.438 45.9812C278.615 45.9019 278.836 45.8051 279.01 45.5845C279.141 45.4259 279.254 45.291 279.352 45.1738C279.627 44.8627 279.81 44.6701 279.975 44.5043C280.038 44.4394 280.098 44.3799 280.163 44.3173C280.36 44.1221 280.628 43.9257 280.924 43.7269C281.269 43.4916 281.683 43.246 282.013 43.0004C282.518 42.9546 283.072 42.9171 283.82 42.9244C284.581 42.9655 285.494 42.8851 287.267 43.5384C288.168 43.8779 289.209 44.7462 289.651 45.6837C290.112 46.6224 290.019 47.4006 289.712 47.9013C289.062 48.8875 287.812 49.2393 286.579 49.6903C285.342 50.1381 284.038 50.2675 283.176 50.7425C282.758 50.9895 282.5 51.4355 282.664 52.0464C282.813 52.6548 283.423 53.2496 283.896 53.4486C284.86 53.842 285.035 53.8077 285.105 53.9246C285.158 54.0166 285.059 54.1276 284.928 54.2504C284.59 54.5506 284.051 54.8909 283.444 55.1348C283.423 55.1432 283.402 55.1517 283.38 55.1602C282.97 55.3225 282.53 55.476 282.072 55.6189C282.023 55.6341 281.973 55.649 281.923 55.6642C281.667 56.1324 281.406 56.5755 281.175 56.7981C280.987 56.9808 280.751 56.9 280.544 56.8337C280.403 56.7872 280.28 56.7457 280.198 56.8002C280.155 56.8294 280.099 56.8781 280.031 56.937C279.758 57.1753 279.293 57.5845 278.663 57.5425C278.382 57.5241 278.006 57.4018 277.644 57.2872C277.126 57.1236 276.641 56.9745 276.526 57.1545C276.325 57.4701 275.921 57.4966 275.564 57.5211C275.222 57.5452 274.925 57.5664 274.888 57.8337C274.844 58.153 274.655 58.1313 274.372 58.1021C274.175 58.082 273.935 58.0576 273.668 58.1393C273.358 58.2339 273.075 58.1778 272.833 58.1312C272.492 58.0656 272.235 58.0171 272.116 58.4287C271.985 58.8858 271.785 59.2419 271.493 59.2818C271.36 59.3 271.241 59.3799 271.118 59.4633C270.954 59.5736 270.782 59.6899 270.558 59.6771C270.374 59.6665 270.135 59.5077 269.924 59.3676C269.858 59.3238 269.795 59.2822 269.737 59.2472C269.63 59.3117 269.524 59.3776 269.42 59.446C269.423 59.4917 269.428 59.5419 269.432 59.5937C269.453 59.8538 269.48 60.1726 269.407 60.3813C269.293 60.7111 269.018 60.7056 268.731 60.6983C268.507 60.6926 268.271 60.6887 268.099 60.8425C267.982 60.9469 267.882 61.1287 267.786 61.307C267.644 61.5715 267.503 61.8343 267.302 61.8438C267.227 61.8475 267.095 61.74 266.963 61.6331C266.963 61.6324 266.962 61.6317 266.961 61.631C266.952 61.6237 266.944 61.6167 266.935 61.6095C266.628 61.9408 266.334 62.2827 266.051 62.63C266.042 62.6848 266.032 62.7393 266.022 62.7931C265.979 63.0278 265.94 63.2552 265.97 63.506L266.295 63.2784C266.3 63.3085 266.306 63.3388 266.313 63.3693C266.387 63.6811 266.233 64.0139 266.079 64.3588C265.979 64.5846 265.866 64.8252 265.82 65.0661C265.793 65.2074 265.611 65.1392 265.424 65.0686C265.25 65.0023 265.065 64.9389 265.003 65.0393C264.971 65.0899 264.965 65.1811 264.96 65.2783C264.955 65.3638 264.951 65.4543 264.928 65.5254C264.906 65.5923 264.755 65.5962 264.55 65.6117C264.424 65.6203 264.283 65.63 264.146 65.6539C263.962 65.9314 263.766 66.2141 263.576 66.484C263.615 66.6386 263.688 66.8211 263.805 67.0377C263.889 67.1926 263.996 67.3728 264.106 67.5561C264.256 67.8056 264.411 68.0633 264.517 68.2833C264.6 68.4552 264.607 68.5447 264.532 68.5062C264.497 68.4881 264.445 68.4431 264.398 68.4023C264.344 68.3557 264.296 68.3142 264.286 68.3243C264.279 68.3316 264.302 68.3768 264.33 68.4316C264.375 68.519 264.433 68.632 264.405 68.6605C264.301 68.7653 264.143 68.8424 263.989 68.9179C263.817 69.002 263.657 69.0788 263.568 69.2001C263.468 69.3361 263.175 69.3385 262.885 69.3404C262.678 69.3458 262.474 69.3503 262.337 69.3968C262.204 69.4411 262.161 69.6113 262.123 69.7742C262.075 69.9709 262.041 70.1524 261.832 70.1175C261.791 70.11 261.635 69.9796 261.441 69.8167C261.303 69.7013 261.145 69.5694 260.993 69.4528C260.867 69.5615 260.737 69.6631 260.599 69.7629C260.613 69.7872 260.626 69.812 260.64 69.8373C260.641 69.8378 260.641 69.8384 260.641 69.839C260.956 70.4095 261.397 71.1813 260.86 70.9628C260.724 70.9068 260.532 70.7512 260.358 70.6114C260.188 70.4742 260.037 70.3504 259.973 70.3535C259.901 70.3562 259.941 70.4983 259.985 70.6516C260.047 70.8681 260.126 71.1017 259.901 71.0217C259.886 71.0161 259.869 71.0099 259.852 71.0038C259.693 70.9466 259.459 70.8608 259.075 70.6092C258.738 70.7579 258.405 70.8809 258.061 71.0026C257.5 71.1939 256.916 71.3804 256.454 71.476C256.23 71.5182 255.717 71.2025 254.936 70.6196C254.176 70.0593 253.071 69.1458 251.736 69.3528C250.37 69.5026 249.403 67.9421 248.927 66.975C248.425 65.9354 248.297 65.1289 248.498 64.6736C248.829 63.9371 249.095 63.3371 249.383 62.7497C249.387 62.7081 249.392 62.667 249.398 62.6269C249.447 62.3234 249.338 61.9224 249.249 61.5024C249.226 61.4084 249.204 61.3139 249.184 61.2206Z" fill="#120F50"/>
<path d="M271.983 68.7839C271.924 68.0843 272.593 67.9583 272.954 67.8961C272.961 67.8947 272.967 67.8933 272.974 67.8919C273.061 67.8764 273.131 67.8426 273.213 67.8023C273.404 67.7093 273.671 67.5774 274.386 67.6022C274.528 67.4978 274.671 67.4012 274.819 67.311C276.425 66.3354 278.289 65.8465 280.191 65.481C280.21 65.4668 280.229 65.4524 280.248 65.4378C280.619 65.1549 281.079 64.8076 281.501 64.8318C282.038 64.8622 282.437 64.9472 282.769 65.0272C284.281 64.7635 285.756 64.4752 287.116 63.9676C287.541 63.8093 287.955 63.6283 288.355 63.4209C288.724 63.2297 289.084 63.0221 289.436 62.8003C289.571 62.5977 289.69 62.3817 289.801 62.1763C289.846 62.1222 290.072 62.0786 290.121 62.0281C290.141 62.0007 290.16 61.9735 290.179 61.9465C290.4 61.6294 290.604 61.348 290.807 61.2033C291.3 60.8526 292.015 60.8345 292.541 60.8336C292.628 60.8331 292.709 60.8331 292.784 60.8318C293.131 60.6244 293.483 60.4153 293.84 60.2091C293.881 60.2505 293.922 60.2939 293.964 60.3386C294.49 60.8969 294.876 60.7723 295.504 60.5931C295.777 60.5155 296.093 60.4291 296.48 60.3892C296.729 60.3638 296.914 60.6018 297.062 60.7966C297.105 60.8539 297.146 60.9074 297.184 60.9496C297.316 61.0939 297.377 60.8938 297.452 60.6575C297.549 60.351 297.672 59.9822 297.979 60.2323C298.942 61.033 299.153 60.3372 299.34 59.8028C299.393 59.6466 299.442 59.5055 299.502 59.4221C299.697 59.1515 300.063 59.3347 300.352 59.6198C300.582 59.8455 300.932 59.5424 301.184 59.1858C301.279 59.0507 301.428 59.0291 301.603 59.0051C301.784 58.9802 301.993 58.9529 302.199 58.7919C302.267 58.7382 302.332 58.6882 302.393 58.6414C302.422 58.6255 302.527 58.641 302.556 58.626C303 58.3291 303.295 58.1709 303.542 58.0429C303.624 58.0008 303.702 57.9628 303.78 57.9237C304.029 57.8 304.355 57.698 304.71 57.6062C305.134 57.4956 305.601 57.4021 305.983 57.2797C306.925 57.5218 307.927 57.9052 308.854 58.4077C309.335 58.6661 309.609 59.4107 309.514 60.4332C309.425 61.4592 308.987 62.6645 308.405 63.8459C307.823 65.0277 307.162 66.1189 306.663 66.9652C306.159 67.8081 305.867 68.3313 305.742 68.4023C305.485 68.5422 305.262 68.7134 304.981 68.8578C304.641 69.0343 304.202 69.1804 303.608 69.2227C303.535 69.2278 303.461 69.2324 303.384 69.2365L303.571 69.2187C303.175 69.2538 302.784 69.2702 302.397 69.2727C302.348 69.273 302.3 69.2728 302.252 69.2726C301.906 69.6446 301.575 69.9902 301.333 70.1335C301.134 70.2518 300.954 70.1055 300.798 69.9812C300.691 69.8957 300.596 69.8204 300.518 69.8485C300.476 69.8636 300.42 69.8936 300.354 69.9299C300.08 70.0782 299.637 70.3325 299.138 70.1191C298.916 70.0241 298.631 69.8061 298.352 69.6024C297.954 69.3107 297.569 69.0493 297.45 69.1945C297.243 69.4483 296.906 69.379 296.602 69.3233C296.313 69.27 296.055 69.2293 296 69.4787C295.933 69.7773 295.777 69.717 295.536 69.6332C295.37 69.5747 295.163 69.5056 294.925 69.5354C294.65 69.57 294.404 69.4676 294.194 69.3813C293.896 69.261 293.669 69.1735 293.539 69.5548C293.496 69.6816 293.449 69.799 293.395 69.9012L293.67 69.7742C293.551 70.0288 293.396 70.2008 293.201 70.2168C293.074 70.2272 292.96 70.2994 292.84 70.3748C292.682 70.4747 292.516 70.5793 292.302 70.5533C292.126 70.5322 291.899 70.3615 291.699 70.2103C291.637 70.1632 291.577 70.1183 291.522 70.0801C291.419 70.1372 291.318 70.1956 291.217 70.2566C291.219 70.3019 291.223 70.3516 291.226 70.403C291.242 70.6609 291.262 70.9772 291.188 71.1788C291.072 71.4975 290.81 71.4738 290.533 71.4484C290.317 71.4287 290.094 71.4072 289.922 71.5485C289.806 71.6445 289.706 71.8158 289.609 71.9852C289.464 72.2371 289.319 72.4863 289.125 72.4814C289.052 72.4796 288.928 72.3639 288.805 72.2488C288.805 72.248 288.804 72.2473 288.803 72.2465C288.795 72.2387 288.787 72.2311 288.778 72.2234C288.471 72.528 288.174 72.8423 287.879 73.165C287.868 73.2183 287.856 73.2713 287.844 73.3235C287.786 73.5785 287.727 73.8276 287.76 74.1175C287.796 74.432 287.618 74.7244 287.427 75.0352C287.303 75.2385 287.178 75.4468 287.103 75.6743C287.06 75.8069 286.896 75.7094 286.726 75.6089C286.567 75.5152 286.405 75.4187 286.334 75.505C286.298 75.5484 286.282 75.6358 286.266 75.7292C286.251 75.8115 286.236 75.8985 286.206 75.9637C286.178 76.0241 286.028 76.0049 285.838 75.981C285.719 75.9669 285.584 75.9512 285.452 75.9505C285.241 76.1889 285.026 76.4257 284.812 76.655C284.83 76.812 284.877 77.002 284.961 77.2331C285.02 77.3989 285.101 77.5917 285.184 77.7888C285.296 78.0571 285.412 78.3342 285.486 78.566C285.544 78.7472 285.539 78.8352 285.473 78.7845C285.442 78.7608 285.398 78.7079 285.358 78.6601C285.313 78.6053 285.272 78.5567 285.262 78.5647C285.255 78.5706 285.271 78.6186 285.291 78.6766C285.323 78.7694 285.363 78.8892 285.333 78.9119C285.221 78.9959 285.06 79.0437 284.905 79.0887C284.733 79.1391 284.566 79.1879 284.466 79.2894C284.355 79.4029 284.078 79.3521 283.796 79.3054C283.6 79.2726 283.405 79.2404 283.267 79.2615C283.133 79.282 283.069 79.4393 283.011 79.5904C282.941 79.7723 282.877 79.9459 282.684 79.8734C282.645 79.8585 282.514 79.7037 282.351 79.5102C282.234 79.3731 282.101 79.2165 281.973 79.0759C281.836 79.1591 281.696 79.2351 281.55 79.3066C281.559 79.3327 281.569 79.3593 281.578 79.3864C281.579 79.387 281.579 79.3876 281.579 79.3883C281.799 80.0008 282.109 80.8326 281.621 80.5238C281.497 80.4451 281.334 80.2589 281.188 80.0915C281.044 79.927 280.915 79.7799 280.854 79.77C280.785 79.7588 280.803 79.9037 280.821 80.0624C280.847 80.2848 280.877 80.5325 280.676 80.4108C280.662 80.4025 280.647 80.3933 280.632 80.3843C280.487 80.2984 280.273 80.1719 279.937 79.8576C279.588 79.9383 279.228 80.0041 278.863 80.0599C278.256 80.1523 277.628 80.2226 277.008 80.2975C276.706 80.3317 276.152 79.9788 275.431 79.2987C274.712 78.6162 273.895 77.6642 273.143 76.6127C272.392 75.5612 271.76 74.4774 271.382 73.5537C271.006 72.6307 270.912 71.957 271.093 71.661C271.395 71.1766 271.688 70.7043 272.004 70.2442C272.011 70.2072 272.019 70.1709 272.028 70.1359C272.094 69.8766 272.056 69.4672 272.011 69.0624C272.001 68.9691 271.991 68.8756 271.983 68.7839Z" fill="#120F50"/>
</svg>
